<svg width="32" height="32" fill="none" xmlns="http://www.w3.org/2000/svg"><defs/><path d="M16 32L6 23v-8l10 9 10-9v8l-10 9z" fill="#FFF9F2"/><path fill-rule="evenodd" clip-rule="evenodd" d="M16 24L6 15v8l10 9 10-9v-8l-10 9zm8.5-5.632l-8.5 7.65-8.5-7.65v3.964l8.5 7.65 8.5-7.65v-3.964z" fill="#232332"/><path d="M16 9l10-9v17l-10 9-10-9V0l10 9z" fill="#6E203D"/><path fill-rule="evenodd" clip-rule="evenodd" d="M16 11.018l-8.5-7.65v12.964l8.5 7.65 8.5-7.65V3.368l-8.5 7.65zM26 0v17l-10 9-10-9V0l10 9 10-9z" fill="#232332"/></svg>