<svg xmlns="http://www.w3.org/2000/svg" viewBox="0 0 380 380"><defs/><defs/><path class="a" d="M136 310h1a25 25 0 00-5 0h4zM238 311a5 5 0 00-2 1h-3c-1 0 1 0 0 0h4c2 0 0 0 1-1zM96 301a38 38 0 004 3l2 1 2 1 2 1a17 17 0 01-2-1 9 9 0 00-2-1l1 1 3 1 2 1-1-1a25 25 0 012 1 19 19 0 003 1 71 71 0 01-9-3 75 75 0 01-7-5zM123 311h2-2z"/><path class="a" d="M114 308l-8-3h-2l3 1a47 47 0 007 2zM139 311a12 12 0 01-2 0s1 0 0 0a3 3 0 01-1 0h-5 2-2-1 2a35 35 0 004 0h-1a12 12 0 001 0 8 8 0 003 0c-1 0 0 0 0 0zM131 311h-2 2zM126 311h0z"/><path class="a" d="M116 309h-1l-6-2 2 1h-1 2s0 1 0 0h-1-1a2 2 0 00-1-1l-2-1c1 1 0 0 0 0h-2a28 28 0 013 1l3 1a37 37 0 003 1l2 1h3l-3-1zm-3-1a10 10 0 011 1l-1-1zM99 80l1-1s1 0 0 0l-1 1zM104 77c-1 1-4 2-1 1a12 12 0 001-1h0zM103 304a12 12 0 01-2-1l-1-1a7 7 0 00-2-1l3 2 3 2-1-1zM93 84l-1 1 1-1zM98 81l-1 1 1-1zM97 81h-1l1-1-1 1-2 1 3-1z"/><path class="a" d="M94 82l2-1a9 9 0 00-3 2 7 7 0 00-2 2 27 27 0 013-2v-1zM89 87h1v-1l-1 1zM92 85a8 8 0 00-1 1c1-1 0 0 0 0h1v-1z"/><path class="a" d="M92 84l-2 2a18 18 0 012-2zM123 310a7 7 0 00-1 0h-3 4zM244 312h-3 1a11 11 0 01-1 0h3a2 2 0 011 0h-1zM247 311h0zM248 312c1 0 0 0 0 0h1a2 2 0 00-1 0zM239 311h-2 5-3zM260 309l-3 1h-3 3l3-1zM238 310h-7a25 25 0 004 0 6 6 0 001 0 4 4 0 001 0h5-4zM256 311a7 7 0 00-2 1h-4a12 12 0 002 0h2a6 6 0 011 0h1l4-1a11 11 0 003-1l-3 1h-4zM253 311h-3 3zM139 310a42 42 0 005 0h-5z"/><path class="a" d="M255 312a15 15 0 002 0h-2zM251 311a8 8 0 00-2 1 3 3 0 002 0v-1zM157 311a21 21 0 012 0h-2zM162 310h4-14a36 36 0 01-4 0 7 7 0 002 0h9a22 22 0 003 0zM143 311h2-2zM154 311h-4 3s-1 0 0 0h1zM162 311h3a15 15 0 004 0l-2-1-5 1zM188 310h1 2-3zM159 311h-4 4zM166 311h5-3-2zM160 311h2-4 6-4zM147 311h4-4zM300 280a26 26 0 01-2 2s1-1 0 0v1l-1 1v1l-1 2a17 17 0 002-3l1-1 1-2v0l1-1 1-1h-1a7 7 0 010-1l1-1v1l1-2a14 14 0 001-2 13 13 0 01-2 3 12 12 0 011-2l1-2v1a54 54 0 003-11l1-2a14 14 0 000-4v-1a9 9 0 00-1-3 13 13 0 010 2 14 14 0 000 2c0-1 0 0 0 0l-1 1v6a17 17 0 01-1 1v3a13 13 0 00-1 2l1-2-1 1h1l-1 2c0 1 0 1 0 0a56 56 0 01-4 9 17 17 0 001-3h1v-1 1a21 21 0 01-1 1l-2 3 1-1zm6-15l1-1-1 1zm1-9v-1 1zm0 5h-1 1zm-1 1h1a10 10 0 01-1 2 4 4 0 010-2zm0 4a22 22 0 010-2v3l-1 1 1-2zm-3 7v-1c1 1 1 0 1-1a8 8 0 010 2l-1 2-1 1 1-3zm-2 5l1-1-2 3a4 4 0 011-2zM72 199a16 16 0 000 3 33 33 0 00-1-6l1 3zM311 263a19 19 0 000-2l-1 3a19 19 0 000 2l1-3zM304 105l2 3a26 26 0 00-2-3zM310 130v5a9 9 0 000 3v-10-4 3zM304 104a14 14 0 00-1-2 6 6 0 001 2zM203 311a7 7 0 002 0 9 9 0 00-2 0zM273 75a43 43 0 00-6-2l7 3-1-1zM278 78a66 66 0 018 5l2 1a9 9 0 002 1 65 65 0 00-7-5 76 76 0 00-8-4 5 5 0 001 1l2 1zM230 312h1-1s-1 0 0 0zM269 309a27 27 0 00-3 1 5 5 0 00-2 0h1l2-1a8 8 0 003 0h-1zM271 308a8 8 0 00-2 0 7 7 0 012 0 14 14 0 012-1 5 5 0 002 0 26 26 0 01-3 0l-1 1zM257 71l3 1a14 14 0 00-3-1zM96 82a16 16 0 00-3 2l1-1 1-1h1zM300 285l2-2a4 4 0 001-1l-3 3zM184 311a21 21 0 00-2 0l-1 1h6c1-1-2-1-3-1zM291 87l-1-1 1 1 1 1a4 4 0 001 1 21 21 0 00-2-2zM294 89l4 5a34 34 0 00-4-5zM285 301l-3 2a7 7 0 002-1l3-2a16 16 0 003-2l-3 2-2 1z"/><path class="a" d="M288 299a8 8 0 00-2 1l-1 1 1-1-2 1h1l2-1 1-1a11 11 0 001-1l1-1a13 13 0 01-3 2h1zM274 307a45 45 0 007-4 3 3 0 001 0 6 6 0 00-1 0 68 68 0 01-7 4zM76 102l3-5a25 25 0 00-3 4v1zM69 150v0zM69 122a4 4 0 010 1 8 8 0 000 3v-4zM72 114l-1 2 1-2s0-1 0 0zM120 72a5 5 0 00-2 0h2zM256 71h-3a18 18 0 00-2 0h3a6 6 0 002 0zM70 118a24 24 0 000 3 39 39 0 011-5 5 5 0 00-1 2zM100 78a14 14 0 003-1l1-1h1l-1 1 3-2h1a10 10 0 002-1 4 4 0 011-1 4 4 0 011 0l-1 1 3-2-2 1a22 22 0 01-2 1c-1 0 0 0 0 0l-5 2h-1l-2 1h1l-3 1-1 1-2 1a8 8 0 002-1l1-1zM210 69a3 3 0 001 0 7 7 0 00-2 0 9 9 0 001 0zM238 71h-2 2zM112 74a13 13 0 00-2 1l2-1h1c0-1 0 0 0 0 1-1-1-1 1-1h1l1-1-3 1-1 1zM289 6h16-30 14z"/><path class="a" d="M375 331l1-6-1-3v-4-3-1-5-1a42 42 0 000-5v-3-5-3l1-20v-2a16 16 0 01-1-3v1a10 10 0 000-2l-1 2a128 128 0 000 15v8a20 20 0 000 2v24c0 1 0-1 0 0a6 6 0 000 2v6a12 12 0 000 2v11a27 27 0 000 4v5a16 16 0 000 1v3a8 8 0 01-1 2v2a15 15 0 010 1v-1a6 6 0 010-1v2l-1 1a9 9 0 01-1 2v2l-1 1-1 1v1a10 10 0 010-1l1-1a26 26 0 01-6 6 60 60 0 01-5 4 11 11 0 002-1 15 15 0 002-1l1-1 2-2-1 1a22 22 0 01-2 2 29 29 0 01-7 3l-2 1a24 24 0 01-2 0l-2 1h-10-1-3-4a31 31 0 00-3 0h-4-1a4 4 0 00-2 0 6 6 0 012 0h-6 7-3a9 9 0 01-2 0h-13-2l-18-1h-4a116 116 0 00-9 0h-15-10s1 0 0 0h-16c1 0 5 0 4 1l-10-1a17 17 0 01-4 0h2-14 3-6a13 13 0 012 0c-3 0-1 1-2 1l-4-1h-27-2 3-2 28s2 0 1-1h-5 8a6 6 0 012 0 18 18 0 012 0h-3l-1 1h-2a20 20 0 003 0h37 5 2l-2-1h4l1 1h3a36 36 0 01-5 0h-2 25a48 48 0 005 0h18c-1-1 1 0 2-1 0 0-2 0 0 0h4l-4 1h8s-1 0 0 0c3 0-1-1 0-1h2a15 15 0 013 0l-3 1h4l5-1h-5 9 11l-1 1h7l-5-1a26 26 0 006 0l12-1h-1a24 24 0 007-2h-1a28 28 0 003-2c-1 1-1 0 0 0l2-2v1a27 27 0 004-5l1-2 1-2-1 2-1 2a13 13 0 01-1 1 11 11 0 01-1 1l1-1-2 2 1-2 1-1a7 7 0 001-1l1-2a20 20 0 001-2 17 17 0 001-2v-1a38 38 0 001-3v-3-2-1-2-4-5a40 40 0 000-4v-4-1-8-7-1-2a17 17 0 000 3v-1-6c0 1 0 0 0 0v-7c0 1 0 1 0 0v-1s0 1 0 0v-11-1-2-10a56 56 0 010-6 27 27 0 000-3v6a62 62 0 010-8 42 42 0 010-6v-2-7 4-5c0-1 0 0 0 0v-6-1-5-5a8 8 0 000-2v-4c0 2 0 6-1 3l1-7v5a40 40 0 010-4v-9c0-1 0 3 0 0v-4-3a28 28 0 010-3v-5-2a31 31 0 010-3v6c0-1 1-3 1-1l-1 3c1 1 1-3 1-1v5a19 19 0 010 2v5s0 1 0 0v5l1-3a20 20 0 000 4v-3 1a11 11 0 010-2v-3a11 11 0 000-4c0 2 0 2 0 0v-1-4l-1 4v-3-3l1 1a16 16 0 010-3v-3a27 27 0 000-4v-7a14 14 0 010 2 33 33 0 010-4v-22-9-10-4-3-2-1-4-3-5-2-5-12-9-3-2-2 1a13 13 0 000-2V68l-1-5 1-1-1-4v-2-8-5-2-7-3-2a22 22 0 00-1-3 19 19 0 000-2 13 13 0 00-1-2l-1-2v-1 1a17 17 0 010 1 28 28 0 00-7-9l-1-1-2-1h-1l-1-1a27 27 0 00-10-2h-26a9 9 0 01-2 0h-16-4a21 21 0 01-3 0h-37c2 0 1 0 0 0h9a43 43 0 01-6 0c-1 1 2 1 1 1-2 0-3 0-2-1h-2c0 1 3 1 1 1a18 18 0 012 0h-23a6 6 0 00-1 0h-1a7 7 0 00-2 0h-3a30 30 0 00-4 0h-4a23 23 0 002 0h-3-7 5s1 0 0 0a26 26 0 004 0h8a10 10 0 01-2 0h14l2-1a18 18 0 01-3 0 37 37 0 004 0 40 40 0 004 0 67 67 0 00-8 0l-7-1-5 1h-45s2 0 0 0a32 32 0 01-3 0h-10a9 9 0 01-2 0h-18 1a30 30 0 00-4 0h-12a5 5 0 00-1 0V6H85a15 15 0 01-3 1h-1l2-1a35 35 0 00-5 1L65 6c-1 0-4 0-2 1h3-7 1-27a13 13 0 01-3 0l-1 1a12 12 0 00-2 0 27 27 0 00-4 1h1-1l-1 1-1 1a4 4 0 001 0A25 25 0 008 33v105a4 4 0 00-1-1v9c1-2 0-2 1-1v2a13 13 0 000 2v2l-1-1v4a29 29 0 001 4v7a2 2 0 010-1l-1 3a12 12 0 010 2v3a10 10 0 001 2v-5 19l-1-4 1 4-1 3h1v5H7a22 22 0 000-3v6a16 16 0 000 4 31 31 0 011-4v-1c0-1 0 0 0 0v2a6 6 0 000 2v9l-1 1v2a9 9 0 000 3c1-3 1 1 1 1a4 4 0 010-1v7l-1 2v17a8 8 0 010 3 21 21 0 010 3 50 50 0 000-5v15a21 21 0 010 4v6a21 21 0 010 4v-4 18a13 13 0 010 1v-4 6a27 27 0 000 5 51 51 0 000 9v-3l-1-6v-11-17a21 21 0 010-3v-5-2a4 4 0 000-1 16 16 0 000-3v-10-18c0 4 0 1-1 1l1 4c-1 1-1 2-1-1v1l1-11v4a11 11 0 010-2v-1-7-26l-1-2v7s0-1 0 0v9l1 3c0 2-1-1-1 2 0 1 1-1 1 2l-1 3 1-2-1 4 1 5a10 10 0 00-1-3v8s0 1 0 0v17-5-2-2a19 19 0 010 4v-2a36 36 0 001 4c0 1 0 5-1 4l1 8-1 3a9 9 0 011 3 39 39 0 00-1 4l1 1v6l-1-1v5c0 1 0 2 0 0v-4-1-2-3-3a12 12 0 000-2v-2-6-3-8 18s0-1 0 0v15a14 14 0 010-2v14a5 5 0 000 2v10a27 27 0 000 3v-1 11a29 29 0 000 4v4l1 4c-1 1-1-1-1-1v10a35 35 0 000-3 12 12 0 001-3c0-1 0 2 0 0v-7 4a4 4 0 010-1v3a33 33 0 000-5l1-4v-1 8a10 10 0 000-2v5a30 30 0 010 3 12 12 0 010 2v21a21 21 0 010 3 17 17 0 000-2v-7-2 9a23 23 0 001 7 3 3 0 000 1v1l1 1 1 2 1 2 1 1a6 6 0 001 2 26 26 0 005 4 28 28 0 007 3h1a13 13 0 002 1h10a13 13 0 011 0h1a5 5 0 012 0 18 18 0 002 0h9-22l6 1h21l-3-1h-5s-1 0 0 0h7-2a32 32 0 005 0 8 8 0 012 0h-2 9 12 4-1 5a38 38 0 005 0h-2 4l-3 1h18a53 53 0 017-1v1h-4 4-25-22a14 14 0 003 0h1c2 0 6 0 5 1l-2-1-2 1a57 57 0 006-1l3 1a31 31 0 014 0h-2 31a31 31 0 003 0h35v1h16a30 30 0 005-1h7c-1 1-5 0-3 1h52 1 3-3 4c1 0-1 0 0 0h18s1 0 0 0h10a8 8 0 01-2 0h-10 13 25-13 24 3c-2 0 2 0 0 0h3a26 26 0 014 0h12a16 16 0 01-2 0h6a17 17 0 003 0h7 4a6 6 0 01-1 0h5a12 12 0 002 0 11 11 0 002 0h1a9 9 0 002-1h2a8 8 0 001-1l-1 1 2-1 3-1v-1l2-1h1c3-3 0-1 1-2l2-1s-1 1 0 0a21 21 0 002-2 19 19 0 001-1l1-2 1-1a6 6 0 010-1 16 16 0 011-2 12 12 0 00-1 2 28 28 0 002-3v-2l1-1v-1-2l1-1v-2c0-2-1 1-1-1 0-3 1 0 1-1v-15l-1-1zm-1-16v-6 6zm0-167a19 19 0 010-3v1a12 12 0 010-3v5zm0-52a35 35 0 010 4v-4zm0-8v0zm0 125v2a14 14 0 000-3v1zm0-65a21 21 0 010 4 21 21 0 010-4zm0 54a21 21 0 010-3v-1 4zm0-114v4-4zm0 63l-1 3c0-1 0-4 1-3zM243 8a30 30 0 01-4-1 21 21 0 014 1zm-12-1h1a24 24 0 013 0h-4 0zm-12 0h4a16 16 0 01-4 0zM5 288a23 23 0 010-5v5zm0 17v-8a80 80 0 010 8zm1-34a29 29 0 010 3 29 29 0 000-3zm0 32v-7 7zm0-9a35 35 0 010-4v-4 8zm71 80h5-5zm8 0c1 0 2 0 0 0h4a36 36 0 01-4 0zm9 0l3 1-3-1zm3 0h2-2zm79-1h6a48 48 0 01-6 1c1 0 2-1 0-1zm16 0l-12 1a23 23 0 014 0l-1-1h9zm30 0h3v1s-4 0-3-1zm15 1h-2a10 10 0 012-1zm2 0v-1h-1a10 10 0 014 1zm45 0l-4-1a29 29 0 014 0zM7 311l1-4s0 5-1 4zm0 21v-4a24 24 0 010 4zm1-12v0zM184 69h5a6 6 0 012 0 17 17 0 013 0h5a19 19 0 002 0h1-2 3a27 27 0 004 0h7a6 6 0 011 0h21-10a5 5 0 00-2 0h-7a8 8 0 00-2 0 12 12 0 01-2 0h-2s1 0 0 0h-2-3a4 4 0 00-1 0 29 29 0 01-4 0h2-3c-1 0 0 0 0 0h-4a14 14 0 01-2 0h-5a22 22 0 01-3 0h-7a11 11 0 002 0h3a29 29 0 00-4 0h2a5 5 0 001 0zm121 33l1 1v1a11 11 0 001 2v1l1 1a1 1 0 010 1 9 9 0 00-1-2l1 2v1h0l1 3v-1a19 19 0 00-1-2 29 29 0 000-1 5 5 0 010 2v-1a7 7 0 00-1-2s0-1 0 0a24 24 0 00-2-5 3 3 0 011 2l-1-1v-2l-2-2a10 10 0 00-1-2l-1-1a7 7 0 010 1 11 11 0 00-1-2 14 14 0 00-2-2 37 37 0 003 4 20 20 0 011 2l1 2 2 3a78 78 0 015 16v2a16 16 0 010 2 21 21 0 011 3 19 19 0 010 3s0-2 0 0a12 12 0 010 2 47 47 0 010 6 3 3 0 010 1v8l-1 3v-1a11 11 0 001 3l-1 1v6a2 2 0 000 1s0-1 0 0v34a6 6 0 011 2h-1v-1a13 13 0 000 3v8a30 30 0 001 3c0 1 0 0 0 0v17a4 4 0 010 1v6c0 1 1-2 1 1a2 2 0 000-1v20a62 62 0 01-31 50h1l-5 3 1-1-1 1h-2v1h-1s1 0 0 0h-1a16 16 0 00-3 1l-4 2a1 1 0 010-1l-1 1a5 5 0 01-1 0h-2l-2 1a18 18 0 004-1h-1a61 61 0 01-11 2l2-1h-2a13 13 0 00-2 0v1a21 21 0 00-3 0v-1a8 8 0 002 0h-4a6 6 0 00-2 0 12 12 0 012 1l1-1v1h-7l-1-1h-1-1-2-1a2 2 0 011 1h-4l-2-1h-10c-1 0 1 0 0 0h-1a8 8 0 01-3-1 19 19 0 003 0h-6l-1 1h-2 2-1a16 16 0 00-2 0h1a8 8 0 01-2 0h-4a8 8 0 01-2 0h2-11a5 5 0 01-1 0 26 26 0 003 0c-1 0 0 0 0 0h-4c1 0 2 0 0 0a11 11 0 00-3 0 19 19 0 00-5 0h-2a28 28 0 014-1h10a364 364 0 0112 0h4-3-1 25c-3 0-1 0-1-1l-3 1c0-1-1-1 1-1h-1a64 64 0 017 1h-4 24a7 7 0 001-1h-3l-1 1v-1h-4-2l-2 1c-1 0 1-1-1-1-1 0 1 1-1 1l-2-1 1 1-3-1-2 1a4 4 0 001-1h-4-7a31 31 0 00-4 0h5a7 7 0 01-2 0 10 10 0 001 0 14 14 0 00-2 1l-3-1a33 33 0 00-5 1 18 18 0 00-2-1 3 3 0 01-1 1 15 15 0 00-3-1v1h-2-1-1l1-1h-3l-2 1-1-1h3-1a21 21 0 003 0h1 1l1 1c2-1-1-1-1-1h3a5 5 0 002 0h5a17 17 0 002 0 45 45 0 004 0 18 18 0 00-2 0h-1 1-9s1 0 0 0h-9a5 5 0 011 0 19 19 0 01-2 0h-4-1c-2 0 0 0 0 0h-1-7-1a10 10 0 00-2 0h-3 1-4a11 11 0 00-2 0h-3 1-3 1-7a13 13 0 003 0 5 5 0 001 1v-1l5 1h-4 1a1 1 0 011 0h-2a12 12 0 003 0l2 1a16 16 0 00-2 0h0-2a4 4 0 002 0h-3-1a11 11 0 01-2 0 5 5 0 01-1 0 10 10 0 00-1 0h-3a31 31 0 00-4 0h2-3-2a20 20 0 01-4 0h7-9a8 8 0 00-2 0 16 16 0 01-2 0h-2a5 5 0 00-1 0h-9s1 0 0 0a8 8 0 00-2 0s2 0 0 0a41 41 0 01-5 0 3 3 0 01-1 0h-1a2 2 0 01-1 0h-3l-3-1a59 59 0 0011 1h2-4l-2-1h-2a57 57 0 01-8-1c-1 0 2 0 1 1a16 16 0 003 0s1 0 0 0h-4 1a19 19 0 00-3-1l-1-1h1-2l-3-1h-1l-3-1-3-2-1-1h-1 1-1l-1-1-1-1-1-1h-1s1 0 0 0l-1-1 1 1a65 65 0 01-8-7l-1-1a13 13 0 01-2-2s0-1 0 0l2 1-2-2 2 3 3 2a25 25 0 012 2l5 4a37 37 0 004 2h1a17 17 0 003 2l3 2a6 6 0 00-1-1l-2-1h1l-3-1 2 1h1a28 28 0 00-4-2l-1-1-2-1 1 1-3-2 2 1-3-1h1l-3-2h1a79 79 0 01-9-8 12 12 0 00-1-2h-1l-2-3a64 64 0 01-4-8l-2-3-1-3v-1l-2-7v-2a15 15 0 00-1-3v-4 2a12 12 0 010-2v-3-26-1-2-1c0-1 0 1 0 0v-11-4-2-2-1-4a28 28 0 000-4v-3a18 18 0 001-2v-7c-1 1-1-1-1-2 0 2 0-1 0 0v-2a10 10 0 010-2v-7a6 6 0 010 1v-4a7 7 0 000-2v-1-3-2-1-2a13 13 0 000-4v-3-1a8 8 0 010-1v-1-2s0 1 0 0v-2-1-1a1 1 0 010-1 4 4 0 010-1 3 3 0 000 1v-7c0-1 0 1 0 0v-1a46 46 0 011-8v-1-2l1-2v-1l1-3v-1-1l1-2 1-1a16 16 0 001-3l1-1 1-3 1-1a54 54 0 017-9l1-1 1-2-1 1 1-1h-1a26 26 0 00-6 7l-3 4a7 7 0 00-1 1l-1 3-1 1a66 66 0 00-4 9c0 1 1-1 0 0v4l-1 1a4 4 0 000 1l-1 3v3a10 10 0 000 3v2a13 13 0 000 3 15 15 0 010 3v-1a27 27 0 010 3v7a18 18 0 000 3v-5 7a49 49 0 000 6v6h1l-1 2a12 12 0 000 2v4a2 2 0 000 1 2 2 0 010-1 25 25 0 000 3v-3-1a14 14 0 000 2 3 3 0 010 1v9l-1 11 1 3a44 44 0 000 5v15c0 1 0 0 0 0a8 8 0 010 1v13a6 6 0 010 3v5a24 24 0 01-1 3s0 2 1 1a5 5 0 010-1v1s0 3-1 2v8l1 1a20 20 0 000 3v6l-1-4v-2-2-10s0-1 0 0v-3c-1-1 0 1-1 1a2 2 0 011-2v-1 4a8 8 0 000-2v-2a12 12 0 000-1v-11-8-3-2-1-1a15 15 0 010-2 14 14 0 010 4v-1-1-12-1a18 18 0 000-3v-7a34 34 0 000-4v-1h-1a16 16 0 011-2v-3s0 1 0 0 0 1 0 0l-1-1h1a6 6 0 010-2v-1-2-3-2l-1-1 1-3h-1l1-1v-4 4a10 10 0 00-1-4l1-7v-4 1-3-1-4-2 4c0-2 0-1-1 0v-2a14 14 0 010-2h1v-3h-1a26 26 0 011-4v-1 2l-1-3 1 2a17 17 0 000-3v1a19 19 0 010-3v-3a25 25 0 001-3l-1 1 1-3v-1l1-2a20 20 0 010-2h1a25 25 0 011-4v-1l1-1-1 1h1l1-3 2-4h-1l1-1s0 1 0 0l4-5v-1h1l2-3a21 21 0 012-2 16 16 0 013-3l1-1-3 3a14 14 0 012-2 21 21 0 012-2l3-2-2 2 2-2a30 30 0 014-3l-2 2 3-2 3-2-2 1a6 6 0 001 0l1-1 1-1 2-1-1 1 4-2a3 3 0 001 0l2-1h-2 3l2-1-3 1a11 11 0 012 0 8 8 0 013-1h1a13 13 0 002-1h-1a21 21 0 013 0h4a26 26 0 013-1v1a10 10 0 013 0h-4 1a18 18 0 00-2 0c-1 0 1 0 0 0h-3l-1 1v-1l-3 1s-1 0 0 0l-3 1h-1l-1 1 2-1h2a6 6 0 00-2 1h2-2-2a16 16 0 003 0 3 3 0 011 0l2-1a4 4 0 002 0c-1 0-1 0 0 0h1a11 11 0 012-1h-2 5-1-1a28 28 0 003 0 10 10 0 003 0h4a5 5 0 01-1 0 13 13 0 012 0h14a54 54 0 006 0 59 59 0 006 0h30a19 19 0 002 0h2a5 5 0 001 0h13a10 10 0 001 0h21c2 0 2 0 0 0h22a60 60 0 0110 1 2 2 0 011 0l2 1 2 1h1l3 1 1 1h1l1 1a7 7 0 012 1l4 2 2 2 2 1 3 2v1l3 2 1 1 1 1 1 1c-1-1 0 0 0 0a26 26 0 00-2-3l-1-1a13 13 0 012 2c1 1 0 0 0 0v1h1l1 1-1-1a9 9 0 010-1v1a63 63 0 018 10 3 3 0 000 1l1 1zM69 253v-3a48 48 0 000 7 9 9 0 010-2c0-1 0 1 0 0v-1-1zm0 6a17 17 0 010-3v1l1 2h-1zm1 5c0-1 0-1 0 0v-2 2zm0-29v0zm0 29a20 20 0 011 2 9 9 0 001 2l1 4v1l-1-1a20 20 0 010-3h-1a38 38 0 01-1-4v-1zm1-36a8 8 0 010 3v-3zm0 25a7 7 0 010-2v-2 4zm0 11a6 6 0 010 2v1a12 12 0 010-3zm2 2v0zm6 18l-2-3a9 9 0 01-2-3v-1l-1-1 1 1-1-3a8 8 0 011 3l1 3a28 28 0 012 3l1 1zm4 6l-2-2v-1l-1-2a2 2 0 000 1 4 4 0 01-1-2 58 58 0 004 6zm1 2l1 1-1-1zm7 6l1 1-2-2a3 3 0 011 1c1 0 0 0 0 0zm-3-3l-2-1 4 3a11 11 0 01-2-2zm5 4a14 14 0 011 1l-1-1zm17 10a11 11 0 012 1 4 4 0 01-1-1h-1zm17 3h-7v-1l4 1a23 23 0 002 0h1zm8 0h-1a27 27 0 014 0 17 17 0 013 0h-5zm10 0a40 40 0 005 0 8 8 0 01-3 0h2-4s1 0 0 0zm6 0h0s-1 0 0 0zm3 0a17 17 0 014 0 15 15 0 01-4 0zm4 0h3-3zm8 0h-3c1 0-1 0 0 0h3zm0 0a9 9 0 01-3 0 18 18 0 013 0zm1 0a26 26 0 013 0h1-2-2zm10 0h0zm9 0h5 2-4a13 13 0 01-2 0h-3 2zm8 0h5-5zm2 0h1a7 7 0 01-1 0 3 3 0 00-2 0 9 9 0 012 0zm10 0c1 0 0 0 0 0h-1 3-3a13 13 0 00-1 0h-5a80 80 0 017 0zm7 0a6 6 0 002 0 7 7 0 002 0c1 0-1 0 0 0h2-3-6a9 9 0 012 0 15 15 0 001 0c1 0 0 0 0 0h-4a2 2 0 001-1l2 1 2-1c0 1-2 0-1 1zm9 0h-2 2zm0 0h2a15 15 0 012 0h-3-1zm13 0a6 6 0 012 0h-1-1zm38-4a10 10 0 01-2 1h1-1a4 4 0 011-1h1zm4-2l3-1 1-1-4 2zm-12 5h-1a5 5 0 011-1v1zm-77 1h-1a7 7 0 012 0h-1zm40 0a10 10 0 011 0zm-18 0h-2a14 14 0 012 0zm-1 0zm-9 0h1-1zm-58 0a10 10 0 00-2 0c-1 0 0 0 0 0a9 9 0 01-2 0c-1 0 0 0 0 0h-1c-1 0 1 0 0 0a12 12 0 00-2 0h4a32 32 0 004 0h-1zm-14 0h4a33 33 0 01-4 0zm-3 0h-1 1zm187-85h-1zm-1-9v-2 2zm-2-105l-1-2a6 6 0 010 1l1 1zm-4-7a10 10 0 010-2l1 2v0h-1zm-1-4a9 9 0 01-1-2l1 1zm6 102v-4 4zm0-34l1-2a16 16 0 01-1 2zM180 310h5a30 30 0 01-5 0zm6 1h-5 5zm6 0h-5a13 13 0 013 0h2zm-1-1a9 9 0 012 0h-2zm8 1a11 11 0 002 0 11 11 0 01-2 0zM88 293a11 11 0 002 2l-3-3 2 2 2 2c1 0 0 0 0 0l1 1v-1l1 1h-1l1 1h-1v-1l-2-1a5 5 0 011 1l-1-2v1a8 8 0 01-1-1 15 15 0 00-2-1l3 1-2-1-4-4h1l-1-1a25 25 0 003 3s-1-2-2-1a18 18 0 003 2zm-3-2l-1-1a12 12 0 011 1zm8 7l1 1-1-1zm1 1l1 1-1-1zm6 4l-2-1 2 1c-1-1-1-1 0 0zm1 1l3 1-3-1zM71 196v-2 0a5 5 0 000 2zm0 19a11 11 0 010 3v-3zm0-43v-1 1zm0-38v-3 3zm0-8a16 16 0 000 3v-3zm2-15a17 17 0 010-2l1-1-1 3zm10-16s-1 0 0 0c1-1-1 1 0 0zm-13 94a11 11 0 010-2c0 1 0-1 0 0v2zm0 37v0zm0 17a7 7 0 010 3v-3zm-1-14c0 1 0 0 0 0v2a15 15 0 000-2zm0-6a4 4 0 010-1 14 14 0 010 1zm0-2s0 1 0 0a4 4 0 010-2zm0-28v2a11 11 0 010-2zM83 91l1-2a6 6 0 011-1 5 5 0 010 1 8 8 0 00-2 1h1a21 21 0 01-2 2c-1 1-2 2 0 0l1-1zm4-4l-1 1a6 6 0 011-2v1zm21-14a16 16 0 01-2 1l1-1a24 24 0 00-2 1h-1l2-1h2zm18-4h0zm4 0h-1a3 3 0 011 0c-1 0-1 0 0 0zm-5 1h-2a6 6 0 012 0zm-8 2c1-1 0 0 0 0a11 11 0 01-2 0h2zm30-3h-3-1a32 32 0 004 0zm7 1h-2 2zm2 0a8 8 0 01-3 0 8 8 0 013 0zm1 0a5 5 0 012 1h-3a7 7 0 011-1c1 0 0 0 0 0zm9-1h2-2zm22 2a13 13 0 01-3 0h3zm4 0v-1 1zm0-1a16 16 0 01-2 0h2zm101 16l2 2a25 25 0 01-2-2zm-54-17h-1zM8 258v-1zm0 15l-1-1v-2l1 1zm0 20a17 17 0 010-2v2zm365-17a36 36 0 010 4v-2-1-5 4zm0-7v2a18 18 0 010-3v1zm0-43a42 42 0 010 5v-3 5c0-1 0 0 0 0l-1-6 1-1zm0-27l-1-2c1-1 1 0 1 2zm0-36v5c0-2 0 0 0 0v-5zm0 29a9 9 0 010-2c0 1 0 1 0 0v-4 6zm0-60v-3 3zm-1-98a12 12 0 001 2v13a21 21 0 000 3v14a11 11 0 000 1v9c0 1 0 1 0 0v34a29 29 0 000-3v-4 5a18 18 0 010-3 12 12 0 00-1-2v-1 1l1-9a17 17 0 01-1-3h1a46 46 0 010-5v-2-1l-1-6v2-1-4l1 2c-1-2 0-6-1-5v-7-11-4-16a25 25 0 00-4-14 25 25 0 013 7 28 28 0 011 8zm-4-15zm-1-1zm-2-2v-1 1zm-95-8h-4a44 44 0 014 0zM128 7h-3 3zM76 7h-6 6zM46 7l4 1-4-1zM33 8c-3 0-3 0 0 0zM8 139v0zm0 15v-1 4a9 9 0 010-3zm0 12v3a13 13 0 010-3zm0 50a15 15 0 010-4v4zm0 9v0zm0 9v-4a7 7 0 000 1v6l-1-3h1zm-1 5a16 16 0 010-2l1 4H7v-2zm0 19a5 5 0 000-2v-3a6 6 0 010-2v1a17 17 0 000-3c0-2 0-1 0 0v-1a19 19 0 000-4c0-1 0 2 1 0a11 11 0 010-3v9l-1 6a23 23 0 010-3l1 1-1-3v7zm0-1v0zm1 3v6l-1-1v8a214 214 0 010-10v2l1-5zm-1 22v-7 7zm0-4v-1a19 19 0 010 3 7 7 0 000 2 24 24 0 010-4zm0 9l1-3-1 6a34 34 0 011 4v5l-1-4v-8zm0 46v-5a18 18 0 010 2v3c0-2 0 1 0 0zm0 7v-5 5zm0 7a46 46 0 010-5 39 39 0 010 5zm1 6l-1-3 1 3a8 8 0 010-1v1zm3 8l-1-1-1-2a17 17 0 010-2l-1-1v-1l2 4-1-2a16 16 0 001 3v1l1 2v-1zm11 10a21 21 0 01-4-2l-1-1a20 20 0 01-2-1l-2-3 1 1 1 1a9 9 0 001 1 10 10 0 001 1c1 0 1 0 0 0l2 1c1 1 0 0 0 0l2 1 1 1a5 5 0 002 1l-2-1zm3 1a31 31 0 01-3-1 14 14 0 01-1-1l-2-1a16 16 0 01-1-1 8 8 0 01-2-2 25 25 0 005 4l1 1a10 10 0 001 0l2 1zm7 1h-2a2 2 0 01-1 0 11 11 0 002 0h5-4zm16 0H38s1 0 0 0h10zm-7 0h0zm21 0a12 12 0 012 0h1a22 22 0 01-3 0zm34 1v-1a13 13 0 012 0 23 23 0 01-2 1zm5-1a13 13 0 01-2 0h4a8 8 0 01-2 0v1zm11 0h-9a38 38 0 015 0l4 1zm1 0a18 18 0 014 0h-4zm6 1h-3 3zm2 1h-10a32 32 0 00-5 0h3-6a10 10 0 011 0 22 22 0 00-2 0c-2 0 1 0 0 0h-2 2a9 9 0 00-3-1h2l3 1a14 14 0 01-2 0 23 23 0 003 0c1-1-1-1-1-1h2l4 1h8a7 7 0 002 0c1 0 0 0 0 0zm-1-1v-1h4s2 0 1 1h5a6 6 0 00-2-1 12 12 0 015 1zm20 0a58 58 0 01-8-1h7v1h5v-1h1a7 7 0 002 0l-2 1h5-10zm23 1h-3a23 23 0 013 0zm1-1h0zm-3 0l-6-1c2 1 0 1-3 1a5 5 0 012-1l5 1c2 0-1-1 1-1h7c2 0-3 1 1 1h-8zm11 0l-3-1s1 0 0 0l3 1zm20 2l-6-1a20 20 0 014 0c1 1 3 0 2 1zm11-2a19 19 0 01-5 0c2 0 6 0 5 1zm10 1h0zm10 0h4a22 22 0 01-4 0zm8-1h-3c-1 0 4 0 3 1zm13 2h4a29 29 0 01-4 0zm38 0a13 13 0 00-2 0h2zm13-1l-5-1a29 29 0 014 0c-2 1 1 0 1 1zm24 1h-1 1zm56-26a27 27 0 01-1 6l1-3v-3zm0-66v-2a14 14 0 010 2zm0 61a13 13 0 010-3v3zM266 6h-11 11z"/><path class="a" d="M7 149v7a21 21 0 000 3 19 19 0 010-3v-7zM373 59v1a9 9 0 000-2 17 17 0 000 4 23 23 0 000-3zM7 150c0 1 0 1 0 0v-13c0-2 0-2 0 0v13zM7 94v-7 7zM7 182v-1a19 19 0 000 3v4a40 40 0 010-5v-1-12 12z"/><path class="a" d="M7 167v-9 6a13 13 0 000 3zM200 6h-19a24 24 0 00-3 1h16l6-1zM239 6a18 18 0 00-3 0h3zM7 130v5l1-9a51 51 0 00-1-5l1 5-1 4zM234 6h-6 6zM8 58v-8 8zM274 6a44 44 0 00-7 0h7zM375 253v-1l-1 6 1-4v-1zM375 251a16 16 0 010-3l-1 2v-1l1 2zM374 254v-3a30 30 0 000 5 23 23 0 000 5v-5a8 8 0 010-2zM375 264z"/><path class="a" d="M375 248a15 15 0 000 3v-3zM5 292v-1-4 5zM375 238a29 29 0 000-3v-1 4zM375 243v0s0-1 0 0zM375 219v-1a26 26 0 000-3l-1-1v6c1-1 1 1 1 2 0 0 0-2 0 0v-3zM375 266v-2 2s0-1 0 0zM375 260v-3zM308 6h12-14 2zM375 263c0-2 0 1 0 0v-2-1a23 23 0 000 3zM369 18a23 23 0 00-3-4 30 30 0 012 2l1 2z"/><path class="a" d="M374 247a37 37 0 000-5 28 28 0 000-5v-2-1c1 0 1 3 1 1v-6l-1-1a20 20 0 000-3v-2a9 9 0 010-1 14 14 0 010-2l1 3-1-5a8 8 0 000-2v31zM337 6h-7a52 52 0 007 0zM346 6h-8 8zM7 125a16 16 0 000 3c0-1 0-1 0 0v-4a2 2 0 010-1v-1-1-2a48 48 0 010 6s0-1 0 0zM27 374h2a8 8 0 002 0h1-3l-4-1a21 21 0 01-2-1h-1l2 1a27 27 0 01-3-1l-1-1a18 18 0 00-2-1c2 1-1 0 0 0l2 1c1 0-2-1 0 0a8 8 0 012 1l2 1a17 17 0 002 1 13 13 0 004 0h-2-1z"/><path class="a" d="M32 374a7 7 0 00-1 0h1zM7 203v-3-3 6a29 29 0 010 3v-3zM12 365v-1a7 7 0 01-1-1 8 8 0 00-1-1l1 1 1 2zM37 374c-4 0-1 1 2 1l-2-1zM20 372l2 1 3 1 2 1a12 12 0 002 0 31 31 0 01-7-2l-2-1zM8 183v0zM72 373l-9 1h29l-15-1h-4 4a19 19 0 003 0h-8a11 11 0 00-4 0h4zM41 374h0zM44 374a19 19 0 002 0h-2z"/><path class="a" d="M57 374l11 1c1-1-2-1-3-1h1-3c-1 0-1 0 0 0a2 2 0 011 0h2a5 5 0 002 0 6 6 0 003 1c-2-1 4 0 4-1a48 48 0 01-5 0H51h5 1c1 0 0 0 0 0zm4 0a29 29 0 01-3 0h3zM7 356v-1l-1-2v-1a23 23 0 01-1-4v-7l1-2-1-5v-5 20a19 19 0 001 3 36 36 0 001 6 5 5 0 000-1zM6 325v5a40 40 0 000-8v3zM6 335v6-10 4zM4 85a32 32 0 010-4v-6 5a27 27 0 010-5 14 14 0 010-3V53v-3-5-4a33 33 0 00-1-5v21a6 6 0 010-1v10c1 2 1-2 1 0v4H3v10a9 9 0 010-2l1 2-1 4v7c1 1 1-2 1 0v-4a15 15 0 010 2v-3-3 2zm0-30v0zM3 43v-1-1 2zm1 8c0 2-1 1-1 0 0-2 1-1 1 0zm-1 2h1v3a12 12 0 01-1-3zm1 11v-3a39 39 0 01-1-5 38 38 0 001 5v3zm0 9c0-1-1 2-1-2 1 1 1 1 1-1a56 56 0 010 7 14 14 0 010 2v-6zm0 13a21 21 0 010-5v5z"/><path class="a" d="M6 351v2a6 6 0 001 2v-2l-1-1a15 15 0 010-4v-3 6zM6 320v0zM6 346v-5-1 6zM6 343v-4 4zM8 355l-1-2 1 4v1l1 1-1-1v-3zM11 364a19 19 0 001 2 19 19 0 002 2 20 20 0 003 2 35 35 0 01-6-6zM6 191v-5 5zM7 211l-1-7v9c0-3 0-4 1-2zM374 324v-4s0-1 0 0v4zM5 185v-11 5a26 26 0 000 6zM5 223v-7a17 17 0 000-3 10 10 0 000-1v-3-4 18zM6 196h1v-2c-1-1-1 1-1 2zM7 189a17 17 0 000 3 8 8 0 000-2v-1zM7 224h1a5 5 0 00-1-2zM72 375H60h16-4z"/><path class="a" d="M7 219c0 1 0-2 0 0v-9 1a14 14 0 000 3v5zM7 194c0-2 0 1 0 0v-2a4 4 0 000 2zM7 298v-1-4 5zM7 264a25 25 0 000 4 19 19 0 000-4zM274 376a43 43 0 00-5 0 87 87 0 0010 0h-5zM83 375h-6 8a17 17 0 003 0h-5zM373 300v-9 9zM373 332v-7 7zM375 207a15 15 0 000 3v-3zM373 334a11 11 0 010 2 27 27 0 000 5v-7zM349 373h-2a27 27 0 008-1 40 40 0 01-4 1 17 17 0 01-2 0zM243 133zM245 136h1l-1-1c0 1 0 0 0 0v1zM250 116h-1 1zM242 128s1 0 0 0v-1 2h1s-1 0 0 0a3 3 0 010-1h-1zM242 129s0 1 0 0zM242 130v-1 1c0-1 0 0 0 0zM246 137c0-1 0 0 0 0zM246 136zM245 136v0zM242 129v-1 1zM245 136c0-1 0 0 0 0l-1-1v1h1zM247 138s0-1 0 0zM258 112zM256 113v-1 1zM256 112zM244 131s-1 0 0 0zM242 127zM247 136s0-1 0 0h0zM242 123zM241 127h0zM242 128c1 0-1 0 0 0zM242 128h-1 1c-1 0 0 0 0 0zM256 112h-1 1zM241 125zM242 126h-1c-1 0 0 0 0 0l1 1c1 0 0 0 0 0v-1h-1s1 0 0 0h1zM242 126zM242 128v1c0 1 0 0 0 0v-1zM246 137s-1 0 0 0h1-1zM242 129zM246 138zM246 137c0-1 0-1 0 0h-1 1zM242 125v-1h-1 0c-1 0 0 0 0 0h1v-1 1h-1a3 3 0 000 1zm0-1h0zM242 124v-1 1c0 1 0 0 0 0zM241 123v0a8 8 0 000-1v1zM242 126h-1 1zM242 125h-1 1zM242 126h-1 1zM242 131zM268 127v0zM266 132zM268 124v0zM268 126s-1 0 0 0zM266 132zM262 115h-1v0h1zM262 116zM265 135h-1a6 6 0 001-1v1zM267 128v1c0 1 0 0 0 0v-1zM246 136zM267 128a1 1 0 000-1 2 2 0 000 1zM269 122h-1 1zM246 134h0zM244 136v-1 1zM267 131a1 1 0 000-1v1zM267 130zM261 115a4 4 0 011 0h-1 1v-1 1h-1v-1 1zM248 138h-1 1zM253 141h0zM251 139v0zM259 115zM249 139h1-1zM249 138h-1a1 1 0 001 0c0 1 0 0 0 0zM253 112a1 1 0 00-1 0 1 1 0 001 0zM249 139h-1 1zM259 115s0-1 0 0zM254 136h-1v1a2 2 0 010-1 6 6 0 01-1 0h1c1 0 0 0 0 0h-1c-1 0 0 0 0 0v1h2a2 2 0 001-1h-1s0-1 0 0zm-2 0v0zm1 0v0zm0 1l1-1c1 0 0 0 0 0l-1 1zm1 0zm0 0v-1c0-1 0 0 0 0zm0-1zm0 0zM260 115zM260 114zM260 115zM260 114s0 1 0 0zM261 115s-1 0 0 0zM259 114h0zM260 114zM260 115h-1 1zM146 234h-1l-1-1s1 0 0 0l2 2v-1c0 1 0 0 0 0zM249 204l1-2-1 2v2l-1 2a7 7 0 000 2l1-4v-2zM147 234l-1-1v1a13 13 0 002 1l-1-1zM152 238h-2 2zM157 243a4 4 0 00-1-1h-1l2 1s-1 0 0 0zM187 248c1 0 0 0 0 0a22 22 0 00-3 0 4 4 0 01-1 0h1a12 12 0 00-3 0h1-1v1h-1l1-1h-3l-2-1a6 6 0 002 1s1 0 0 0h-1l-1-1s1 1 0 0a10 10 0 01-1 0s1 0 0 0h-2a5 5 0 001 1h2s-1 0 0 0c0 0 1 0 0 0l1 1v-1a13 13 0 002 1 4 4 0 01-1-1l1 1h1a2 2 0 00-1 0 39 39 0 006 1 9 9 0 011 0 4 4 0 001 0h1l1-1-1-1h-1zm-11 0h2-2zm3 0h-1 2c1 0-1 0 0 0l1 1-2-1zm4 1h-1 1a3 3 0 011 0h-1zm1 0zm1 0a3 3 0 01-1 0 1 1 0 011 0zm0 0c1 0 1 0 0 0zm3 0l-1-1h1v1zM183 253a13 13 0 002 0h-2zM164 247h-1l2 1a3 3 0 001 0h-1l-1-1z"/><path class="a" d="M166 248l-1-1h-1 1-1a15 15 0 012 1h1l-2-1 1 1zM174 250l1 1-1-1zM237 230l-2 1v1l1-2 1-1 1-1-1 2zM249 172l1 1-1-1zM244 219s-1 0 0 0zM148 236l-1-1v1h1l1 1-1-1zM243 220a6 6 0 000 1 9 9 0 000-1zM151 240a3 3 0 001 0h-1zM162 246l-1-1-2-1c-1 0 0 0 0 0a20 20 0 003 2c1 0 1 0 0 0zM151 238h-1 1zM149 237c1 0 0 0 0 0h0zM149 237v1h1l-1-1z"/><path class="a" d="M158 243h-1a2 2 0 011 1l1 1-1-1v-1zM154 241l-2-1c0-1 0 0 0 0l-1-1-1-1v1l2 1c1 0 2 2 3 1a7 7 0 01-1 0zM154 239l-2-1a26 26 0 003 1h-1zM246 215a12 12 0 001-3l-1 3zM225 142v-1 1zM129 181v-1a4 4 0 010 1 4 4 0 000 1v-4l1-4a12 12 0 000 3 7 7 0 01-1 1v1a4 4 0 010-1 2 2 0 000-1v4zM147 233a22 22 0 00-2-2 4 4 0 001 1h1v1h1l1 1-2-1zM214 135h1a5 5 0 00-1 0c-1 0 0 0 0 0zM137 222v0zM143 232h1-1zM133 213h-1l1 2v-1-1zM129 187v1zM135 216h1a7 7 0 01-1-1v1zM129 195a2 2 0 010-1v-1-2 0s0 1 0 0a7 7 0 000 2v2c0-1 0 0 0 0zM129 196v0zM129 199v1a17 17 0 010-2v1z"/><path class="a" d="M215 135h1a2 2 0 00-2 0 2 2 0 00-1-1l1 1h1zM219 138v-1h-1l1 1zM129 191v3a5 5 0 000-3zM217 137h-1a3 3 0 001 0zM215 136h1-1zM130 201c0 1 0 0 0 0l-1-2 1 2h-1l1 1v-1zM130 203v1h1l-1-1zM216 136h-1 1v-1h-2l2 1zM222 139a3 3 0 00-1 0l1 1a3 3 0 001 0h-1 2l-1-1h-1zM131 207v1h1l-1-1z"/><path class="a" d="M130 201v-1a6 6 0 010-2v1l1 4s-1 0 0 0a4 4 0 000 2l1 1a42 42 0 01-1-5h-1zM131 205a8 8 0 000 1 3 3 0 001 2l-1-1v-2zM219 137v0l1 1h1a2 2 0 001 1s-1 0 0 0h1-1 2a5 5 0 01-1 0l-1-1v0a16 16 0 01-2-1h-1c-1 0 0 0 0 0a12 12 0 00-3-2 3 3 0 002 1 2 2 0 001 1zM250 184a7 7 0 001 1l-1-1zM194 129a21 21 0 012 0h-2zM197 130s0-1 0 0c0 0 1 0 0 0zM203 130a8 8 0 003 1 8 8 0 00-2-1h-1zM193 129a2 2 0 00-1 0 8 8 0 011 0l1-1-1 1zM131 178a4 4 0 010-1 1 1 0 000-1v1a8 8 0 01-1 2l1-1zM251 195a4 4 0 000-2 13 13 0 000 2zM181 129a8 8 0 00-2 0h2zM251 191v2a15 15 0 000-2zM250 201a18 18 0 000-3v3zM129 189s0 1 0 0c0 1 0 1 0 0zM248 210l-1 2 1-2zM130 181v-1-1 1a23 23 0 000 3 14 14 0 000-2zM129 188v-1-2 3z"/><path class="a" d="M129 182v2l1-3-1 1s0-1 0 0c0-1 0 0 0 0v-1c0-1 0 0 0 0l1-1v-1l-1 2c0-1 0-1 0 0a7 7 0 010 1zm0 1v0zM129 190v0zM212 134a4 4 0 011 1l-1-1zM130 203v-2 2zM130 197a15 15 0 000-2 8 8 0 000 2zM130 202v0zM163 138h-1l-2 1 3-1zM214 135h-1 1zM212 135l-1-1v1zM213 135h-1c1 0 0 0 0 0h1zM287 230v-4-7a18 18 0 000-4v15zM287 250v-4 4zM287 178v-9a6 6 0 000-2v11zM287 231zM287 242a13 13 0 000 4v-4zM287 211v4a11 11 0 000-4zM163 95l-1-1c1 0-1 0 0 0h-4v1h5zM137 287zM135 287a7 7 0 00-2 0h3a3 3 0 01-1 0zM142 287h1s1 0 0 0h-1zM163 94h-2 5-3zM110 281l2 1 2 1-2-1-2-1zM272 279h-1a2 2 0 001 0l-1 1a6 6 0 001-1zM155 287h-1a25 25 0 004 0 27 27 0 00-3 0z"/><path class="a" d="M266 284a24 24 0 003-1l2-1 1-1 1-1a7 7 0 001 0 23 23 0 002-2v-1l1-1 2-1a6 6 0 000-1l2-2 2-3 1-3v-1l1-3a28 28 0 001-3 19 19 0 001-2v-5-5-8a2 2 0 010-1 33 33 0 010-4 20 20 0 000-3v-1-1-1-2-8-2-1-3-1-3h-1v3a11 11 0 010 2 11 11 0 010-3c0-1 0 0 0 0v-2 1a5 5 0 01-1 1v-1-12a2 2 0 000-1v-2a7 7 0 000-1v-2a6 6 0 000 1v-3a16 16 0 000-2c0 1 1-1 1 1v1s0 1 0 0a7 7 0 000 2v1a26 26 0 000 3v-1 8a5 5 0 010-1 9 9 0 001 2 10 10 0 000 2 17 17 0 000-4v-4-2-16a30 30 0 010-4 16 16 0 01-1-3l1 1a8 8 0 010-2 31 31 0 010-5 2 2 0 010-1v-6-1-2 1a7 7 0 000-3c0 1 0 0 0 0v-2-2-1a1 1 0 000-1v-14-6a8 8 0 010-1v-1l-1-5-1-2v1a8 8 0 00-1-3 7 7 0 000-2l-1-2-1-2-1-1 1 1a11 11 0 00-2-2c-1 0 0 0 0 0l-1-1-1-1h-1l-1-2a39 39 0 00-4-4l1 2-2-2a10 10 0 00-1-1h-1a3 3 0 01-1-1 28 28 0 00-3-2v1l-1-1c-1 0 1 1-1 1a1 1 0 001 0 35 35 0 00-14-3h-52 1-5 1-2-2a7 7 0 00-3 0h-4a3 3 0 01-1 0 11 11 0 00-2 0h-1a16 16 0 003 0h-10 2a12 12 0 00-2 0h-1a14 14 0 00-3 0h2a31 31 0 00-3 0 4 4 0 00-2 0 8 8 0 012 0h1-6-4c1 0 0 0 0 0h-4c1 0-1 0 0 0h-7l-2-1v1l-1-1h-2a12 12 0 003 0h-7-1 1-2l1 1a5 5 0 01-2-1h-5 2-7l-2 1a18 18 0 002 0h-1-2-1 1a7 7 0 00-3 1 4 4 0 00-1 0 23 23 0 00-3 1l-2 1a7 7 0 012-1l1-1h2l1-1a25 25 0 013 0l3-1h10c1 0 4 0 2-1l-2 1v-1h3l1 1h1a45 45 0 005 0h9c-2 0 0-1 0-1h-2c-1 0-1 0 0 0a42 42 0 015 0h-3c2 0 1 1 1 1a3 3 0 011-1l1 1h3v-1h13a7 7 0 001 0h-3a24 24 0 01-3 0h-2-5 1-4a3 3 0 001 0h-9a20 20 0 00-3 0h4a5 5 0 01-2 0 7 7 0 001 0h-4a22 22 0 00-4 0 12 12 0 00-1 0 2 2 0 01-2 0 10 10 0 00-2 0h-5-2 2c-1 0-1 0 0 0a14 14 0 002 0h9a11 11 0 002 0 29 29 0 004 0 12 12 0 00-3 0h-6l-1-1-7 1a3 3 0 011 0 13 13 0 01-2-1 19 19 0 00-3 1h-1c-1 0 1 0 0 0h-1-1a14 14 0 00-2 0l-2 1h-3 1l-2 1a10 10 0 01-2 0h0-1l-1 1a8 8 0 00-1 1h-1l-2 1h1l-2 1h1l-3 2-1 1a6 6 0 00-1 0l2-1h1v-1a16 16 0 013-1l-2 1h0v1a17 17 0 002-2h2a9 9 0 00-2 1 9 9 0 002-1 2 2 0 010-1v1h-1l-1 1-1 1 1-1a15 15 0 00-2 1 8 8 0 01-2 1v1a7 7 0 00-1 1 23 23 0 00-2 1 17 17 0 00-2 3l1-1-1 1v1l-1 1a18 18 0 01-2 2l1-1a13 13 0 011-2l1-1-4 6-1 1-1 2v2l-1 4-1 3v1a5 5 0 000 1s0-1 0 0v4a3 3 0 010 1v1a1 1 0 010 1v2a17 17 0 000 3v-9-2 12a17 17 0 000-2h1v2a8 8 0 000 3l-1 1v-1 4c1-1 1 0 1 1l-1 2 1 3-1 1v1s0-1 0 0 0 1 0 0v2a9 9 0 000 2v9a13 13 0 010 4v-1-1l-1 2a17 17 0 011-3 33 33 0 010-6 27 27 0 010-4h-1l1-4-1-1a39 39 0 000-6 4 4 0 000 2v1a14 14 0 000 3v3 3l-1-1 1 3h-1v9a8 8 0 000 2v1a15 15 0 000 3v21a8 8 0 000 3v2a8 8 0 010 1c0 1 0 0 0 0v27l-1-2 1 2h-1l1 9h-1v4l1 1-1-1v-5 8c0 1 1-1 1 1h-1v2l1 1a15 15 0 000 3h-1l1 2a7 7 0 000 2 20 20 0 01-1-3v-3a47 47 0 001 6l1 3a63 63 0 001 4 8 8 0 001 1v-1l1 2a16 16 0 010 2 32 32 0 004 5l2 2a4 4 0 001 1l1 1a16 16 0 001 2l2 1h1v1a8 8 0 011 0 5 5 0 001 1 10 10 0 002 1h1l2 1h1a7 7 0 011 1s-1-1 0 0h1a7 7 0 001 0s-1 0 0 0l2 1h1c1 0-1 0 0 0a1 1 0 011 0 3 3 0 011 0 3 3 0 00-1 0l3 1h4c1 0 0 0 0 0h8a27 27 0 003 0h5a6 6 0 001 0h3a10 10 0 002 0h18c-2 0 0-1-1-1h1-1a32 32 0 00-7-1h-4a5 5 0 00-1 0h-3-9c-1 0 1 0 0 0h-1l-2 1c0-1-2 0-1-1a3 3 0 00-1 0h-6v1a7 7 0 00-1-1h-2c1 1 0 1-1 1a16 16 0 00-2-1 8 8 0 01-3 0h2-2a4 4 0 01-1 0 19 19 0 01-3 0h1l-4-1a13 13 0 00-2-1l3 1a9 9 0 01-2 0l-2-1-1-1a17 17 0 00-2-1l-3-1a6 6 0 01-1-1l-1-1 1 1-2-1v-1h-1l-1-2-1-1a8 8 0 00-1-1l-1-1v-1a2 2 0 010 1 19 19 0 00-2-2l2 2v1a16 16 0 00-1-2 24 24 0 01-2-3l-1-1-1-2v-2l-1-2a20 20 0 010-2l-1-2v-2l-1-2a22 22 0 000-3v-1-1-8-2-2a5 5 0 010-1v-8-2a4 4 0 010-3v-4-1 1a16 16 0 010-2v-1a3 3 0 010 1v-1-2-6-1a14 14 0 000-2v-1-3-1 1l1-1a41 41 0 000 6v9a5 5 0 000 2 14 14 0 000 1v10a64 64 0 000 7v3s0-1 0 0v4a9 9 0 010-3v-1 12a12 12 0 000 3v4a10 10 0 001 2 6 6 0 000 1l1 2 1 1s-1-1 0 0v1l-1-1a13 13 0 001 2l1 1v0l1 1v1l1 1 1 2-1-1v-1a12 12 0 001 2 18 18 0 002 2l1 1c0 1 0 0 0 0l2 2c0 1-1-1 0 0v0a16 16 0 003 3l-2-2a6 6 0 002 2 18 18 0 003 1l1 1 1 1a26 26 0 003 1h-1l2 1h2-1l3 1h0a8 8 0 01-1-1c2 1 0 0 0 0h2a9 9 0 011 1h2c1 0 0 0 0 0a18 18 0 014 1h-1 1c1-1-1-1-1-1h1a11 11 0 002 0 20 20 0 012 0h2a10 10 0 003 0h-1 2c1 0-1 0 0 0h5v1a32 32 0 013 0l1-1h1-1v1h3a22 22 0 003-1h1s-1 0 0 0h5l1 1h6a14 14 0 013 0h1a29 29 0 01-3 0 15 15 0 014 0 10 10 0 013 0h-2 7v-1l3 1h-2a18 18 0 003 0v-1l2 1h-1a21 21 0 004 0l2-1h-1l4 1h-3a10 10 0 012 0h12 3-4 0c-1 0 1 0 0 0h-3-1s1 0 0 0h-2s-1 0 0 0h-3l-2 1a12 12 0 002 0h2a5 5 0 00-2 0h2-2-1l2 1a3 3 0 011-1h1a3 3 0 003 0h-1 1a11 11 0 012 0h-2 4c-1 0 0 0 0 0h-1a17 17 0 003 0h5a3 3 0 01-1 0 8 8 0 012 0h11a35 35 0 004 0 38 38 0 005 0h18a27 27 0 003 0h2a19 19 0 002-1 13 13 0 002-1h2s-1 0 0 0l2-1 1-1zm20-74a11 11 0 010 3v-3zm1-69v0zm-1 52h1c0-1 0 0 0 0v1a6 6 0 01-1 1v-2zm0 6v-2a5 5 0 010 2zm0-12v0zM131 93a7 7 0 002 0 7 7 0 01-2 0zm-5 0h-2a6 6 0 012 0zm-5 1h4l-4 1a3 3 0 010-1zm-1 1l-4 1 4-1zm-3 0l2-1a11 11 0 01-2 1 22 22 0 00-2 1 8 8 0 012-1zm-23 51a5 5 0 010-2 3 3 0 011 2h-1zm-2 49v-2 2zm70 94c1 0-1 0 0 0a4 4 0 01-1 0h1zm-13-2a19 19 0 01-3 0 27 27 0 013 0zm-16 2h-2 2zm-4 0h-3 3zm-31-17l1 1-1-1zm-4-12v-2a8 8 0 010 2zm-1-33v2zm0-75v0zm0 4v2a9 9 0 010-2c0 1 0 1 0 0zm0 6v0zm0-1v0zm-1 47v-2 2zm0 27v2a7 7 0 010-2zm0 18v1a4 4 0 000-1v0zm0-27v-2 2zm0-7v0zm1-7v2a5 5 0 010-2zm0-39a8 8 0 010-1v-1 2zm0-6v6l-1 1a31 31 0 000-4l1 2a15 15 0 000-3 8 8 0 000-2l-1 3v-2-3 1a6 6 0 001-2l-1 1v-2l1 1v-1 1a14 14 0 000 2 4 4 0 010-1v1c0 1 0 0 0 0v1zm0 30v-2a13 13 0 010 2zm1-36v2a6 6 0 010-2zm0 8v-4a9 9 0 010 3v1zm0 4v3a17 17 0 000 2 3 3 0 010 2zm0 6v6c0 1 0 0 0 0v4-5a15 15 0 010-3v-2zm0 12v-1 1a16 16 0 010 2c0 1 0 0 0 0v4c0 1 0-2 0 0v-3-3zm0 8v-1 1zm0 5a12 12 0 010-3c0 1 0 1 0 0a17 17 0 010 3zm0 1a9 9 0 000 2v-4a6 6 0 010 2s0-1 0 0q0 1 0 0zm0-40a2 2 0 010-1v-1 2zm0 59a10 10 0 000 1v-1zm0 8a9 9 0 010-1 3 3 0 010 1zm0 2v-1c0-1 0 0 0 0v-1a3 3 0 010 2zm0 21a17 17 0 010-2 12 12 0 010 2zm1-83a10 10 0 010-2v2zm102 116h-2l2-1v1zm5-1a5 5 0 012 0 10 10 0 01-2 0zM95 125v1a17 17 0 010-3 10 10 0 011-2l-1 3v1zm37-30h0-1 1zm69 157c-1 0-1 0 0 0zm3-1h0zm8-3h-1 1s-1 0 0 0zm12-6l1-1-1 1zm18-18a10 10 0 011-1l-1 1zm4-4a1 1 0 00-1 0v1a2 2 0 00-1 1v0a7 7 0 000 1h-1v1s-1 1 0 0a11 11 0 001-2l-1 1v-1h1a8 8 0 001-2l-1 1 1-1a14 14 0 001-3 1 1 0 01-1 0l1-1v-1a5 5 0 00-1 2l-1 2a11 11 0 010 1l-5 7a9 9 0 01-1 2 4 4 0 01-1 1l-1 1a8 8 0 01-2 2l-2 3h-1l-1 1h-1v1h-1l-1 1a19 19 0 01-3 2l-3 2a31 31 0 01-3 2h-1a21 21 0 01-3 1v1h-1 1a3 3 0 00-1 0 3 3 0 00-2 1h-2v1s0-1 0 0a8 8 0 00-1 0v1l-6 1h0-1a1 1 0 01-1 0l-2 1-1 1a1 1 0 001 0 63 63 0 01-8 0 62 62 0 01-28-7v1l-2-2v1-1h-1l-1-1a3 3 0 00-1 0l-2-1h1l-1-1-1-1h-1a5 5 0 002 1h-1l-4-3h0v-1l-2-1h1v1l-1-1-1-1 1 1-1-1-1-1v-1h-1v-1h-1l-1-1v-1l-1-1a11 11 0 00-1-2l-1-1s1 1 0 0v-1 1l-1-2-1-1v0a2 2 0 01-1-1c0-1 0 0 0 0v-1l-1-1v-1l1 1-3-4v1c0-1 0 0 0 0v-2c0 1 0 1 0 0l-1-1a4 4 0 00-1-2v-1a6 6 0 011 1l1 2 1 3 1 2 1 2h1l1 1-1-1 1 2v1a13 13 0 002 2 14 14 0 002 2l1 2 1-1-1-1a16 16 0 012 3l-2-2 1 1v1l1 1c2 2 4 2 6 5a3 3 0 001 0l-1-1h-1v-1l-1-1h-1v-1h-1l-1-1c1 0 1 1 0 0l-1-1-1-1v-1l-1-2-2-1 1 1v1h1l-1-1a2 2 0 000 1v-1l-1-1-2-2a4 4 0 000-1 3 3 0 00-1-1 6 6 0 00-1-1v-1 0l-1-1h1a4 4 0 000 1v1h1v0l1 1v1l1 2h1l1 2-1-1v-1 0a26 26 0 01-2-2v-1a13 13 0 01-1-1 7 7 0 00-1-2v0a13 13 0 00-1-2c0-1 0 0 0 0h-1v-1a16 16 0 00-1-2s0-1 0 0v-1s0 1 0 0l-1-1h1l-1-2-1-2v1l-1-1h1l-1-3a3 3 0 000 1v1s0-1 0 0a18 18 0 010 2v-2 1l-1-1a2 2 0 001 2v1a3 3 0 00-1-1l1 1-1-1c0 1 0 0 0 0v-1-1l-1-1v-2a6 6 0 00-1-1s1 0 0 0v-1c0-1 0 0 0 0v-1l-1-1h1a9 9 0 010 2s0 1 0 0v-4a3 3 0 01-1-1v-1-1-3-1c0-1 0 0 0 0v-1a9 9 0 010-2v-1-1-1-1-1s0 1 0 0a5 5 0 000 2v-2a3 3 0 000-1v-1 1l1-1-1-1v-1l1-1v-2-1s0 1 0 0h1v-1-1-1 1l1-2 1-3a4 4 0 010-2l1 1h-1 1a5 5 0 01-1 1 11 11 0 01-1 3 9 9 0 010 2 11 11 0 00-1 3s0-1 0 0a4 4 0 000 1l-1 2 1-1v-1 1a5 5 0 000-2l1-1v-1-1 0l1 1v-2l2-5a2 2 0 000-1l1-1 2-4 1-3h1l2-3 1-2 1-1-1 1a2 2 0 011-1l1-1a54 54 0 018-8l1-1v0h1l2-1 1-2v1a19 19 0 012-1l1-1-1 1a22 22 0 00-2 1 31 31 0 013-2h1c1 0-1 0 0 0 0-1 0 0 0 0l1-1a5 5 0 002-1h1l1-1a13 13 0 01-2 1l-1 1a24 24 0 013-1l3-2c-1 0 0 0 0 0l1-1a3 3 0 011 0l3-1a1 1 0 01-1 0h2a2 2 0 001 0l1-1h2a3 3 0 002 0l1-1v1h1v-1c1 0 0 0 0 0h1c1 0 0 0 0 0h2c1 0 0 0 0 0a1 1 0 011 0h3s-1 0 0 0a24 24 0 014 0 8 8 0 002 0h1l1 1a5 5 0 010-1 3 3 0 001 1h3l2 1c1 1 0 0 0 0a44 44 0 015 2h2v-1-1a4 4 0 00-1-1 14 14 0 00-3 0l-2-1a14 14 0 00-2 0v-1h-2-3s1 0 0 0h-2s-1 0 0 0h-1l-3-1v1l-1-1c0 1 0 0 0 0l-1 1-1-1h-1v1h-3 1-2a3 3 0 00-2 0 10 10 0 012 0 8 8 0 01-1 0h-1a8 8 0 00-3 1h-1-1-1v1h-1a2 2 0 00-1 0h-1a4 4 0 00-1 1l1-1s1 0 0 0a1 1 0 01-1 1l-3 1-1-1-2 1-2 1-1 1a8 8 0 00-3 1s1 0 0 0a22 22 0 00-3 2l-2 1a2 2 0 01-1 0 18 18 0 00-3 3l1-1-2 2-1 1v-1a18 18 0 00-2 2v0a5 5 0 01-1 1s0 1 0 0v1h-1l-2 3a3 3 0 00-1 1l-1 2h-1l1-1-1 1a14 14 0 002-3l3-3v-1l-1 1 2-2-1 1 1-1v1c0 1 0 0 0 0l-1 1 1-1a5 5 0 000-1h1a46 46 0 014-3 28 28 0 002-3h2v-1s-1 0 0 0a8 8 0 010-1l1 1 1-1a3 3 0 01-2 1h1c1 0 0 0 0 0l5-3a4 4 0 001-1 27 27 0 003-1l1-1h1v-1h1l-1 1 2-1v-1 1l1-1v1a6 6 0 001-1h1-1a17 17 0 002-1h3s-1 0 0 0a15 15 0 002 0h-2l2-1h5l1-1v1h2l1-1a14 14 0 01-2 0c1 0 0 0 0 0h3s-1 0 0 0a5 5 0 012 0l-1 1h1l-1-1h2a6 6 0 011 0 14 14 0 011 0l2 1-1-1 2 1-1-1 1 1c0 1 0 0 0 0h2a7 7 0 012 0h0v1h2a8 8 0 002 0l3 1h1a18 18 0 012 1l2 1h1a9 9 0 01-2-1 5 5 0 012 1l2 1-1-1 1 1 2 1-1-1 1 1 2 1-1-1 1 1 1 1v-1a6 6 0 001 1l1 1h1l-1-1 2 2-2-1a3 3 0 011 1l3 1s-1 0 0 0a8 8 0 010 1h1l1 1h1v1l1 1-2-1h1l-1-1v1l-1-1-1-1c1 0 1 0 0 0h-1l-1-1h-1 1v1c-1 0 0 0 0 0h-1v-1l1 1h1a1 1 0 001 1c-1 0-1 0 0 0v1h1l-1-1 1 1h0l1 1c-1-1 0 0 0 0l-1-1a6 6 0 001 1l1 1 2 1h-1l1 1 4 3v1a14 14 0 002 2 14 14 0 001 2l1 1c0 1 0 0 0 0l1 1 1 1v1a10 10 0 011 1l1 1 1 3 1 1v1a4 4 0 001 1c-1 0-1 0 0 0v1l1 1v2l1 1a4 4 0 010 1 2 2 0 000 1 8 8 0 001 1v3l1 3v2c0 1 0 1 0 0a20 20 0 010 3l1 1v8l-1 2a1 1 0 010 1 10 10 0 010 2v2l-1 1v3l-1 2v2a10 10 0 01-1 1v1a13 13 0 01-1 1l1 1a13 13 0 001-2v-1a3 3 0 01-1 2h0v1h1a1 1 0 010-1v1l-1 2-1 3zm-2 1v-1 1h-1 1zm1-2l1-1-1 1zm23-100v1l1 1v-1 1h-1 1v1a15 15 0 011 2l-1-1a1 1 0 000-1h-1v-1-1-1h-1 1zm2 6zm-2 6zm-1-11s0 1 0 0zm-1 0zm0-2c1 0 1 0 0 0zm1 3v-1zm-2-3zm0-2c0-1 0 0 0 0zm0 1zm0 0zm-1-2zm0-1zm-2-1v0c0-1 0 0 0 0zm-2-1v0zm0 0h-1c0 1 0 0 0 0h1zm-11 1h-1 1zm-3 2v-1 1zm0 0zm0 0h-1 1zm-3 2h0zm0 0h1a1 1 0 010 1l-1-1zm1 1h-1 1zm-1 3v1h-1 1-1 0v-1 1l1-1c0-1 0 0 0 0zm-1 2zm0 0h-1zm0-1zm1 0h-1zm-1-2a7 7 0 000 1v-1zm0-1v0a1 1 0 011 0l-1 1v-1zm1 2h-1 1zm0-3v1a1 1 0 010-1zm0 0zm-2 4zm0 0zm0-1v-1zm0 0h1l-1 1v-1zm-1 5v-1zm0 1h1a6 6 0 01-1 0h1s-1 0 0 0h-1v-1zm1 3v-1zm0 1zm0 1h1-1a1 1 0 011 0h-1c0-1 0 0 0 0zm1 0v0zm0 0v0zm1 1l-1 1v-1a1 1 0 011 0h-1 1zm0 1v-1 2a1 1 0 000-1c-1 0-1 0 0 0zm1 2zm6 38v-1h-1 1a8 8 0 00-1-1v-1l-1-2s1 0 0 0v-1l-1-1a4 4 0 010-1l1 1-1-1v-1l-1-1v-1a7 7 0 01-1-2l-1-1h1v1h1-1a13 13 0 001 3h1a4 4 0 010 2h1v2a4 4 0 001 1l-1-1 1 1a6 6 0 001 2l1 3v2a62 62 0 011 8v-5a1 1 0 00-1 0 19 19 0 000-4h-1v-1zm-4-9v0zm0 1l-1-1 1 1zm-1-2a3 3 0 01-1-1l1 1zm-4-8v-1 1zm-3-4a2 2 0 01-1-1 2 2 0 011 1zm-1-2v0zm1 3v-1 1a6 6 0 00-1-1 1 1 0 011 1zm-2-5l-2-1v-1l1 1 1 1zm4-21v-1 1zm2 7zm0-1zm-1-1zm11 53a3 3 0 011 0zm-4-46zm-1 0v-1 1-1 1zm-1-1h1zm-2-2zm-1-1h1a1 1 0 00-1 0s1 0 0 0zm0 0v-1 1zm0-1v-1 1zm-2-5zm0 1v-1 1zm0 0zm-1-2v0zm0 0h0zm1 0h-1 1l-1-1h1v1zm-1-2zm0-1zm-10 18l1 1-2-1h1zm-1-2h-1 1zm-7-4l-1-1 1 1-1-1h-1l2 1zm-10-5h-1a1 1 0 011 0zm-3 0l-1-1s-1 0 0 0h1l2 1-2-1v1zm-46 3h-1a2 2 0 011 0zm-11 6h1-1s0 1 0 0zm0 1a3 3 0 01-1 0h1zm-3 2s0 1 0 0zm-9 9l1-1a4 4 0 01-1 2v-1zm1-1q0-1 0 0a3 3 0 001-1l1-1a17 17 0 00-2 3 2 2 0 010-1zm-4 7a5 5 0 011-1v-1a16 16 0 011-1v-1l-1 2-1 2c0-1 0 0 0 0zm2-4h0zm0 1v1a3 3 0 010-1zm1 1v1h-1l1-1zm-7 11a4 4 0 000 2l-1 1 1-1v1a10 10 0 01-1 1c0 1 0 0 0 0v1-1 1l-1-1h1v-1-1 1l1-1 1-2c0-1 0 0 0 0a9 9 0 00-1 1v-1zm-1 6h-1 1zm-1-1h0zm2-5zm0-1h-1l1-1a5 5 0 001-1 1 1 0 00-1 0 1 1 0 011-1l-1 3zm1-3l1-2v-1l1-1v1a11 11 0 010-1l-1 2a5 5 0 01-1 1v1zm-3 6l1-1a21 21 0 01-1 2v-1zm1-2l-1 1 1-1zm-1 3v2-2zm-1 2h0zm-2 10a1 1 0 010-1 2 2 0 010 1zm0 10v2a7 7 0 000 1c0 1 0 0 0 0v-1l-1-1h1c0-1 0 0 0 0v-1zm0 7a2 2 0 010-2v1a9 9 0 010-2s0 1 0 0a8 8 0 000 3zm0 2l1 1-1-2zm1 1v2a7 7 0 010-2zm1 3v-1c0 1 0 0 0 0a9 9 0 000 2v-1zm0 1a2 2 0 01-1-1l1 1zm-1 0l1 2v-2h-1zm2 4v0zm3 7a9 9 0 01-1-2l-1-1h1l1 2v1zm1 0v2s0-1 0 0v-2zm0 1v1a2 2 0 01-1-1v-1l1 1zm0 2h0zm2 2c0 1 0 0 0 0v1l-1-1v-1-1a15 15 0 011 1v1zm1 1c-1 0-1 0 0 0zm0 1a2 2 0 010 1v-1a3 3 0 001 1v-1l-1-1h1v2s0-1 0 0v1a2 2 0 001 0v1l-1-1v-1l-1-1zm3 4l-1-1v1h1zm0 0v1l1 1-1-1v-1zm4 5zm15 12a7 7 0 012 0h-2zm-2-1v-1h-1a1 1 0 011 0v1zm-3-2l-1-1a1 1 0 011 0v1zm-28-53v1a7 7 0 010-1zm6 26c0 1 0 0 0 0zm10 15a2 2 0 010 1zm-6-7a1 1 0 010 1zm-10-30v-1-1a7 7 0 010 2 3 3 0 010 1v-1zm1 6h0zm0-11h-1l1-2-1-1h1a10 10 0 000 3zm-1-1zm7 24a20 20 0 010 2v-2zm1 4v1l-1-2 1 1zm-1-2l-1-1 1 2zm1 2l1 1-1-1zm1 4h1a2 2 0 01-1 0zm-6-44l1-1a3 3 0 01-1 2zm0 1v0zm14-25l1-1-2 2 1-1zm1-3h1-1zm3-3v1-1zm3-1h-1 1zm0-2l-1 1 1-1zm4-2a2 2 0 010 1c-1 0 0 0 0 0zm8-4s-1 0 0 0zm3-3l-1 1a2 2 0 011-1v1zm6-1h1-1zm16-2h0zm3 0h1a7 7 0 00-1 0zm8-1a6 6 0 011 0 7 7 0 01-1 0zm8 3c1 0 0 0 0 0zm21 9h-1 1zm-4-2h0zm25 71c0 1 0 2-1 1a4 4 0 011 0zm8-71zm1-1c0 1 0 1 0 0zm2-1h-1 1s-1 0 0 0zm2-1zm5-5c-1 0 0 0 0 0zm0 1zm1 0h-1v0c0-1 0 0 0 0h0v-1h1l-1-1v0l-1 1a3 3 0 000 2h-1v1-1l-1 1h1l-1 1h-1a1 1 0 01-1 1 4 4 0 00-1 0s0 1 0 0l-1 1h-1v1h-1c0 1 0 0 0 0h-1v1a14 14 0 01-9-1h1l-1-1v1-1h-1v-1l-1 1h1l-1-1h-1 1l-1-1v1-1h-1v-1a1 1 0 000-1v-1h-1c-1 0 0 0 0 0a4 4 0 010-1c-1 0 0 0 0 0h-1l1-1-1 1v-1h1c1 0 0 0 0 0v1a9 9 0 011 1l1 1h1s0-1 0 0v1l1 1a2 2 0 001-1h-1c-1 0 0 0 0 0h-1c-1 0 1-1 0 0v-1c0-1 0 1 0 0a2 2 0 000-1v1c0 1 0 0 0 0h-1 0v-1-1 1l-1-1c0-1 0 0 0 0s1 0 0 0h1c-1 0 0 0 0 0a1 1 0 000 1v-1 1h1a1 1 0 01-1 0v-1l-1-1h0s0-1 0 0v-1h-1v-1 1h-1c1 0 1 0 0 0v-1h-1s1 0 0 0v-1c0-1 0 0 0 0v-1c0-1 0 0 0 0a7 7 0 000-1v-1c0-1 0 0 0 0v-1 1a1 1 0 01-1 0v-1h1c1 0 0 0 0 0v-1c0-1 0-1 0 0v-1h1v-1h1-1v2h1c1 0-1 0 0 0v-1 0l1-1a5 5 0 000-1h1v-1a1 1 0 000 1v-1a1 1 0 000-1 4 4 0 011 0v0a4 4 0 011-1 15 15 0 001 0v-1 1l1-1h1v-1h1l-1 1 1-1a1 1 0 011 0h1v-1c0 1 0 0 0 0v1l1-1a1 1 0 010 1v-1a2 2 0 011 0 2 2 0 011 0h1c1 0 0 0 0 0 0 1 0 0 0 0h1v1h1v-1a1 1 0 000-1h-1a6 6 0 01-1-1v1h-1c-1 1 0 0 0 0h-1v-1l-1 1h-1c-1 0 0 0 0 0h1a1 1 0 01-1 0h-1v1l-1-1v1a2 2 0 00-1 0v-1a2 2 0 00-1 1h-1v1h-1-1 1l-1 1a2 2 0 00-1 0h1-1v1c0-1 0 0 0 0h-1 0v1a1 1 0 000-1 2 2 0 001-1h-1 1a7 7 0 011-1h1v-1c0 1 0 0 0 0h1v-1h1s1 0 0 0h1c0 1-1 0 0 0v-1c0-1 0 0 0 0v0h0a1 1 0 001 0h3c0-1 0-1 0 0a1 1 0 011 0v-1 1c0 1 0 0 0 0h1v-1 1h3v1h1s1 0 0 0h1v1c0 1 0-1 0 0l1-1a2 2 0 010 1l1 1v-1a1 1 0 010 1h1c-1 0 0 0 0 0h-1v0h-1v1c-1 0 0 0 0 0h1a1 1 0 01-1 0h1-1 1v1a6 6 0 001 1l1 1c0 1 0 0 0 0v1h1v1a3 3 0 011 1v1a7 7 0 010 1h1v1a7 7 0 010 2 1 1 0 010 1v1a6 6 0 01-1 1v1h2l-1 2zm-1-1c1 0 0 0 0 0zm-24-1zm0 0v-1 1zm0-1c0 1 0 0 0 0zm0 2zm1-1zm-4-7zm5-5h-1zm0-2s0-1 0 0zm1 1h-1 1zm0-2v1zm0-1v1zm1 1c0 1 0 1 0 0zm1 0zm1-1c1 0 0 0 0 0h0zm0-1l1-1v1h-1zm2 0zm4 0h-1zm0 0zm2-2v1zm1 2v1zm5 1zm-1 0c1 0 0 0 0 0zM139 95zm-17 1c1 0 0 0 0 0zm162 166l-1 1zm0-1v-1 1zm0-145l-1-1v-1-1l1 3zm-9-12l1 1-1-1zm-6-4c-1 0-1-1 0 0zm-71-5h-3a22 22 0 013 0zm-8 0h1-2a2 2 0 011 0zm-6 0h-1a3 3 0 011 0zm-24 0a4 4 0 011 0h-1zm-5 0zm-4 0h2a2 2 0 00-1 0h-2-1 2c-1 0 0 0 0 0zm-4 0h0zm-7-1h2a4 4 0 001 0v1h1a5 5 0 002 0s-1 0 0 0h1-7a6 6 0 012 0h-1a10 10 0 002 0h-1l-1-1h-2a1 1 0 001 0zm-2 1a9 9 0 011 0h-1zm-3 0h1v-1l2 1h-2a9 9 0 00-1 0h-4 4zm-6-1l2 1-2-1h-2 2zm0 1c-1 0-1 0 0 0a5 5 0 01-1 0h1zm-10 2l1-1 2-1h3 1-3a11 11 0 01-2 1h-1a4 4 0 00-1 1zm-6 2l2-1-2 1zm-4 3l-1 1-1 1 2-2zm-3 2a7 7 0 01-1 1c-1 1 0 0 0 0l1-1zm0 0h-1l-1 1c1 0 0 1 0 0l2-1zm-4 4l2-2-2 2zm-2 2l2-1-2 2a2 2 0 010-1zm-1 2l-1 2 1-1h-1a11 11 0 011-1zm-2 4l1-2a5 5 0 01-1 2l1-1-1 1a16 16 0 01-1 2v-1a14 14 0 001-1zm-3 9a14 14 0 011-2v-1l1-3v1l-1 2a7 7 0 010 1c0 1 0 0 0 0v1c0 1 0 0 0 0l-1 2v-1zm1 13h-1a45 45 0 000-5h1l-1 3 1 2zm0-8a9 9 0 01-1 2 12 12 0 010-2l1-2v2zm0 4v0zm70 152v1a9 9 0 01-2-1c-1 0-2 0 0 0h2a21 21 0 012 0h-2zm4 1l-1-1a5 5 0 011 0v1zm19-1h-1-1 4s-1 0 0 0a10 10 0 01-2 0zm16 0h0zm3 1a2 2 0 011 0v-1a19 19 0 012 1h-3zm11-1h-2 3c1 0 0 0 0 0a21 21 0 002 0h-3zm8 1h0zm1 0a5 5 0 012 0 5 5 0 01-2 0zm2 1a5 5 0 011 0 3 3 0 011 0 21 21 0 00-2 0zm9-1h-1 1zm17 1a6 6 0 01-2 0h2zm3-1h0zm1-1l-2 1a2 2 0 011-1 7 7 0 011 0s1 0 0 0zm5-2l-2 1a5 5 0 01-2 0h0s-2 0-1 1a9 9 0 01-2 0h-1a8 8 0 01-3 0 18 18 0 01-3 1l-3-1a7 7 0 002 0 19 19 0 002 0h-3 2a3 3 0 001 0h1a1 1 0 00-1 0 9 9 0 002 0 13 13 0 001 0h2a4 4 0 011-1v1a20 20 0 013-1h1v-1l3-1-1 1 1-1h1l1-1h1l1-1 1-1a10 10 0 002-1l2-1 1-1 1-1 1-1a35 35 0 007-12v1l-1 2-1 2-1 2a5 5 0 00-1 1l-2 2-2 3a6 6 0 000 1h-1l-2 2h1-1l-1 1-2 1a3 3 0 00-1 0l-3 2h1l-2 1z"/><path class="a" d="M287 197v-2a10 10 0 000 2zM287 195a19 19 0 000-3 30 30 0 000 3zM287 205a52 52 0 000 5v-5zM285 263l1-1a6 6 0 000-1l-1 2zM164 95h5l-2-1h-2l1 1a7 7 0 01-2 0zM117 97h-1l3-1a21 21 0 012-1l-2 1a14 14 0 00-2 1zM156 95h1-1s-1 0 0 0zM134 94h2a6 6 0 00-2 0zM94 118v2a14 14 0 00-1 2l1-2v-1zM101 107l-2 3 2-2v-1zM100 109l1-2-1 2z"/><path class="a" d="M102 106l2-2-2 3 1-2a14 14 0 00-2 2 2 2 0 000 1l1-1z"/><path class="a" d="M96 114a16 16 0 012-3l1-2 1-1 1-1a18 18 0 001-2 15 15 0 012-1l1-1a41 41 0 00-4 3l-1 2-2 2v1l-1 1-1 3v-1zM284 266zM198 288h2-2zM100 276v-1a1 1 0 000 1zM170 289h1-1s1 0 0 0zM93 129v0zM93 152v-2-6 8zM93 124a14 14 0 000 2 10 10 0 000 2v-1-2-1zM93 133v-1 1zM93 134v0zM172 289c1 0-1 0 0 0h1a6 6 0 00-1 0zM175 289h-2 2zM174 288h3a18 18 0 00-3 0zM179 288h-3 2s-1 0 0 0h1zM93 152l-1 1a13 13 0 010 3h1a4 4 0 000 2v-3a21 21 0 010-3z"/><path class="a" d="M176 288h2a7 7 0 00-3 0 6 6 0 00-2 0h2a2 2 0 011 0zM173 288h-2a13 13 0 012 0zM189 288a5 5 0 002 0 3 3 0 011 0 3 3 0 011 0h-1l2-1h1a17 17 0 01-2 0 12 12 0 01-2 0v1h-5-2a42 42 0 00-5 0 9 9 0 003 0 7 7 0 003 0h4zM91 247v3a8 8 0 000 3v-3a11 11 0 000-3z"/><path class="a" d="M196 288h-3-1s1 0 0 0a9 9 0 00-1 0h1a11 11 0 002 1l-1-1h3zM221 92h5l-1-1a8 8 0 012 1h-1 4a15 15 0 01-3-1 7 7 0 012 1h2a7 7 0 00-1 0h12a15 15 0 003 0h1a9 9 0 003-1l-2-1a10 10 0 00-2 0c1 0 0 0 0 0h-6a2 2 0 010 1h-1v-1a42 42 0 00-5 1h2-1c-1 0 1 0 0 0h-10a21 21 0 002 0h2-3-2 1-2c-1 0 0 0 0 0h-1-4a18 18 0 004 1zm25-2l1 1c-1 0-2 0-1-1zm-7 1h-1 1zm2 0h1-1zm-1 0a9 9 0 01-1 0 3 3 0 011 0zm-3 0a10 10 0 012 0h-4 2zm-7 0h2a14 14 0 01-3 0h-1 2zm-3 0h-3a5 5 0 013 0zM185 288s-4 0-1 1a7 7 0 002 0l-1-1zM178 289h0zM182 288l-2 1a9 9 0 002 0v-1zM176 95a11 11 0 001 0h-1zM177 94a5 5 0 00-2 1h-3 1a10 10 0 013 0h1l6-1h-2-4zM184 95h4c-1 0-2-1 0-1a13 13 0 00-3 0h-1v1zM172 94a1 1 0 00-1 0v1l1-1zM173 94a4 4 0 00-1 0 2 2 0 000 1l1-1zM193 94h-5a5 5 0 011 1l4-1zM93 139a18 18 0 000 3c0-1 0 0 0 0 0 1 0 0 0 0v5a11 11 0 010-2v2a1 1 0 000 1v3a12 12 0 010-3c0 1 0 1 0 0a15 15 0 010-2v-7zm0 5a7 7 0 010-1v1zM238 95h4-4zM220 94h4a29 29 0 00-4 0zM199 94c1 0 1 0 0 0h-7 7zM169 94h0c1 0 0 0 0 0zM203 95h2a1 1 0 011-1 8 8 0 001 1c-1-1 1-1 1-1a12 12 0 01-3 0h-2c1 0 1 0 0 0h-1l1 1z"/><path class="a" d="M204 95a13 13 0 003 0 19 19 0 00-3 0h-4 4zM95 117v0zM98 112l1-2v1h-1a14 14 0 01-1 2v1a22 22 0 011-3v1zM94 145v5a11 11 0 010 2 5 5 0 000 2v-1-3-1-1-3zM175 94h-3 3zM94 122c0 1 0 0 0 0l-1 2h1l-1 1v2a6 6 0 000 2v-2 1a11 11 0 000-1 11 11 0 010-2h1v-1a7 7 0 000-2zM93 136a5 5 0 000 1v-1zM96 116l1-2v-1l-1 3zM180 93h-2a6 6 0 00-3 0h5zM160 92h1a3 3 0 001 0h3a31 31 0 00-3 0h-6a16 16 0 004 0zM105 103l-1 1a4 4 0 00-1 1l1-1v-1a8 8 0 002-1 9 9 0 001-1 14 14 0 00-1 1l-1 1z"/><path class="a" d="M107 102l-2 1a3 3 0 001-1l2-1v-1l-1 2zM122 93h2-3 1zM152 190v-1-1c0 1 0 0 0 0v2zM152 187a6 6 0 000 1 3 3 0 000-1zM152 190a7 7 0 000-1v-1a2 2 0 000 2zM152 183l1-1h-1 1v-1l-1 3v1a19 19 0 010-2zM153 184v-1a11 11 0 000 1zM153 183l1-2-1 1v1zM155 174c-1 0 0 0 0 0l-1 1 1-1zM166 162v-1 1zM161 165a2 2 0 001-1v-1a5 5 0 011 0v-1l-1 1-1 2zM153 182v1-1z"/><path class="a" d="M153 184h-1l1 1v-1zM153 185a6 6 0 010 1v-1zM167 160h-1l1-1v1zM152 187v-1 1zM153 196v-2h-1l1 1h-1v1h1v-1c0-1 0 0 0 0v1l-1 1h1v-1zm0-1c-1 0 0 0 0 0zM152 192c1 0 1 0 0 0zM152 192v0zM152 191c0 1 0 0 0 0zM153 182s0-1 0 0a4 4 0 000-1v-1 2zM224 173v-1 1zM223 171v0zM180 152h1a1 1 0 011 0h-1 2a3 3 0 01-1-1 1 1 0 011 0 1 1 0 000 1l4-1a2 2 0 001 0h1l1-1-1-1h-1v0a9 9 0 00-2 1h-1 1-2 1-1v1c-1 0 0 0 0 0a1 1 0 010-1l-2 1h-1 1-1-1 1a8 8 0 01-1 0l-2 1h2zm8-2h1-1zm-1 0c-1 0 0 0 0 0zm-1 0zm0 1zm-1-1a1 1 0 011 0l-1 1v-1zm-2 1v-1l1 1h-2 1zm-1 0h-1 1zM220 167l-1-1-1-1 1 2h1zM226 177a11 11 0 00-1-2 9 9 0 001 2zM228 184a13 13 0 000 2 14 14 0 000-2zM166 162s1 0 0 0zM226 177v0zM228 183l-1-1a97 97 0 00-1-3 13 13 0 011 2 11 11 0 011 2zM180 155h0zM169 160l2-1h-1v1h-1zM166 163c0-1 0 0 0 0v-1 1zM228 189a6 6 0 000 1v-1zM167 161v1h-1 2v-1l1-1a3 3 0 01-1 0c1 1 0 1-1 1zM175 157a5 5 0 011 0v-1h-1v1c0 1 0-1 0 0h-1 1z"/><path class="a" d="M175 157h0c-1 0 0 0 0 0l-1 1 1-1zM172 158l2-1-2 1c-1 0 0 0 0 0zM171 159l1-1-1 1h-1a1 1 0 011 0zM166 163h-1l-1 1h1v-1c0-1 0 0 0 0h1zM191 228c0-1 2 0 1-1a1 1 0 00-1 1zM154 197l-1-2 1 3v-1a1 1 0 010 1v-1-1 1zM154 181v-1-1 2zM152 191v-1 1zM198 227a3 3 0 001-1 3 3 0 00-1 1zM193 227a7 7 0 011 0h-1zM194 228h0zM164 164h-1s1 0 0 0a8 8 0 001-1v1zM158 172v-1 1zM228 195a2 2 0 000-1v1zM155 177h1v-1-1 1l-1 1zM228 188a2 2 0 000 1 4 4 0 000-1z"/><path class="a" d="M228 195v-2-2-2-3a1 1 0 01-1 0 4 4 0 010-1v-1-1-1l-1-2a4 4 0 000-1v-2a5 5 0 01-1-1c0 1 0 1 0 0a5 5 0 000 1v1a1 1 0 010-1h-1 1-1a16 16 0 00-1-2l-1-1v-1a1 1 0 000-1h-1v-1h-1 1a6 6 0 000 1v-1l1 1a3 3 0 000 1l1 1 1 1a1 1 0 010-1v1h1l-1-1a9 9 0 010-1l-1-1a14 14 0 00-3-4 3 3 0 01-1-1l-1-1h0l-1-2-2-1v-1h-1v-1h-1c-1 0 0 0 0 0v-1a9 9 0 01-2-1l-2-1-2-1v-1a12 12 0 01-2 0h-1v-1h1a1 1 0 00-1 0l-2-1s-1 0 0 0h-1v1l-4-1h0a1 1 0 01-1 0l-1-1v1h-1a36 36 0 00-4 0h-3-1a4 4 0 011 0 36 36 0 00-13 4h-1v1h-1-1l-1 1h-1c-1 0 0 0 0 0v0l-1 2v-1 1h-1v1h-1-1v1l1-1-1 1-1 1c0-1 0 0 0 0h-1v1l1-1-1 1h-1l-1 1s1 0 0 0a4 4 0 000 1h-1s0 1 0 0l-1 1 1-1-1 1v1s-1 0 0 0l-1 1 1-1a1 1 0 01-1 1v1l-2 2v1l1-1v1h-1v2h-1a2 2 0 010-1l1-1v-1l1-2 1-1v-1 0a1 1 0 001 0v-1a5 5 0 001-1 6 6 0 001-1 12 12 0 010-2c0 1 0 0 0 0v1l-1-1v1a5 5 0 012-2l-1 1h1a8 8 0 001-1s-1 0 0 0l1-2a12 12 0 012-1v-1l-1 1-1 1c0-1 0 0 0 0v1h-1l-1 1c-1 1 0 0 0 0l-1 1a9 9 0 00-1 1l-1 1 1-1v1h-1v2a2 2 0 00-1 0v1l-1 1c-1 1 0 0 0 0l-1 1 1-1h-1a2 2 0 001 0v-1h0v-1h1l1-1 1-1h-1s0 1 0 0a15 15 0 01-1 2h-1l-1 2h1-1a2 2 0 000 1l-1 1h1-1a5 5 0 000 2h-1 1l-1 1v1h-1v1h1v1h-1v1h1l-1-1 1-1v2a1 1 0 001-1v-1 2h-1l1 1a1 1 0 00-1 0 7 7 0 000 1v2a3 3 0 010-1 24 24 0 000 2l-1 1c1 0 0 0 0 0v3h1l-1 1h1s-1 0 0 0a8 8 0 010 1v1c0 1 0 0 0 0v1l-1 1v-3-1a36 36 0 000 5l1-1a2 2 0 000-1 6 6 0 000 1 1 1 0 000 1v2l1 1-1 1h1c-1 0 0 0 0 0h-1 1l-1 1h1v1l-1-1a9 9 0 001 2v1a2 2 0 011 1h-1s1 0 0 0a4 4 0 010-2l-1-2a6 6 0 000-1h-1a2 2 0 000-1v-1 5s0-1 0 0a16 16 0 001 3 1 1 0 000 1h1v1l1 2 1 2 1 2 1 1 1 1h-1 0a8 8 0 001 1l3 3a35 35 0 003 2h-1l1 1a23 23 0 003 2h-1 2v1a10 10 0 00-2-1l2 1h1a6 6 0 001 1 2 2 0 001 0v1h1a6 6 0 01-1 0l-1-1 2 1 1 1a10 10 0 001 0v-1l1 1a7 7 0 002 1h1a1 1 0 001 0h1v1l1-1c0 1 0 0 0 0l1 1h2s-1 0 0 0h1s-1 0 0 0h1c1 0-1 0 0 0h2a18 18 0 013 0 3 3 0 001 0h3v-1h5l1-1h1v-1h-1 1l-1-1-2 1h-1a1 1 0 00-1 0 5 5 0 00-1 0 20 20 0 01-3 1l-1 1v-1a13 13 0 01-2 0v1h-1-1-1-1-1 1a8 8 0 01-2-1h-1l2 1a2 2 0 01-1 0 10 10 0 00-1 0 4 4 0 00-2-1h-1-1-1v-1h-1 1a2 2 0 00-1 0h1v1a1 1 0 00-1-1 1 1 0 010 1l-2-1v-1l-2-1h-1a3 3 0 01-1 0 4 4 0 00-1-1 13 13 0 00-2-2v1l-1-1h-1l-2-2 1 1-1-2h-1a13 13 0 00-1-1s0-1 0 0a2 2 0 01-1-1s0 1 0 0l-2-2a3 3 0 000-1l-1-1a5 5 0 001 1 11 11 0 002 2h1l-1-1a13 13 0 001 2v-1 1h-1 1v1l3 1a7 7 0 001 2h2v1a1 1 0 010-1h-1l1 1c1 0 0 0 0 0a27 27 0 003 1c0 1 0 0 0 0l1 1 1 1h2a6 6 0 001 1v-1l1 1h-1 2-1a3 3 0 001 0h2c1 0-1 0 0 0v1h4v1l1-1v1h2l-2-1c1 0 1 0 0 0h1l1 1v-1a2 2 0 011 1v-1h1v1h1v-1h2s-1 0 0 0h1a4 4 0 011 0h2-1 2v-1c1 0 0 0 0 0v1l2-1a11 11 0 012 0l1-1h-1a2 2 0 011 0h1s-1 0 0 0v-1h2v-1 1l1-1c1 0 0 0 0 0h1v-1h2-1a1 1 0 011 0 2 2 0 001-1s-1 0 0 0a4 4 0 001-1l1-1c-1 1 0 0 0 0v1h-1 1l-1 1-1 1v-1l-1 1v1l1-1c0 1 0 0 0 0v1s0-1 0 0h-1 2v-1h1v-1h-1 2c-1 0-1 0 0 0h-1a2 2 0 001-1s1 0 0 0l1-1h1a14 14 0 002-2v-1l1-1a5 5 0 001-1l1-1v-1c0-1 0 0 0 0a6 6 0 011 0 5 5 0 000-1v-1h1v-1a17 17 0 001-1v-1-1a1 1 0 001 0v-1 0l1-2v-1c0-1 0 0 0 0a1 1 0 000-1 3 3 0 000-1l1-1v-3-1zm-5-21v-1 1zm-1-2h1v1l-1-1s1 0 0 0zm-1-2a4 4 0 010 1zm-64 2zm-3 5v-2 2zm2-3l-1 1h1v-1zm-1-1v0zm0 4v-2 2zm-1 19a1 1 0 010-1v1zm0 5c0 1 0 0 0 0zm-1-3v0zm0 1l1 1-1-1zm0 2h0zm2 4h-1v-1-1c0-1 0 0 0 0v0a4 4 0 010-1h-1 1v-1 1l1 1h-1l1 2h-1zm0 0a1 1 0 010-1v1zm46 23zm-5 0a2 2 0 01-1 0 3 3 0 011 0zm-5 2h-1 1zm-1 0h-1 1zm-12-2a4 4 0 001 0h-1c-1 0 0 0 0 0zm-3-3v1l-1-1a1 1 0 011 0zm-2 0l-1 1c0 1 0 0 0 0l1-1zm-6-3zm-1-2l-1-1 1 1zm-1 0h-1 1zm-1-2h-1 1zm-2-2s1 0 0 0zm-2 0v-1 1zm51 6h1zm2-1v-1 1zm11-43zm-70 11v-1 1zm0 1a7 7 0 010 1v-1zm3-14c0-1 0 0 0 0a1 1 0 010-1zm1-2h-1v-1h1a1 1 0 010 1zm0-1v-1 1zm-4 15zm57-28v-1 1zm-8-5h1zm-4-1v0zm-3 0v0zm-23 4v1a1 1 0 010-1zm-2 1h1-1v0zm-1 1v0zm-6 6v-1a2 2 0 010 1zm-3 2h1v-1 1h-1v-1zm0 0v1-1zm-2 2v-1 1l1-1h1c1 0 0 0 0 0l-1 1s0 1 0 0h-1zm0 0v0zm-1 2l1-1c0-1 0 0 0 0h-1 1v1h-1v1a5 5 0 010-1zm-1 2l1-1h-1v1zm0 1v-1h1l-1 1a1 1 0 010 1s-1 0 0 0v1l-1-1 1-1zm-1 3s0 1 0 0zm-1 2v0zm0 1v1-1zm-1 1v-1h0v1c0-1 0 0 0 0zm0 1v-1 1zm0 0v0zm0 2zm0 0v1h-1l1-1zm-1 4v-1a2 2 0 000-1h1v1h-1v1s0-1 0 0zm1 4a5 5 0 00-1-2h1v2s0-1 0 0zm2 11v-1zm-2-3h0zm1 1v-1 1zm0 1a7 7 0 010-1v1c0 1 1 0 0 0zm1 1v1a2 2 0 000 1 20 20 0 010-2zm1 8v-1l1 1zm0-4a2 2 0 010-1v-1 2h0a4 4 0 011 1l-1-1zm2 3a2 2 0 010 1v-1zm0 0v-1h-1v-1a1 1 0 011 0 2 2 0 010 1 8 8 0 011 1h-1zm1 1v-1 1zm1 0v1a2 2 0 01-1 0v-1zm1 2l-1-1 1 1c1 0 0 0 0 0zm4 4h-1a1 1 0 001 0zm1 2v-1 1zm1 0c-1 0 0 0 0 0v-1 1zm6 4l-1-1a1 1 0 011 1zm28 2h-1s-1 0 0 0v-1h1l-1 1h1zm1-1h-1 1zm5-3h0a6 6 0 001 0h-1zm5-3c-1 0-1 0 0 0h-1zm1 0v-1 1zm2-3v0c0-1 0 0 0 0h0zm2-1h0zm1 0v-1 1zm1 0a1 1 0 010-1v1zm0-3l1-1-1 1zm4-4l1-1-1 1zm1-2h-1 1zm0 0s-1 0 0 0zm1-9a20 20 0 00-1 2v2h0v1l-1 1h1v1h-1v1c0-1 0 0 0 0v1h-1s0 1 0 0v2l-1 1v-1a1 1 0 000-1l1-1 1-1c1 0 0-1 0 0v-2a2 2 0 001-1v-2a36 36 0 001-6v3zm0-3z"/><path class="a" d="M164 165c0-1 0 0 0 0v-1l-1 1c0 1 0 0 0 0h1zM163 166zM165 162v1l1-1h-1zM183 227a10 10 0 002 0 4 4 0 00-2 0zM204 227zM204 226a2 2 0 011 0h-1z"/><path class="a" d="M205 225h1a1 1 0 00-1 0 1 1 0 00-1 1h1v-1zM205 226a5 5 0 010 1v-1zM204 227c1 0 0 0 0 0h0zM153 198l-1-1a20 20 0 000-2 17 17 0 000 2l1 1zM153 199a1 1 0 000 1v-1l-1-1 1 1zM225 201zM171 225h-1l1 1a1 1 0 001 0l-1-1zM206 226a2 2 0 00-1 0h1zM211 223v-1 1h-1 1a1 1 0 00-1 1l1-1c1 0 0 0 0 0zM212 222h1-1zM208 225s-1 0 0 0h0z"/><path class="a" d="M210 223l1-1h-1v1l-1 1h-1a5 5 0 00-2 1 1 1 0 001-1h2-1 1v-1h1zM206 225l-1 1 1-1s0 1 0 0zM206 226h0zM207 225v1a1 1 0 001-1h-1z"/></svg>