<svg xmlns="http://www.w3.org/2000/svg" viewBox="0 0 380 380"><defs/><defs/><path class="a" d="M156 313v1c0-1 0 0 0 0a2 2 0 010-1zM159 149h-1a3 3 0 00-1 0h3a7 7 0 002 0h-3zM157 314h-1a2 2 0 001 0zM155 313v1h1a1 1 0 01-1-1zM155 311v-1-1 2zM269 314h-1 2-1zM163 149h4a21 21 0 00-4 0zM267 287c-1-1-1 1-1 1a24 24 0 001 3v-8-1-2a38 38 0 010-4 8 8 0 00-1 2l1 9zM312 207v9a2 2 0 010-1l1 2h-1l1 6v-3 2c0 1 0-2 0 0v2h-1l1 11v-3-2-1 9s0-2 0 0v5a29 29 0 001-4v-1-3 1-4l-1 2a13 13 0 010-3c0 2 0 0 1 1v-5a24 24 0 01-1 4 11 11 0 011-3 6 6 0 010-2 11 11 0 000 1v-13-2a24 24 0 00-1-4v-2a14 14 0 000-3l-1 2a16 16 0 000 2zm1 27a9 9 0 010-3v3zm0-19v0zm0 13a6 6 0 010 2v-4-1-1a23 23 0 010 4zm0-8v-2a16 16 0 010-2 16 16 0 000 2v2zm0-5a5 5 0 010-1 15 15 0 010 1zm0-3c0 1 0 1 0 0-1-1 0-1 0 0zm-1-5s0-2 1-1l-1 1c0-1 0-1 0 0zM266 240v-8-2 10z"/><path class="a" d="M266 285a22 22 0 010 3v-3zM316 259a7 7 0 000 2c0-1 0-1 0 0v-3-1-2a19 19 0 010 4zM316 274v5a9 9 0 000 1 8 8 0 010-1v-5zM317 262v-2a20 20 0 000-4 32 32 0 000 4v2zM316 275c0 1 0 1 0 0v-8c0-2 0-2 0 0v8zM316 239v-4 4zM266 297v-6 3a16 16 0 000 5v-2zM314 312v-1-1a11 11 0 000 2 4 4 0 010 1 1 1 0 01-1 1 3 3 0 01-1 0h-1 1a1 1 0 001 0l1-1a3 3 0 000-1zM265 314v-3a5 5 0 000 1v2a2 2 0 001 1 6 6 0 001 1l-1-1a3 3 0 01-1-1zM282 316a8 8 0 003 0 10 10 0 00-3 0zM317 296a17 17 0 000-2v2zM317 216v-5 5zM310 317l2-1h-2v1zM181 149h-7 7zM265 230v2a18 18 0 010-2 8 8 0 000-3v6a5 5 0 000 2v-2-13 10zM266 291v-4 4zM267 267a45 45 0 000 5v-5zM266 264v1a27 27 0 000-5v4zM266 229c1 1 1-1 1-1a21 21 0 01-1-3 7 7 0 000-3v4a34 34 0 010 3zM266 297v0zM202 150a3 3 0 00-1-1l1 1a5 5 0 010 2 2 2 0 000-2zM207 169h-1a4 4 0 000 1v-1a2 2 0 001 0l1-1-1 1zM316 286v-6 1a21 21 0 000 3 5 5 0 000 2zM205 170a2 2 0 01-1 0 1 1 0 000-1v1a1 1 0 001 0zM202 154v-2 4zM222 153a52 52 0 0110-5 9 9 0 002-1 45 45 0 00-9 4l-3 2zM266 246a29 29 0 000-4c0 1 0 1 0 0v-7 1a17 17 0 010 2c0 1 0 1 0 0-1 0 0 0 0 0v-2a2 2 0 000-1v-2-2a20 20 0 010 3 25 25 0 01-1 3l1 9zm0-7a12 12 0 010 2v-2zM199 149h-16 16a9 9 0 002 0 12 12 0 00-2 0zM266 253v0zM266 251a8 8 0 000-2v-3 5zM266 279v-4l-1 3c1-1 1 1 1 1zM266 259v-1 2a37 37 0 000 4v-1a13 13 0 000 1 8 8 0 000 3c0-1 0 0 0 0a13 13 0 010-2s0 1 0 0a3 3 0 010-1v-5zM266 278v0zM202 244v-3a17 17 0 000-3 35 35 0 000 6zM266 254v0zM266 257c0-1 0 0 0 0v0zM266 283v0zM266 272v-1 1zM156 312a2 2 0 000 1v-1zM176 316h1a41 41 0 00-5 0 43 43 0 004 0zM191 315h2-2c-1 0-1 0 0 0zM155 304l1 1a15 15 0 000-1h-1zM155 301a12 12 0 000-2v-1 3zM155 307a6 6 0 001 2c0-1 0-3-1-2zM198 316h-5 5zM199 316a4 4 0 011 0 5 5 0 002 0 2 2 0 001-1 2 2 0 01-1 1h-2-1zM155 161v-3 3zM153 187a4 4 0 000-1 7 7 0 000 3 9 9 0 000-2zM205 292v-5 5zM155 281a6 6 0 000 2v-2zM155 313a6 6 0 000-1v-1-2a9 9 0 00-1 1v1a3 3 0 001 1 3 3 0 00-1 1 1 1 0 001 1 2 2 0 010-1zM316 301v-3 3zM316 303h1c0-2-1 0-1-1a2 2 0 000 1zM155 289v1s0-1 0 0a15 15 0 000 2v-2a18 18 0 000-2v0a11 11 0 000-2v-1 4zM316 314a1 1 0 010 1 2 2 0 01-2 1 6 6 0 01-1 0h0a3 3 0 003-1 4 4 0 001-2h-1a2 2 0 010 1v-1 1zM317 309v-2a2 2 0 01-1 0v-2 5l1-1a12 12 0 01-1 2l1-2zM316 300a7 7 0 000 2 3 3 0 000-2c0 1 0-1 0 0zM316 304s0 1 0 0v-1 1zM155 308v-1 1z"/><path class="a" d="M315 314a3 3 0 001-1 7 7 0 000-1v-3a9 9 0 000 2v1a3 3 0 010 1l-1 1zM154 307a15 15 0 000-4 12 12 0 001-3v-1-1 1-4-1a8 8 0 000-2v-1a4 4 0 01-1 0 5 5 0 010-2l1 2-1-3a3 3 0 000-1v2a20 20 0 010 3l1-1-1 1 1 6-1 3 1-1-1 7zM316 295a8 8 0 000 2v4a17 17 0 001-2 16 16 0 010-3l-1-1v-7 7zM315 297v-4a11 11 0 000 4zM115 112l-1 1c-1 0 0 0 0 0a12 12 0 002-1v-1l-1 1zM109 70h-1a1 1 0 000-1v1h1zM118 107h0zM109 71h0zM108 69h1-1 1-1l-1-1-1-1a1 1 0 000 1h1v1s0-1 0 0h1zM120 103c0-1 0 0 0 0zM121 101v-2 1l-1 2zM120 104l-1 1a3 3 0 001-1zM121 99a7 7 0 000-2 8 8 0 000 2zM118 107v0zM104 68zM103 68c1 0 0 0 0 0h0zM103 68v-1 1zM103 67a1 1 0 011 0h-1zM92 119a5 5 0 00-2 0h-1 1-1v1a1 1 0 010-1h-2 1-1s-1 0 0 0h-1-1l1 1h2a19 19 0 003 0 1 1 0 001 0l1-1h-1zm-5 0zm1 0s0 1 0 0h1v1l-1-1zm2 1h-1 1s0-1 0 0zm0 0s1 0 0 0zm1 0h-1l1-1zm0 0v-1 1zm1-1zM105 68v-1 1zM105 69h1v-1l-1 1zM106 69h1-1zM105 68a1 1 0 00-1-1l1 1c0 1 0 0 0 0zM105 68s0 1 0 0zM105 67c0-1 0 0 0 0h-1 1zM74 116h-1 1zM64 92zM64 86v1l-1 1h1v-2zM64 95v-1-1 2zM64 93v0zM64 93zM64 89a8 8 0 000 2v-1l1-1h-1c-1 0 0 0 0 0 0-1 0 0 0 0h1v-1l-1 1c-1 0 0-1 0 0zm0 1zM64 96v0zM65 98v-1a11 11 0 010 2l1 1v1a11 11 0 01-1-3zM65 101c0 1 0 0 0 0v1h1l-1-1zM66 101l-1-1a2 2 0 000 1h1zM64 97v1c0-1 0 0 0 0v-1zM64 92v-1 1zM65 98c0 1 0 0 0 0h-1 0l1 1v-1zM65 99zM65 100v-1 1zM68 105s-1 0 0 0zM65 95a1 1 0 000-1 4 4 0 000 1zM95 64h-1 1zM95 64a5 5 0 011 0h-1zM96 65h1v-1l-1 1zM122 96v-1a2 2 0 000 1zM122 90a2 2 0 000 1v-1zM122 95v-1 1zM88 64a6 6 0 001 0 3 3 0 00-1 0zM122 85zM65 99zM65 95a2 2 0 000 1v-1z"/><path class="a" d="M65 88a11 11 0 000 2 9 9 0 000-2zM65 88l1-1h-1l1-1-1 1v1zM100 65v-1a2 2 0 001 1 2 2 0 00-1 0zM72 114l1 1v-1h-1s1 0 0 0zM76 116s0-1 0 0a13 13 0 001 0h-1zM75 117h-1v-1 1h1l1 1a2 2 0 010-1h-1zM78 119h-1a1 1 0 011 0s0 1 0 0zM77 119a1 1 0 000-1h-1l1 1s0-1 0 0zM74 116zM74 117l1 1-1-1zM90 124a3 3 0 001 0 7 7 0 00-1 0zM85 122h0zM74 116v-1zM79 120l1 1-1-1zM81 121s0-1 0 0v-1 1h0zM80 120a16 16 0 01-2-1 5 5 0 002 1zM81 121h-1 2-1zM81 69l-1 1 1-1zM68 108v0zM72 114h-1l1 1v-1c0 1 0 0 0 0zM73 113l-1-1a1 1 0 001 1h1v1l-1-1zM73 115c0 1 0 0 0 0-1 0 0 0 0 0h-1 1v0zM70 113l1 1v-1h-1zM75 116h-1 1zM66 104h-1l1 1v-1zM70 190v1a8 8 0 000-3v2zM71 150a6 6 0 001 0h-1zM69 152a5 5 0 011-2l-1 2zM77 148a10 10 0 002 0 10 10 0 00-2 0zM71 311a2 2 0 000 1l1 1a5 5 0 001 0s0 1 0 0h-1a13 13 0 01-1-2zM119 181v-1 1zM78 315h-2 2zM68 153a2 2 0 000 1 4 4 0 010-1v-1 1zM68 168v-3a13 13 0 000 3zM118 313a19 19 0 01-2 2 6 6 0 002-2zM68 300v-1 1zM68 312l1 1-1-1zM68 289v0zM69 292l1 1a9 9 0 010-1h-1zM68 261v-1 1zM68 273l1 2-1-1v1l1-1-1-1zM69 279l-1-2v1l1 1zM69 275l-1 2h1v-2zM68 270v1l1-1h-1zM68 263l1 1-1-1zM69 264l-1 1v-1-1 1a9 9 0 001 2h-1a2 2 0 000 2h1a3 3 0 010-1h-1l1-1v-2zM117 213v-4 4z"/><path class="a" d="M69 277v1a5 5 0 000 1v-4-1a9 9 0 010-2v5zM69 268a10 10 0 000 2 19 19 0 000-2zM69 266v1a6 6 0 000-3v2zM69 250v-1a5 5 0 010-1v-1a2 2 0 000-1v2a8 8 0 010 2zM69 279v1a4 4 0 000 3v-4zM69 276v0zM69 261l-1 1 1-1zM68 282v-1 2h1l-1-1zM69 255v-4-1 5zM68 260v-1-2 3zM68 273v-1 1zM68 257v-1l1-4-1 1v-1h1l-1-2a5 5 0 010 2 6 6 0 010 1v4zm0-3v0zM67 250v1a4 4 0 010-1 2 2 0 001-1h-1v3l1-1v-6l-1 5zM75 315h0zM90 150h1a7 7 0 00-2-1l1 1zM92 150h1-1zM89 150h-1 1zM90 149h2v1c0-1 0 0 0 0v-1a12 12 0 00-2 0zM90 150h0z"/><path class="a" d="M90 149h2a3 3 0 00-2 0 2 2 0 00-2 0h2zM87 150h1-1zM86 316a5 5 0 00-2 0h-1 3s-1 0 0 0zM87 316h-1a2 2 0 011 0h0zM89 150h-1a5 5 0 011 0zM75 316c1 0 0 0 0 0h0zM71 314a5 5 0 002 1l-1-1h-1c-1 0 0 0 0 0s1 1 0 0zM79 316h-1-2 7a9 9 0 01-1 0h-3zM77 316h-1 1c-1 0 0 0 0 0zM117 206a5 5 0 000-2 13 13 0 000 2zM79 317a4 4 0 001 0h-1zM82 314h-4 4zM71 315s0-1 0 0l-1-1-1-1s1 1 0 0a10 10 0 002 2zM74 316l-2-1 1 1-1-1 1 1h1zM118 235a7 7 0 000 2 11 11 0 000-2zM117 229a19 19 0 000-3v3zM114 309v1c0-1 0 0 0 0a11 11 0 01-1 1h0l-1 1h1c-1 0 0 0 0 0l-1 1a1 1 0 010-1 5 5 0 01-1 0h-3a8 8 0 002 0h1l-1 1-1-1h-2 0v1h-1-2a7 7 0 002 0h3a3 3 0 011 0h-1a7 7 0 012 0 6 6 0 01-1 0 3 3 0 011 0h1a5 5 0 003-1v-2h1l-1-1h-1zm-6 4h2-2zm3 0h-1 1a1 1 0 011 0v-1 1h-1zm3-2zm-1 1l1-1-1 1zm1 0s0-1 0 0zm0-1c0-1 1 0 0 0zm0-1l1-1c0 1 0 0 0 0l-1 1zM118 252v-5-1 6zM118 235v0zM117 223v0zM117 194a7 7 0 000 1v-1zM117 216v5a7 7 0 000 2v-5-4 2zM93 316h-4c-1 0 0 0 0 0a39 39 0 004 0zM117 201v3a19 19 0 000-3zM96 316h1-2c-1 0 0 0 0 0h3a4 4 0 01-2 0zM93 150a3 3 0 001 0h-1zM100 149h1-1 2a6 6 0 01-1 0 4 4 0 01-2 0h0a18 18 0 01-2 0h-2 1a16 16 0 00-3 0 3 3 0 001 0 3 3 0 002 0h2a2 2 0 001 0h1z"/><path class="a" d="M96 316h-1-2l3 1a5 5 0 002-1h-2zM96 150h-1 1zM106 316h2-2zM105 150h-1 1zM102 150l1-1h-2l-1 1s1 0 0 0a4 4 0 00-1 0h1a4 4 0 001 0h1c-1 0 0 0 0 0zM164 5a17 17 0 003 0 10 10 0 001 0h7-17 6zM24 7l1-1h4a23 23 0 013-1h10c-1 0-1 0 0 0h10-20a19 19 0 00-3 0 36 36 0 00-7 2 5 5 0 001 0zM90 5h3-5 2zM206 5h-5a26 26 0 00-5 0h10zM195 6h-5 5zM192 7a17 17 0 00-4 0 8 8 0 002 0h2zM188 7a4 4 0 00-2 0c2 0 0 0 0 0h2zM52 6h9-5-4zM184 6h0c1 0 0 0 0 0zM197 7h3-3zM22 8l3-1h2l-3 1h-2l-1 1 1-1zM17 11a7 7 0 011 0 8 8 0 001-1h-1l-1 1-2 1 2-1z"/><path class="a" d="M16 11a19 19 0 00-2 1 19 19 0 00-1 2 20 20 0 00-3 3 35 35 0 016-6zM40 6h-6 6zM55 6h-8s-1 0 0 0h3a40 40 0 008 0h-3zM31 6h2c1 0 0 0 0 0h-5a6 6 0 00-3 1l2-1h2a15 15 0 013 0h-1zM41 6h-4 4zM43 6h2-6 10-6zM374 267v7a44 44 0 000-7zM374 305v-23-7 30zM374 330a52 52 0 000 6v-6zM374 254v0zM374 235v4a18 18 0 000-4zM374 319v-13 13zM9 20a8 8 0 01-1 2l-1 2a17 17 0 000 2 13 13 0 00-1 3v-2h1l-1 2a8 8 0 000 2v-2l1-4a21 21 0 011-3v2a27 27 0 011-3l1-2a18 18 0 001-1h-1l-1 2c0 1 1-2 0 0zM374 346v-8 8zM198 7h1a19 19 0 00-3 0h-7 3a40 40 0 016 0h12-3-9zM374 177v22-18a24 24 0 000-4zM231 7h-7a21 21 0 00-2 0 19 19 0 012 0h7zM254 7a51 51 0 005 0h-14 9zM287 4h6a15 15 0 01-1 0h3a32 32 0 014 0h-1 7-5a27 27 0 015 0 14 14 0 013 0h-2 33a33 33 0 005-1l-4-1h-3l-2 1c-2 0-1 0 0 0h-12a6 6 0 012 0h-4 1-9 4-3c-1 0 2 0 0 0l-3 1V3h-17 7a9 9 0 011 0h-10 2-5s2 0 0 0h-1l-8 1h7zm50-1h3-3zm-12 1h-2 2zm4-1h1-1zm-2 0h-2a12 12 0 012 0zm-8 0a39 39 0 015 0 38 38 0 00-5 1l-3-1h4zm-12 1c1 0-1-1 2-1l2 1a56 56 0 01-7 0 14 14 0 01-3 0l6-1zm-8 0h-5a21 21 0 015 0zM214 7h8-6a13 13 0 00-3 0h1zM230 7h13c2 0 2 0 0 0h-13c-1 0 0 0 0 0zM323 7h8-8zM287 7h7-7z"/><path class="a" d="M256 7a2 2 0 011 0h2 2a48 48 0 01-6 0h1a16 16 0 00-3 0h-2 1-1 5zM374 234v-6 6zM135 375h2c1 0 2 0 0 0h-2zM363 369a23 23 0 003-3 30 30 0 01-2 2l-1 1zM172 6h-4 8-4zM178 7h2a4 4 0 011 0h-1-3a29 29 0 01-3 0h4zM113 6a19 19 0 003 0 25 25 0 00-3 0zM157 374a9 9 0 011 0 14 14 0 012 0h-3 6a8 8 0 001 0h-17-5 1-10a37 37 0 005 0 28 28 0 006 0h3-2 7a20 20 0 004 0h1zM144 375h-2a29 29 0 003 0h-1zM171 375h3a15 15 0 00-3 0z"/><path class="a" d="M166 374h-5-2v1h2c3 0-1-1 2-1a26 26 0 003 0zM156 7a5 5 0 003 0h-2-1zM83 373h-2a124 124 0 002 0z"/><path class="a" d="M374 266a177 177 0 01-1-6v10a43 43 0 010-6v-4c0 1 0 3-1 2a18 18 0 010 2v-23a6 6 0 000-1v-2a7 7 0 000-1v-4a30 30 0 000-3v-4a23 23 0 000 2v-5-5 9c1 1 0-4 1-4a26 26 0 000 4l-1 1v7a10 10 0 011-2v16a18 18 0 010-3 37 37 0 001 4 40 40 0 000 4 67 67 0 00-1-8h1v-12l-1-30 1-2v-9l-1-4s1 2 1 0a32 32 0 01-1-4h1v-10a9 9 0 01-1-1v-13l1-1v-4 1a30 30 0 000-4v-2-3-4-3a5 5 0 000-2c0 1 0 2 0 0v-27-12-3-12a15 15 0 010-3v-1 2a35 35 0 000-5V65v-2-4l-1 1V38v-4-1a13 13 0 010-3v-2a12 12 0 000-1 27 27 0 00-2-4v1-1l-1-2c-1-1 1 3-1-1a4 4 0 000 1 25 25 0 00-22-13H242a4 4 0 002-1h-10 1-1a13 13 0 00-3 0h-2 1-3a29 29 0 00-5 0h-7a2 2 0 011 0h-3a12 12 0 01-1 0h-4a10 10 0 00-2 0h5-19 4-12a22 22 0 004 0h-7a16 16 0 00-3 0 31 31 0 013 0h2-3a6 6 0 00-1 0h-8-5a9 9 0 00-2 0h-2a4 4 0 012 0h-8-15l-4-1c-1 1 2 1 0 1a8 8 0 01-2-1 21 21 0 01-4 0 50 50 0 005 0h-13-1c1 0 2 0 1 1h-4 2a21 21 0 01-4 0h-6a21 21 0 01-3 0c-1-1 5 0 3-1H94a13 13 0 01-2 1h4c-1 0 1 0 0 0h-5s2-1-2-1l1 1a27 27 0 00-5 0 51 51 0 00-8 0h-4l6-1h34a21 21 0 014 0 6 6 0 01-1 0h6-5s-1 0 0 0h6a4 4 0 002 0 16 16 0 002 0h29c-4 0-2 0-1-1h-4-1 11l-6 1h3a11 11 0 011 0h8-1l28-1h2-7s1 0 0 0h-6-4-10l2 1-4-1-4 1a10 10 0 002-1h-7-18 6 3a19 19 0 01-3 0h2a36 36 0 00-5 0h-4l-8 1-3-1a9 9 0 01-3 0 39 39 0 00-4 0h-1l-3 1-2-1h-1 1-4-4s-1 0 0 0h3c-1 0-1 0 0 0h5 8a12 12 0 003 0h18-5-1 1-13s1 0 0 0h-15a14 14 0 012 0h-11-2-1a5 5 0 00-2 0h-9-1a27 27 0 00-3 0h-6 2-6a29 29 0 00-3 0h-9 2-11a35 35 0 004 0 12 12 0 002 1c1-1-2-1 0-1l7 1h-6 2a4 4 0 012 0h-4a33 33 0 005 0l4 1h-3-4a10 10 0 003 0h-4-1a30 30 0 01-4 0 12 12 0 01-1 0h-1-13 3-5-6a21 21 0 01-3 0 17 17 0 003 0h8-8a23 23 0 00-7 1 3 3 0 00-1 0h-1l-2 1-2 1-2 1-1 1a6 6 0 00-1 1 26 26 0 00-5 5 28 28 0 00-3 7s0-1 0 0a13 13 0 00-1 3l1-1v1l-1 1v8a13 13 0 010 2v1a5 5 0 010 2 18 18 0 000 2V34v-3 24a32 32 0 000 5 8 8 0 010 2v-2 28c0 1 0 0 0 0a38 38 0 000 6v-2 19a53 53 0 010 7v-1-3l-1 4v-6-10-9-1-8-1-12a14 14 0 000 3v2a57 57 0 000 6v3a31 31 0 010 4v4l-1-4 1 5-1-1v25a31 31 0 000 3v35c0-1 0 0 0 0v16a30 30 0 000 5v7c0 2 0-1-1-1v7s0-1 0 0v42l1 2v3c0-2 0-4-1-3 0 4 1 1 1 3s-1-1-1 1v28a8 8 0 010-2v-10 52c0-2 0 1 1 0v3a26 26 0 01-1 4v12a16 16 0 010-2v6a17 17 0 000 3v11a6 6 0 010-1v5a12 12 0 000 2 11 11 0 000 2l1 1a9 9 0 000 2c0-1 0 0 0 0l1 1a8 8 0 000 1H5l1 2 1 2 1 1 2 2c0 1-2-1 0 1l1 1 1 1v1a21 21 0 002 1 19 19 0 002 2l1 1h1a1 1 0 010 1 6 6 0 011 0 16 16 0 012 1 12 12 0 00-2-1 28 28 0 004 2h2l2 1h5c1 0-2 0 0 0h41a42 42 0 005 0h10l21 1c-1-1 1-1 1-1a16 16 0 014 0h-2a10 10 0 002-1h-1a128 128 0 00-16-1h-8a20 20 0 00-2 0H64c-2 0 1 1-1 1a6 6 0 00-2 0h-4-2a12 12 0 00-2 0H42a27 27 0 00-4 0h-2-2a16 16 0 00-2 0l-3-1a8 8 0 01-2 0h-1a15 15 0 01-2-1l1 1a6 6 0 012 0h-2l-2-1a9 9 0 01-2-1h-1l-2-1-1-1-1-1a10 10 0 011 1l1 1a26 26 0 01-6-6 60 60 0 01-4-5 11 11 0 001 2 15 15 0 002 2l1 1 1 2-1-2a22 22 0 01-1-1 29 29 0 01-4-7v-2a24 24 0 01-1-3v-1-2-3-1c0-1 0-5-1-4v-2-1-1l1-4a31 31 0 00-1-3v-1l1-1v-2-2a4 4 0 000-1 6 6 0 010 1v0l-1 2v-4a9 9 0 010-1v-13l1-2v-18-4a116 116 0 000-9v-15-1-5-4s0 1 0 0v-1-15-6a17 17 0 010-4v-9-3-2-2a13 13 0 010 2v-2-3-14c0-1 0 1 0 0v-5-8-2 3l1-3v33a6 6 0 010 2 18 18 0 010 2v-3-1-2a20 20 0 000 3v36 14a36 36 0 010-5v-2l-1 3 1 1v21a48 48 0 000 5v20c0-1 0-2 0 0v8s0-1 0 0c0 2 0-1 0 0v2a15 15 0 010 3v-3 17c0 1 0-1 0 0v8a26 26 0 000 6l1 12v-1a24 24 0 003 6l-1-1a28 28 0 002 4c0-1 0-1 0 0h1l1 2a27 27 0 004 3l3 2 1 1-1-1-2-1a13 13 0 01-2-1 11 11 0 01-1-1l1 1-1-2 1 1 1 1a7 7 0 001 0l2 2a20 20 0 002 1 17 17 0 003 1c2 0-2-1 0 0a38 38 0 004 0l2 1c1 0-1 0 0 0h2l-2-1h3s-2 0-1 1h3s-1 0 0 0h9a40 40 0 005 0h-1 4c1-1-3-1-1-1s1 0 1 1h16c2 0-1-1 1-1l2 1a17 17 0 00-2 0h7-1 7v-1h2l-1 1h25a56 56 0 015 0 27 27 0 004 0h-7a62 62 0 019 0 42 42 0 016 0h-5 20-4 15a8 8 0 002 0h4l-3-1 7 1h-5a40 40 0 015 0h16a28 28 0 013 0h5 1a31 31 0 014 0h-7-1c-1 0 2 0 0 0h-5a19 19 0 01-2 0s1 0 0 0l-5 1v-1l-6 1h-3 7a20 20 0 00-3 0c-1 1 3 0 2 1h-3c1-1-1-1-2-1l4 1a11 11 0 012 0c-1-1 2-1 3-1a11 11 0 005 1c-3 0-3-1-1-1l2 1 3-1h-4 6a16 16 0 012 0c-2 0-1 0 0 1h-2 6a27 27 0 003-1l7 1a14 14 0 01-2-1 33 33 0 014 1l20-1 3 1 9-1h24l3 1 5-1 2 1 5-1h12l4 1 4-1h4 2a13 13 0 002 0h50a22 22 0 003-1 19 19 0 003-1 13 13 0 001 0l2-1 1-1a17 17 0 01-2 1 28 28 0 009-7l1-2 1-1 1-1v-1a27 27 0 003-10v-5-21a9 9 0 010-2v-8-1-5-2-1-3a21 21 0 010-4v-15-6-2-5-3zm0-196v6s0-3-1-2l1-1v-3zm0 55l-1 3 1-3zm-1 106v-1 1c0 1 0 0 0 0a24 24 0 010 4v-4zm0 12a30 30 0 010-4 21 21 0 010 4zm0-197v0zm0 173v4a16 16 0 010-4zm0-186h-1c0-3 1-3 1 0zM106 6a29 29 0 004 0 29 29 0 01-4 0zm-9-1h-4a23 23 0 014 0zm-6 1h4-9a35 35 0 015 0zM78 6h6-6zm5-1a80 80 0 01-8 0h8zM7 64a22 22 0 010-3 12 12 0 010 3v1zm-2 99v-3a23 23 0 010 3zm0 81v4a29 29 0 010-4zm0 36l-1 2a13 13 0 000-2c1 0 1-2 1 2v-2zm0 40l-1-1c0-2 1-2 1-1zm92 55h1a14 14 0 01-2 0h1zm-26-1h-6 6zm-32 1h-4a13 13 0 014 0zm-12 0h3a27 27 0 01-5-1l2 1zM6 77v0zm0 8v4a36 36 0 010-5v1zm0 12v0zm0-3l-1 2 1-2zm-1 96v-4a20 20 0 010 4zm0 36a22 22 0 010-4v4zm0-14v0zm1 16v3zm0 62a29 29 0 010 4c0-2 0 1 0 0v-4zm0-92v4a19 19 0 010-4zm0-79v-3-1 4zm0-13v13l-1-1a7 7 0 000 2c0 1 0 0 0 0v-7-2a32 32 0 001-5l-1 6v-4-5a10 10 0 010 1 22 22 0 000-3v-2l1 2a9 9 0 000-2v5a14 14 0 010-2 23 23 0 000 3v-1 2zm0 61v-4 4zm1-72a13 13 0 010 3 23 23 0 010-3zm0 17v-9a38 38 0 010 5v4zm0 7c0 1 0 1 0 0v10a6 6 0 000-1 12 12 0 01-1 5zm0 12v14a7 7 0 000 1v-2 6-10-6-3zm0 24v-3a5 5 0 010 2v14-8-5zm0 17v-4c0 1 0 1 0 0v4zm0 10a48 48 0 010-6c0 1 0 1 0 0v6zm0 2v-4a23 23 0 010 4v-2 2zm0-81a8 8 0 010-3v1a13 13 0 010-2v4zm0 181v-4a29 29 0 010 4zm0-62v-1zm0 13a10 10 0 010 2v-2zm0 7v-3c0-1 0 0 0 0v-1a10 10 0 010 4zm0-125v-4a18 18 0 010 4zm161 257h-3a14 14 0 003 0c3 0 0 0 0 0zm10 0a21 21 0 014-1v1h-4zM108 7h1-1zm96 143v2a14 14 0 000-2zm-49 93a8 8 0 010-1 5 5 0 010-2v3zm0-33a14 14 0 010 3v-3zm-1-4h0zm1 79a12 12 0 010 1l-1-2c0-2 1 0 1 1zm-1-7a8 8 0 010-2v-1a16 16 0 010 3zm0-32a9 9 0 010-2 9 9 0 010 2zm0-38v-2a17 17 0 010 2zm0 37v0zm-1-87v1zm0 56v-5a7 7 0 010-2 19 19 0 010-3v-1-1-4 2-1a20 20 0 000-3v-1a29 29 0 000-5v-7a6 6 0 010-1v-1-21 11a5 5 0 000 2v8a8 8 0 000 1 12 12 0 010 2v2h0l1 3h-1v3a31 31 0 010 5v-2 7a15 15 0 010 2v-2 7a23 23 0 010 3v8a12 12 0 000-2v-3a31 31 0 000 3v-2a6 6 0 000-1zm1 58a4 4 0 01-1-2c0 1 0 1 0 0v-2 4zm-1-19v3c0-1 0 0 0 0a34 34 0 000-3zm0-20l1-2-1 2zm0 64v-3-1a17 17 0 010 3v-2 3zm0-21v-2 2zm5 40h1a8 8 0 01-2 0h1zm4 0a15 15 0 013 0c1 0 3 0 0 0h-2a34 34 0 01-3 0h2zm45-108a17 17 0 00-1 2l1-2zm21-18a8 8 0 01-1 0 10 10 0 00-2 1 13 13 0 013-2v1zm-4 1h1-2a7 7 0 00-1 1 21 21 0 00-2 1h-1a38 38 0 017-3 19 19 0 01-2 1zm9-2a5 5 0 01-1 0h-1 2zm6 0a27 27 0 013 1h2a3 3 0 01-1 0l-4-1c-1 0 1 0 0 0h-5c-1 0 2 0 0 0h5zm-5-1h3-3zm3-1a20 20 0 012 0 18 18 0 01-2 0zm18 10l-3-3-2-1a4 4 0 01-1-1h-1-1 1l-3-1a7 7 0 013 0l3 2a14 14 0 013 2l1 2zm6 8a10 10 0 011 2 10 10 0 01-1-3zm4 9v2l-1-3a3 3 0 011 1zm0 2a9 9 0 010 2 6 6 0 010-2zm-1-6l-1-3a25 25 0 011 6v-3zm0 46v0zm1-2h-1l1-4-1-2h1v6zm0 9v5a34 34 0 000 3h-1a11 11 0 001-3 9 9 0 010-2s0 1 0 0v-1c0-1 0 1 0 0a12 12 0 000-2zm0 15a8 8 0 010-2v-3 1a43 43 0 000 4zm0 1v0a3 3 0 010 1v-1zm0 16v-1-2c0 1 0 0 0 0v3zm7 22l-4-1a4 4 0 01-1 0 2 2 0 01-1 0h-1a9 9 0 010-2 3 3 0 01-1 0h1v1a3 3 0 003 1h4zm1-1h5-5zm3 0c-1 0-1 0 0 0a8 8 0 01-1 1 3 3 0 00-2-1 10 10 0 013 0zm10 0h-1-1l3 1h-4l1-1h-5a87 87 0 017 0zm7 0a7 7 0 002 0h-1 1a8 8 0 002 0v1h2-3-6a9 9 0 012-1l-1 1a16 16 0 002 0l-1-1c-1 0 1 0 0 0h-3a2 2 0 001 0h2zm9 0l-2 1v-1 1l2-1zm-13 0h-1a15 15 0 011 0zm0 1zm-9-1h1l-1 1h-1l1-1zm-15-10l-1 2s0-3 1-2zm0-14a19 19 0 010 3 10 10 0 010-3zm2 24a4 4 0 01-1 0 6 6 0 002 1 4 4 0 01-1 0zm-3-16v-2-1-1a27 27 0 010 4zm1-10v-3 3zm0-7a18 18 0 010 3 16 16 0 010-3zm-1-19l1-2a28 28 0 01-1 4 18 18 0 010 3v-5zm0-12v1-2 1zm-4-49l-1-2-1-1a16 16 0 00-2-2 3 3 0 001 0 6 6 0 01-2-2 30 30 0 016 7h-1zm43 114l-1-1h2v1a16 16 0 012 0zm14-39v1a4 4 0 010-1v-1a12 12 0 010 2v-1zm0-6a33 33 0 010-4zm0 15a5 5 0 010-2zm-1 28a3 3 0 01-1 1l2-1a3 3 0 01-1 0zm-8 2a11 11 0 011 0zm9-116v2-1 71a5 5 0 000 2c0-1 0 0 0 0v2a12 12 0 000 3v5a1 1 0 010-1v2a5 5 0 010 1 17 17 0 000 2v2a27 27 0 000-4v10a20 20 0 000 2 12 12 0 000 2 22 22 0 000 4 9 9 0 000-3v4a6 6 0 000 3 12 12 0 010-3v-1 2a2 2 0 000 1v6a3 3 0 01-1 1 3 3 0 01-1 1l-1 1a5 5 0 011-1 3 3 0 01-2 1h-3l-1-1h-11c-1 0 1 0 0 0h-2a8 8 0 01-2 0 20 20 0 003-1h-6l-2 1h-1 0a17 17 0 00-2 0h2a9 9 0 01-3 0h-1-2a8 8 0 01-3 0h2-11a6 6 0 01-1 0 27 27 0 003 0c-1 0 0 0 0 0h-2-2c1 0 2 0 0 0a5 5 0 01-3-1 8 8 0 010-2v-1-1-3a12 12 0 010 2v2a5 5 0 001 2 3 3 0 003 1h3a389 389 0 0113 0 2 2 0 01-1 0h4-3 25-4c0-1-1-1 1-1h-1l4 1h3a4 4 0 01-1 0h-1a5 5 0 00-2 0h2a5 5 0 011 0 2 2 0 002 0 2 2 0 001-1h-1a2 2 0 001-1v-6-9a11 11 0 00-1-1v3l1 2h-1l1 3c-1-1 0 1-1 3 1-1 1 1 1 1 0 2-1 0-1 1l1 2v0a1 1 0 010 1 3 3 0 00-1 1l-1 1 1-1a2 2 0 01-1 0h-2s-1 0 0 0h-7a33 33 0 00-4 0h5v1a8 8 0 01-2 0 11 11 0 002-1 15 15 0 00-3 1h-3a36 36 0 00-5 0 20 20 0 00-2-1 4 4 0 01-2 1 16 16 0 00-2-1l-1 1h-3-1 1l-3-1-2 1-1-1h3c-1 0-1 0 0 0a23 23 0 002 0h1 1l2 1c1-1-2-1-1-1h3a5 5 0 001 0h5a18 18 0 002 0 48 48 0 005 0 20 20 0 00-3 0c-1 0 0 0 0 0h-18a6 6 0 012 0 20 20 0 01-3 0h-4-1c-2 0 0 0 0 0h-1-1a28 28 0 00-4 0 2 2 0 01-1 0s-1 0 0 0l-1-1v0a2 2 0 010-1v-1-2a12 12 0 000-2v-4 1l-1-3 1 1-1-7a14 14 0 000 3 5 5 0 000 1c0 1 0-1 0 0v2a2 2 0 010 1v-2a13 13 0 000 3l-1 3a17 17 0 000-2v-1-2a4 4 0 000 2v-3a12 12 0 010-3 5 5 0 010-1v-1-3a33 33 0 000-4v-1-3a22 22 0 010-3v-3a8 8 0 000-1 17 17 0 010-3v-2a5 5 0 000-1v-9s0 1 0 0a8 8 0 000-2s0 2 0 0v-6-1a2 2 0 010-1v-2-2a28 28 0 000-3v-3 2a28 28 0 000 2l-1 1v-5l1 1a13 13 0 000-3v-1-1-3l-1-2 1-3-1-3 1-1v-2-2a15 15 0 000-3s0 1 0 0v-2 2a27 27 0 000-5 32 32 0 00-2-7l-2-3s0-1 0 0l1 2-1-3a15 15 0 012 4 22 22 0 011 3 14 14 0 011 3 19 19 0 010 6l1 1v5c0 1 0-1 0 0v8a6 6 0 000-2v-1s0 1 0 0v-3 3a23 23 0 000-4v-2a12 12 0 010-2v-3 2a17 17 0 000-3l1 1-1-4h1a29 29 0 00-5-12 10 10 0 00-1-2v-1a15 15 0 00-3-3 31 31 0 00-8-7 36 36 0 00-7-2h-1v-1a39 39 0 00-5 0h-2a14 14 0 00-2 0h-2l-4 1h-2l-2 1 2-1a17 17 0 01-2 1c-1 0 0 0 0 0h-1l-1 1a18 18 0 00-2 1 35 35 0 00-11 10 32 32 0 00-5 13v2a4 4 0 010 2v-2h-1l1 2h-1v26a29 29 0 000 4v2a19 19 0 000 2v-4-4 18c0-2 0 0 1-1v2a11 11 0 01-1 3v7a7 7 0 010-1v4a7 7 0 000 2v7a2 2 0 010-1v3a14 14 0 000 4v4l1 1a9 9 0 010 1c-1 1-1-1-1 1s0 0 1 1v1h-1v4a1 1 0 010 1 4 4 0 010 1 4 4 0 000-1v7h0a1 1 0 01-1 1h-3l-1 1-4-1-1 1h-3-6a17 17 0 00-4 0h-4l-2-1h-13-1a2 2 0 00-1 0v1a1 1 0 01-1 0h1a2 2 0 00-1 0l1 1h14a8 8 0 002 0h16 4a5 5 0 001 0h7c1 0 0 0 0 0a1 1 0 001 0l1-1v-1a1 1 0 000-1v-1a16 16 0 010-3v1a29 29 0 010-3v-4-3a19 19 0 000-4v-2a52 52 0 000-6v-2 0l-1-3 1-1h-1l1-3a13 13 0 000-2v-3c0 1 0 0 0 0a2 2 0 000-1 2 2 0 010 1 27 27 0 000-4v4h-1a15 15 0 001-2 4 4 0 01-1 0v-9l1-1v-11-3a47 47 0 000-6s0 1 0 0v-10s0 1 0 0v-3-3s0 1 0 0v-5-3-1-1 3a13 13 0 010-3l1-2v-2a6 6 0 011-3v2l1-4 1-1 1-2 1-1-1 1a12 12 0 011-2l1-1c0-1 1-1 0 0a6 6 0 01-1 1l1-2 2-1a34 34 0 017-6s-1 0 0 0l3-1v-1l3-1h3a8 8 0 01-1 0 3 3 0 00-1 0h2a21 21 0 00-7 3 26 26 0 00-9 6v1l1-1 1-1-2 2-1 1a13 13 0 00-1 1l1-1-1 1-1 1 1-1v-1l1-1a5 5 0 00-1 2l-1 1-1 2-1 1v1l-1 1v2l-1 1v2l-1 1v2a38 38 0 000 4 35 35 0 000 4v4s0-1 0 0v3a16 16 0 010 2 14 14 0 010-4v-1 3 13a19 19 0 000 3v13s0-1 0 0a17 17 0 010 2v-2 5s0-1 0 0c0 2 0 0 0 0v1c0 1 0 0 0 0a6 6 0 010 2v-1 10c0 1 0 0 0 0v5a10 10 0 000 4v19a14 14 0 010 1v3c0 2 0-1 0 0a24 24 0 010 4c0 1 0 0 0 0v0a5 5 0 000 1 2 2 0 010 1v-1 1a2 2 0 01-1 1s1 0 0 0a3 3 0 01-2 1 29 29 0 01-2 0 16 16 0 00-3 0s1 0 0 0h-3 1-1c-1 0-1 0 0 0h-11-1 2-4a36 36 0 00-5 0c1 0 1 0 0 0h-1 1-7-10a6 6 0 01-2 0 3 3 0 01-1-1 3 3 0 001 1h2a3 3 0 01-3 0 3 3 0 01-1-2 3 3 0 010-1v-1a6 6 0 010-2v2-2c0-1 0-1 0 0v-5 3-4-3 2a30 30 0 000-3v-1-3 2a34 34 0 000-4 3 3 0 000-2v-2l-1 2 1-5v3a16 16 0 010-2v-6c0-1 0 2 0 0v-2-2a12 12 0 010-2v-4c0 1 0 0 0 0a12 12 0 010-3v5c0 1 0-1 0 0v5l1 3h-1v3l1 3a19 19 0 000-3v-2a8 8 0 000 2l1-2v2l-1 2 1-3a4 4 0 010-1l-1-2a5 5 0 001-3c0 2-1 2-1 1l1-2a18 18 0 01-1-2v-1-1c0 1 0 0 0 0l1 1a27 27 0 000-3 11 11 0 00-1-3l1-4a6 6 0 01-1 1 13 13 0 011-2l-1-13 1-2-1-5a63 63 0 000-7v-2-2-1-1-3l1-2c1-1-1-2-1-3l1-1-1-3v-8-2-3a20 20 0 000-3c0 1 1 0 0 0v-2 1a5 5 0 000-1v-7-3-2-2a11 11 0 000-1v-5-3-1-12-1-7-4a3 3 0 010-1 2 2 0 011-2 3 3 0 011 0h15a4 4 0 011 0h11a12 12 0 002 0 8 8 0 012 0h13a2 2 0 011 0 2 2 0 011 2v5c0-2 1-1 1 0v-4a8 8 0 000-1v-1a3 3 0 010 1v2c0 1 0-1 0 0v2a8 8 0 011-2v16a10 10 0 001-1 6 6 0 001-1 25 25 0 001-2l1-2a12 12 0 00-1 2l2-2a1 1 0 010-1l2-2v1l-3 4 2-2h-1a5 5 0 00-1 1v1c-1 0-1 1 0 0l-1 1-1 1-1 2 1-1-1 1h-1v0-2a12 12 0 00-1-2v-1a8 8 0 010 2l-1-2a24 24 0 000-3 22 22 0 000 3l1 2 1 4h1v-1h1v-1h1l1-1 1-1 1-2 1-1a12 12 0 011-1l2-3h1l1-1 1-2 2-1 1-1a16 16 0 012-2h1l2-1a14 14 0 012-1s-1 0 0 0a11 11 0 012-1l3-1a16 16 0 012-1 3 3 0 011-1 49 49 0 018-1h3a15 15 0 002-1l1 1 2-1 3 1 2-1a2 2 0 001 1s-1 0 0 0a46 46 0 018 0 64 64 0 019 2 51 51 0 017 2l1 1a24 24 0 013 1l4 2a5 5 0 011 1l1 1-1-1a16 16 0 002 2 18 18 0 003 2l2 1 1 2 1 1-1-1 3 2c0 1 0 0 0 0l1 1a57 57 0 017 10l-1-2a12 12 0 011 3l1 1v1a4 4 0 011 1l1 2v2h1v1l1 1a2 2 0 000-1 58 58 0 012 18zm-51 111v-1 3a5 5 0 010-1v-1zm1 1v-2-1a9 9 0 010 1v1a3 3 0 000 1zm3 2h1a12 12 0 01-1 0h-1a3 3 0 01-2 0 5 5 0 002 0h1zm0-1a9 9 0 013 0h-3zm8 1a12 12 0 003 0 12 12 0 01-3 0zm-14-77v-1a9 9 0 011 2 5 5 0 01-1-1zm-1-33l1 2a31 31 0 001 3 22 22 0 00-1-4l1 3a21 21 0 011 4v-1a16 16 0 000 1c0 2 0-1 0 0v0 2l-1-1c0-1 0-1 0 0a14 14 0 000-2 5 5 0 010 1v-2 1l-1-2a12 12 0 000-2l1 3-1-3a29 29 0 00-3-6l1 1-1-1v-1l3 5-2-2a14 14 0 001 1zm3 19v-2a15 15 0 010 2s0-1 0 0zm0 5v-3 3zm0-14v2-1zm0 2v0zm-4-12l-1-2a12 12 0 011 1v1zm-40-15l-3 1-1 1a34 34 0 014-2zm-7 5l-2 2 2-2zm-8 9l1-2-1 2zm-3 6l1-2-1 2zm0 3l1-2-1 2zm0 38a12 12 0 010 3h-1l1-3zm-2-6v1a5 5 0 000-1zm0-21a12 12 0 010-2v2zm1 45v1h-1l1-1zm-1 39v0zm0 5zm-15 2h-4a31 31 0 014 0zm-21-1a6 6 0 011 0h-1zm38-95h1v-1a5 5 0 01-1 3l1-2zm0-1a14 14 0 011-2 5 5 0 010 2zm1 30v-3a12 12 0 010 3zm7-87l-2 2 2-2zm-5 7h-1a11 11 0 01-1 1l2-1zm-3 1a18 18 0 010-2v2zm60-25l2 1-2-1zm31 13v1l2 1-3-2h1zm11 11l1 2-1-2zm5 9c1 1 1 1 0 0zM122 85v-1l-1-1v-1l-1-1s1 0 0 0v-1-1h-1 1v2h1v1c0 1 0 0 0 0v1l1-1v1h-1 1a1 1 0 000 1 10 10 0 001 2v1a30 30 0 011 3l-1-2a5 5 0 000-2h-1v-1zm-2-4v0zm-1 0zm-1-4v-1 1zm-2-1h-1 1c1 0 0 0 0 0zm-1-1h0zm1-1v0zm-3-3l-1-1v1l1-1v1zm-1-1zm-4-3a4 4 0 001 0v1l-1-1h0zm-4-2h-1a1 1 0 011 0zm-1 0h-1s-1 0 0 0h1zm-23 2v-1zm-5 3c0-1 0 0 0 0zm0 0zm-2 1a1 1 0 001 0h-1zm-3 4q0-1 0 0v-1h1l-1 1zm-1 1s0-1 0 0l1-1a1 1 0 01-1 1zm-1 1v1h-1a2 2 0 011 0v-1h0zm1-1h-1 1zm0 1s0 1 0 0zm-2 6l-1 1c0 1 0 0 0 0 1 0 0 0 0 0a2 2 0 010 1v-1 1c-1 0 0 0 0 0h-1l1-1v-1 1l1-1c-1 0 0 0 0 0zm-1 2l-1 1 1-1zm-1 0h0zm1-4a16 16 0 000 1h-1 1s0-1 0 0v-1zm0 2zm1-3l-1 1v-1h1v-1a2 2 0 010-1v2zm-2 4v1-1zm0 1h-1 1zm0-2v-1 1zm0 1v-1a4 4 0 010 1zm-2 7v0zm0 4c0-1 0 0 0 0 1 0 0 0 0 0a2 2 0 000 1v-1zm1 5zm0 1c0-1 0 0 0 0zm0 0v0zm1 3v-1 1zm1 3h1-1zm1 2h1s-1 0 0 0a1 1 0 01-1 1v-1-1a4 4 0 011 1h-1zm1 1a1 1 0 000 1v-1c1 0 0 0 0 0h1l-1 1c1 0 1 0 0 0h1v1l-1-1v-1zm0-1v0zm1 3zm1 1l-1-1h1l-1 1h1zm1 1v0zm27 9zm2-1h1-1zm3-1c1 0 0 0 0 0zm6-3h1-1zm9-8a2 2 0 011-1l-1 1zm-7 207H92l1-1h-3v1l-1-1v1h-1l1-1h-1a3 3 0 00-2 1h-2v-1h-1-1l-1 1a6 6 0 002-1v1h-6l1-1-1 1-1-1v1h-1v-1h1a4 4 0 00-1 0 3 3 0 01-1 0 2 2 0 00-1 0h1v1h-1v-1a8 8 0 01-2 0v-1h-1v-1h-1c1 1 0 0 0 0a8 8 0 01-1-2v-2h-1v-2l1-1h-1l1-1v-1a5 5 0 000 1v-3-1 1a3 3 0 000-1v-1l-1 1a2 2 0 011-1v-1c0-1 0-1 0 0v-1-1-4 0h-1v-1l1-1s0 1 0 0a3 3 0 00-1-1 5 5 0 000-3l1-1a7 7 0 010 2v5a89 89 0 010 6c0 1 0 3 1 2l-1-1h1v1a1 1 0 00-1 1v1a17 17 0 000 3 13 13 0 000 1 6 6 0 000 1 8 8 0 001 2h1l-1-1h0a21 21 0 001 2l-1-1 1 1a5 5 0 001 1 6 6 0 003 1 9 9 0 001 1h3a3 3 0 000-1h-1l-1 1v-1a2 2 0 01-1 0h-1-1-1v-1 1l-1-1h-1 1a6 6 0 01-1-1v-1a8 8 0 010-2v-1a1 1 0 00-1 0 11 11 0 000 1v0a2 2 0 000 1v-2-1a8 8 0 000-2 5 5 0 000-1v-1a4 4 0 000-1 8 8 0 000-1v-1-1-1-1 1a5 5 0 000 2v1h1l-1 1v6a1 1 0 000 1v-2s1 0 0 0h1v-4h-1 1v-4h-1a5 5 0 011-1 10 10 0 00-1-2h0a3 3 0 000-1h1a14 14 0 00-1-3h1v-1h-1v-2h1v-1-1l-1-2v-1-3a3 3 0 000 1v1a15 15 0 010 2v-2c0 2-1 0-1 1v-1a3 3 0 000 2v1a4 4 0 000-1v0h-1l1-1v-1-1a3 3 0 000-1v-2a8 8 0 000-1h-1l1-1h-1v-1-2l1 1a10 10 0 010 2v-4-1a4 4 0 010-1v-1-1-4h-1l1-1h-1a15 15 0 010-3 1 1 0 010-1v-1-1l1-1v6s-1 0 0 0v-8l-1 1a6 6 0 000 2v-2a3 3 0 000-1v-1h1v-1l-1-1v-1-1a16 16 0 000-2v-1h1l-1-1h1l-1-2v-1l1 1v-5a5 5 0 010-2v0a7 7 0 010 2 12 12 0 010 3 10 10 0 010 3 20 20 0 000 2c0 1 0 0 0 0a15 15 0 000 4v-1-1l1 1v-2 2a6 6 0 000-2v-1-1-1-1-1-6a3 3 0 000-1v-1a6 6 0 000-1l1-5v-3l-1-1h1a29 29 0 000-4v-1l-1-1 1-2v1a3 3 0 010-1c0-1 0 0 0 0v-2-13-1-1-5-2-1a29 29 0 000 4v-4-1-2a7 7 0 000-2v-1a5 5 0 000-2 17 17 0 010 2l1 2v-7l-1-1c0 1 0 0 0 0v-1a3 3 0 010-1 34 34 0 000-4 2 2 0 010 1v-2a2 2 0 000-1v-1-1-1c0-1 0 0 0 0v-1a3 3 0 000-2v-2-1-3c0-1 0 0 0 0a1 1 0 010-1v-3c0-1 0 0 0 0v-1a4 4 0 011-2v-1h1v-1h1l1-1h1a3 3 0 011 0h3l6 1 1-1h1-1l1-1h-1a12 12 0 00-4-1h-7a9 9 0 00-1 0 8 8 0 00-2 1s1 0 0 0v1a3 3 0 00-1 0s0 1 0 0l-1 1a9 9 0 00-1 2c0 1 0 0 0 0v2a1 1 0 000 1v1a7 7 0 010 2v3a4 4 0 000 2 20 20 0 010-2 8 8 0 010 1v2a12 12 0 000 3v7c0 1 0 0 0 0a6 6 0 000 1v-1-1a4 4 0 000 1 1 1 0 010 1v4c0-1 0 0 0 0l-1 6a9 9 0 011 1 11 11 0 00-1 3s0-1 0 0a42 42 0 000 4h1l-1 2 1 1h-1a2 2 0 011 1 33 33 0 000 4v-1l-1 3v1s0-1 0 0v4l1-1a6 6 0 01-1 1v0l1 1-1 1v4a5 5 0 000 1v4-1s0 1 0 0a15 15 0 000-3 39 39 0 000-5v-1l-1 2 1-3-1 1 1-1v-1 2s0 1 0 0v-1a5 5 0 000-1v-6a24 24 0 000-4v-1-1h-1v-1h1v-1a3 3 0 010 2v-1-6a4 4 0 000-2 22 22 0 000-4 8 8 0 000-1l-1-1v-1l1 1a21 21 0 000-2v-1l-1 1v-1l1-1v1a8 8 0 000-1v-2l-1 2a15 15 0 000-3c1 1 0-1 1-1h-1v-2s0 1 0 0h1a14 14 0 000-2v1l-1-1v-4l1-2v-1h-1 1v-2-2a13 13 0 010 3h-1v-1-1l1-2h-1a7 7 0 011-2v0l-1 1v-2 1l1-1a4 4 0 010-1v-1l1-1 1-1h-1 1s0-1 0 0a9 9 0 012-2 4 4 0 012 0v-1l1 1h-1s1 0 0 0a11 11 0 012 0 8 8 0 002-1v1h4a27 27 0 014 0 5 5 0 011 0h1a11 11 0 01-2 0 6 6 0 013 0h2-2 2a13 13 0 012 0h-1 4v-1l2 1h-1a8 8 0 002 0h2l-1-1 2 1h-2a4 4 0 012 0h2c1 0 0 0 0 0a9 9 0 012 0h5a17 17 0 01-2 0s1 0 0 0h-1s1 0 0 0h-2l-1 1v-1h-2l-1 1h2a2 2 0 00-1 0l1 1h-1l-1-1 1 1h1l1-1a1 1 0 001 1v-1l1 1a5 5 0 011-1h-2 3c-1 0 0 0 0 0l-1 1a6 6 0 002-1h1a2 2 0 001 1 7 7 0 001 0l-1-1 1 1a7 7 0 013 2 4 4 0 011 1v2a20 20 0 000 2v2c0 1 0 0 0 0a5 5 0 000 1v4a4 4 0 000 1v7a5 5 0 000 2c0-1 0 0 0 0h1-1v4l1 2s-1 0 0 0v1a3 3 0 000 1 10 10 0 000 2v8c0 1 0 1 0 0v16a1 1 0 010 1 12 12 0 010 2v12a12 12 0 010 2 16 16 0 010 2h1a16 16 0 000-2 4 4 0 010-1 4 4 0 010 2s0 1 0 0v1s0-1 0 0a2 2 0 010-1l1 1v8a3 3 0 00-1 1l1 1v0a9 9 0 000 1 6 6 0 000 2l-1-1a20 20 0 000-2v0a10 10 0 000-2v-1a18 18 0 000-3 2 2 0 01-1 0v-1-1a6 6 0 000 2v4a66 66 0 000 9v1a11 11 0 010 3 6 6 0 010 1s0-1 0 0v1a12 12 0 010 3v4a11 11 0 010 2v-1a3 3 0 000 2 9 9 0 000 1v20a3 3 0 000 2v4s0 1 0 0v-1a7 7 0 000 2l1 1v7a1 1 0 01-1 1v2h1v1s0-1 0 0a1 1 0 001 0v9l-1 1a8 8 0 01-8 7zm-21 0a8 8 0 012 0zm-2 0h-1a1 1 0 010-1l1 1zm-4 0h-1a1 1 0 011 0zm-14-2a4 4 0 01-1-1l1 1zm49-127a33 33 0 000-4 2 2 0 000-1v-2 0a10 10 0 000-1v-1a7 7 0 010-3v-2a3 3 0 010-1v-1-1s0-1 0 0a5 5 0 010-2v-3 1a2 2 0 000 1 13 13 0 000 3v0a4 4 0 010 2v3a5 5 0 000 1v-1 2a7 7 0 000 2 30 30 0 000 3v6a1 1 0 000-1zm0 38a4 4 0 010-2v2zm-2-71a1 1 0 011 0l-1 1a3 3 0 000-1zm0 14v1a3 3 0 010-1zm1 3h-1 1zm0-19a1 1 0 010 1 2 2 0 010-1zm0 0v0zm0 18v0zm-8-23h-1a1 1 0 011 0zm6 1c0 1 0 0 0 0l1 2-1-2h-1 1zm3 11v-1 1zm0 35zm-11-48l-1 1 1-1zm-11 1v-1h2v1a4 4 0 01-1 0c-1 0 0 0 0 0h-1zm-11 0h-1a2 2 0 011 0zm-2 0a3 3 0 01-1 0h-1 2zm-17 91v-2 2zm0 23v2a12 12 0 010-2zm0-1v-2-1a17 17 0 000 3zm0 5h1l-1 2h1a8 8 0 000 2l-1-1v-1-1c0-1 0 0 0 0 0-1 0 0 0 0v-1zm0 7a2 2 0 010-1 11 11 0 010-1h1a10 10 0 00-1 2zm1 0v1l-1-1v1l1-1zm0 8h-1v-1c1 0 0 0 0 0l1-1v2zm-1-2a9 9 0 010-2v2zm1 16l-1 2 1-1v-1zm0 7v2c0 1 0 0 0 0 0 1 0 0 0 0v1h-1s0 1 0 0a2 2 0 000 1c0 1 0 0 0 0v1-1a5 5 0 000-1v-2a2 2 0 010 1 4 4 0 000 1v-1h1v-2zm-1 9a1 1 0 000-1 8 8 0 010-1v2zm0-24v-1 1zm0-4a3 3 0 000-1v-1 2zm0 19a2 2 0 010 1zm0-4zm0-6c0 1 0 0 0 0zm0 17v-2 2zm0-6v-1a3 3 0 010 1zm0-1v-2a16 16 0 010-2 18 18 0 010 2v1c0 1 0 0 0 0l1-1-1 2zm0-6v-1 1zm0-2a16 16 0 010-2 3 3 0 010-1v-1 4c0-1 0 0 0 0zm0-13a2 2 0 010-1v1zm0-6v0zm0-9v-1a7 7 0 010 2 4 4 0 010 2v-3zm0-5v-1 1zm0 51a3 3 0 011 0zm2-23v0zm0 2v2l-1 1a14 14 0 011-3zm0 7a3 3 0 01-1-1h1v1zm0-5v0zm0-3a7 7 0 010-2v2zm-2-36v-1a2 2 0 010 1zm0-38l1-1a31 31 0 000 3 2 2 0 010-1l-1 1v-1a4 4 0 000-1zm1 26v-2-1a24 24 0 010 3zm0-8a1 1 0 010-1v4l-1-2h1a6 6 0 000-1zm0-1v-2-2h-1l1-1v1a13 13 0 010-2v3a6 6 0 010 2v1zm0-7v1l-1-1a6 6 0 011-1l-1-1v-2h1v4zm0-5v1h-1l1-1zm-1-3a5 5 0 011 2h-1a7 7 0 010-2zm0 24h1v1l-1-1zm1 2h-1l1-1v1zm1-32l-1 1 1-2zm0 25a3 3 0 010 1h-1l1-1zm0 4v-1-3-1a12 12 0 000 3v-1a6 6 0 000 1v2a18 18 0 000-2v1a12 12 0 010 2v-1 1c0 1 0 0 0 0v1-1 1l-1-1h1a6 6 0 000-1v0l-1-2v2zm0-56a3 3 0 010-1s0-1 0 0v1zm0 18v1-1zm0 4v0zm-1 40v-1a3 3 0 010 1s0-1 0 0zm0 3a11 11 0 010-2v2zm0-6c0-2 0 0 1-1l-1 1zm1 0h-1 1zm-1-21a5 5 0 010-1v1zm1 1v-1h1l-1 1zm0-20v0zm1 11s0-1 0 0l-1 1 1-1zm0-27v-1 1zm0 11v-1a3 3 0 010 1zm0-23v1zm0-18v-2 2zm0-4a2 2 0 000 1v-1zm3-5a4 4 0 011 0 13 13 0 01-1 0zm9 1h-1 1s-1 0 0 0zm-14 55v1a4 4 0 000-1zm0-3v-1a3 3 0 010 1zm0-2c0 1 0 0 0 0l-1 1 1-1zm-1-13h1l-1 1a3 3 0 010-1zm41-38h-2 2zm-5 0h-1 1c1 0 0 0 0 0zm16 147c0 1 0 1 0 0zm0-56v-1 1zm0 52v-1 1zm0-59v0zm-1 3v-1 1zm0 49v-2 2zm0-17v-1 1zM78 120zm0 0l-1-1v1-1h1v1zm-2-1zm-6-6zm-1-1zm-2-2h1zm0-2v-1s-1 0 0 0v1zm0 0h-1 1zm-2-2c1 0 0 0 0 0zm1 1a4 4 0 010-1l-1-1c0 1 0 0 0 0l1 1v1zm-2-6v-1 1zm-1-6v-1 1zm0-2v0zm0 6c1 0 0 0 0 0zm0-1h0zm1 0l-1-1h1-1 1l-1 1zm-1-6zm52-20c0 1 0 0 0 0v0h-1 1zm5 10h-1 1zm4 9zm-4 17a1 1 0 000 1h-1s1 0 0 0v1s-1 0 0 0a4 4 0 000-1l1-1h-1c-1 0 0 0 0 0h1v-2-1l-1 1a5 5 0 010 1 17 17 0 00-2 2v2h-1a2 2 0 010 1h-1s1 0 0 0v1l-1 1-1 1h-1v1q0-1 0 0h-1c-1 0 0 0 0 0v1l-1-1a5 5 0 01-1 1l-1 1a11 11 0 01-2 1s0 1 0 0l-1 1h-1l-2 1h-1l1 1h-3c0 1 0 0 0 0v1-1h-1v0h-1v1a1 1 0 000 1h-4a2 2 0 00-1 0 29 29 0 01-14-4v-1a1 1 0 00-1 0h-1v-1c0-1 0 1 0 0h-1 1c0 1 0 0 0 0l-2-1h-1v-1l-1-1 1 1h-1v-1l-1-1-1-1v-1a3 3 0 00-1 0v-1-1 1a13 13 0 010-1l-1-1v-1h-1a15 15 0 01-1-2s0 1 0 0v-1 1l-1-1v-1-1l1 1v1l1 1v1l1 1 1 1-1-1 1 1 1 1a6 6 0 001 2h1l-1-1h0a3 3 0 011 1h-1 1v1a6 6 0 002 1 9 9 0 011 1l-1-1v-1h-1-1v-1l-1-1v-1 1l-1-1a3 3 0 000-1h-1v-1c1 0 0 0 0 0v-1h-1 1c-1 0 0 0 0 0v1c0-1 0-1 0 0h1l-1 1h1v1h1c-1 0-1 0 0 0a4 4 0 01-1-1v-1l-1-1a2 2 0 00-1-1v-1h-1l1-1h-1s0 1 0 0v-1q0 1 0 0v-1h-1c0-1 0 0 0 0v-2 1a5 5 0 010 1l-1-1v2l-1-1h1l-1-1c-1 0 0 0 0 0a4 4 0 000-1v-1 0h-1 1l-1-1h1a2 2 0 010 1v-2a3 3 0 01-1-1h1l-1-2v-1a2 2 0 010-1v-1-1 3l1-3h-1a1 1 0 000 1 4 4 0 000-1v-1h1l-1-1v-1c0-1 0 0 0 0l1-1v-1l1-1v-1a1 1 0 010-1h1l-1 1 1-1-1 1v2a4 4 0 000 1v1a1 1 0 00-1 0v1h1l-1-1 1 1v-1-1-1l1 1v-1 0l1-2v-1c0-1 0 0 0 0l1-1 1-1a9 9 0 010-1l1-2h1a1 1 0 000-1h1c1 0 0 0 0 0a8 8 0 010-1 20 20 0 012-2l2-1v-1 0h1l1-1h1l-1 1a12 12 0 012-1v-1c0-1 0 0 0 0a3 3 0 011 0l1-1c0 1 0 0 0 0a3 3 0 010 1h-1a12 12 0 011 0h1a4 4 0 000-1h1c-1 0 0 0 0 0v-1a1 1 0 011 1l1-1h2v-1l1 1v-1 1h1v-1h2a11 11 0 011 0 9 9 0 012 0 2 2 0 001 0h1a1 1 0 000 1h2c1 0 0 0 0 0h1c1 0 0 0 0 0h1a5 5 0 011 1h1v-1a2 2 0 00-1-1l-1-1h-1-1-2-3s1 0 0 0h-1-1 1-1-1a5 5 0 01-1 0h1a3 3 0 01-1 0h-1a2 2 0 00-1 0l-1 1h-1-1 1a1 1 0 00-1 0 9 9 0 00-2 1v-1a11 11 0 00-1 1h-1a2 2 0 01-1 0 2 2 0 00-1 1l-1 1h-1v1s0-1 0 0h-1l-1 1s0-1 0 0h-1v1a8 8 0 00-1 0v1s0-1 0 0h-1 1c-1 0 0 0 0 0h-1l-1 2h-1v1h-1a3 3 0 001-1 8 8 0 002-2h-1l1-1v1l1-1c1 0 0 0 0 0l2-1 1-2c0 1 0 0 0 0a2 2 0 011-1 1 1 0 010 1s-1 0 0 0l2-2h1l1-1h1v-1h1l-1 1a4 4 0 001-1s0 1 0 0h2-1a4 4 0 001 0h1v-1h4v-1 1h1v-1h1v0a1 1 0 011 1v-1h1v1h2v-1 1c0 1 0 0 0 0h1a2 2 0 011 0h1-1s1 0 0 0h2l2 1c-1 0 0 0 0 0a4 4 0 011 1h1a1 1 0 011 0l1 1c0 1 0-1 0 0 1 0 0 0 0 0h1a6 6 0 011 1s0-1 0 0h1l1 1-1-1a1 1 0 010 1h1a2 2 0 011 1h1v1h-1v-1h-1l-1-1v2 0h1s-1 0 0 0h1v1c0-1 0 0 0 0h-1 2v1l2 2 1 1 1 1v1c0 1 0 0 0 0h1a3 3 0 000 1l1 1v1l1 1a1 1 0 000 1l1 1v2h1v4a5 5 0 011 2v5a2 2 0 01-1 1h1v1h-1v3l-1 1v2l1-1c0 1 0 0 0 0 0 1 0 1 0 0v1h-1 1a25 25 0 01-1 2v1zm-1 0c-1 0 0 0 0 0zm1-1c-1 0 0 0 0 0zm-54-3l1 1-1-1zm1 1v0zm0-2v0zm1 3v-1 1zm0 2v-1 1zm-5-19zm2-2s0-1 0 0v-1 1zm-1 1l1-1-1 1zm6-10zm2-3v1-1zm0-1s0-1 0 0zm2-1c-1 0 0 0 0 0zm1-2c-1 0 0 0 0 0zm0 1v1-1zm2-1zm4-2s-1 0 0 0zm1-2h-1 1zm3 0zm7-1h0zm2 0zm3-1a2 2 0 011 0h-1zm4 2zm10 4v-1 1zm-2-1h0zm12 34h0zm3-12zm-1-84zM88 8h-1a17 17 0 012-1h-1zm153 0h-6 6zm-15-1h1-3a9 9 0 012 0zm-12 0h-3a13 13 0 013 0zm-50 0a15 15 0 014 0h-4zm-9 0h-2l2 1zm-8 0h3a8 8 0 00-1 0h-4-2 4zm-7 0h1a16 16 0 012 0h-3zm-15-1l2 1a6 6 0 013-1c1 1-2 1-2 1a17 17 0 004 0c1 0 0 0 0 0h1a19 19 0 003 0c2 0-2 0 0 0a11 11 0 013 1h-5l-2-1v1h-2V7h-5a23 23 0 013 0h-2 2c-1 0 1 0 0 0h-5a5 5 0 002-1zm-4 1h1-1zm-6 0h5l-1 1h-3l-2-1h0-7 8zM98 7h8-8zm4 0h1a19 19 0 01-2 0 7 7 0 00-3 0 24 24 0 014 0zM85 7h9 3-7a34 34 0 01-4 0h-1zM70 7h0zM60 7h-6 6zM48 7h5a24 24 0 01-5 0zm-1 0h5a18 18 0 01-2 0h-2-1zm-2 0h-5 5zm-6 0a39 39 0 01-6 0 46 46 0 016 0zM27 7h3l-3 1a8 8 0 012-1h-2zm-8 4l1-1 2-1a17 17 0 012-1h2l-4 2 2-2a16 16 0 00-2 1l-2 1-1 1c-1 0 1 0 0 0zM9 22a21 21 0 012-4l1-1a20 20 0 012-2l2-2v1l-2 1a9 9 0 000 1 10 10 0 00-1 1c-1 1-1 0 0 0l-2 2c-1 1 0 0 0 0l-1 2c-1 1 0-1 0 0a6 6 0 01-1 1 5 5 0 000 2v-2zm1 0a14 14 0 011-2v-1a16 16 0 012-2 8 8 0 011-1 25 25 0 00-3 4l-1 1v1a10 10 0 00-1 1l-1 2a31 31 0 012-3zM7 48V38v-1 11zm0-15v-1-2a2 2 0 011-1 11 11 0 000 2l-1 2zm0 8v-1 1zm96 332h1a36 36 0 01-4 0c-2 0-4 0 0 0h2l1-1 5 1h-4zm9 0h-3a18 18 0 013-1v1zm37 0l3-1h-4-1 6l1 1a42 42 0 01-4 0zm33-1h0zm6 1a9 9 0 012 0v-1l4 1h-6zm23 0h-4l6-1-1 1h6-7zm15 0h3-3zm2 1a21 21 0 014-1 21 21 0 01-4 1zm4 0a19 19 0 013 0h-1a12 12 0 013 0h-4zm20-1h-4 4zm32 1a35 35 0 01-4 0h4zm6 0h1zm2 0l-3-1 3 1zm63-3a28 28 0 01-9 1 12 12 0 00-2 0h-13a21 21 0 00-2 1l-3-1-4 1h1-5s1 0 0 0h-4a11 11 0 00-1 0h-7-2c-1 0 0 0 0 0h-9 1-7-8s-14 0-11-1a29 29 0 003 1l4-1h-5a18 18 0 014 0 12 12 0 001 0h9a17 17 0 013 0 46 46 0 015 0h53a25 25 0 0014-4 25 25 0 01-6 3zm7-4l-1 1zm0 0zm2-2l1-1-1 1zm8-95v-5a44 44 0 010 5z"/><path class="a" d="M57 374h3v-1l-3 1zM321 373h-1a9 9 0 002-1 17 17 0 00-3 1 23 23 0 002 0zM7 348v-2a27 27 0 001 9 40 40 0 01-1-4 17 17 0 010-3zM171 7h-3 1a14 14 0 00-3 0h-5 10zM44 373a27 27 0 00-5 0h7a11 11 0 01-2 0zM48 373zM82 7h-4-1 5zM130 375h3a15 15 0 00-3 0zM6 38v-1 1zM8 20l-1 2-1 3v2a12 12 0 000 2 31 31 0 011-7l1-2zM6 76V60L5 73l1 3zM5 84a17 17 0 000 4l1-5-1-6v7zM6 43a19 19 0 000 3v-3zM7 63v13a19 19 0 000 4v-2-5-2a11 11 0 000-3v-5zM6 32a7 7 0 000-1v1z"/><path class="a" d="M6 51v6c0 1 0 0 0 0v5a2 2 0 010 2v2a5 5 0 000 2 6 6 0 000 3v3a48 48 0 010-5c0 1 0 1 0 0v-5-13zm0 10a29 29 0 010-3v3zM6 40v0zM4 274a43 43 0 000-5 87 87 0 000 10v-5zM123 375h-3 3zM123 374h5-5zM130 374a16 16 0 012 0h-6 5-1zM120 375a23 23 0 00-2 0h-1 2 1zM114 375h2-2s1 0 0 0z"/><path class="a" d="M127 374h3a30 30 0 00-6 0 23 23 0 00-5 0h6a8 8 0 012 0zM121 374h-5 5z"/></svg>