<svg xmlns="http://www.w3.org/2000/svg" viewBox="0 0 380 380"><defs/><defs/><path class="a" d="M271 200zM252 176c0 1 0 0 0 0zM299 200l-1-1a3 3 0 000-1v-1l-1-2v-1a10 10 0 010-1v-1l-1-2-1-2-1-1s1 0 0 0v-1l-1-1a4 4 0 000-1h-1v-1 1c0 1 0 0 0 0h-1l1-1h-1v1a14 14 0 00-1-2h-1v-1h-1v-1a4 4 0 001 1v-1 1h1v1h1c1 0 0 0 0 0a4 4 0 010-1 4 4 0 01-1 0 6 6 0 00-2-2v-1a2 2 0 01-1 0v-1h-1 1l-1-1h-1v-1h-1-1v-1l-3-1-1-1s-1 0 0 0h-1-1l-1-1h-1 1-1a16 16 0 00-2 0h-1-1v1a28 28 0 00-3 0h-2a27 27 0 00-8 2v-1l-1 1h-1a1 1 0 000 1h-1-1c-1 0 0 0 0 0h1l-1 1h-1s1 0 0 0v1l-1-1h1l-1 1c0-1 0 0 0 0h-1v1c0-1 0 0 0 0h-1-1v1h-1s1 0 0 0l-1 1c0 1 0 0 0 0v1c0 1 0 0 0 0h-1c-1 0 1 0 0 0l-1 1h1v1h-1v1h-1v-1h1v-1a11 11 0 011-2l1-1-1 1 1-1 1-1a8 8 0 001-1h-1a2 2 0 011-1v1h1a3 3 0 000-1 18 18 0 012-2l-1 1c0-1 0 0 0 0h-1s1 0 0 0v1c0-1 0 0 0 0h-1a5 5 0 00-1 1h-1a5 5 0 011 0v1l-1 1h-1v1c0 1 0 0 0 0h-1c1 0 0 0 0 0h1v-1c0 1-1 0 0 0h1v-1l1-1h-1c-1 0 0 0 0 0v1a5 5 0 01-1 0s1 0 0 0l-1 2v-1 1h-1l1 1c0 1 0 0 0 0h-1v1h-1 0v2c-1 0 0 0 0 0l-1 1h1s-1 0 0 0v-1 1c0-1 0 0 0 0v-1 1l1-1v1h-1v3a1 1 0 010-1l-1 1v1a7 7 0 00-1 2v2c0 1 0 0 0 0l-1 1a20 20 0 011-2v-1a4 4 0 000 1l-1 1v1h1v-1 1l-1 1v-1 3c-1 0 0 0 0 0h-1v1h0a7 7 0 000 1v1a2 2 0 011-1v1s0-1 0 0h-2a1 1 0 011-1v-1a4 4 0 000-1v-1l-1 1v2h-1l1 1h-1v1h1a4 4 0 001 0h1a17 17 0 002 0 13 13 0 012 0h2v1a1 1 0 001 0v-1h1l-1 1h1c0 1 0 0 0 0h5c0-1 0-1 0 0h3-1a8 8 0 011 0h1a1 1 0 001 0h1a2 2 0 01-1 0h-1 3a1 1 0 011 0h2c1 0 0 0 0 0h3s-1 0 0 0h1c1 0-1 0 0 0 0 0 0-1 0 0a7 7 0 011 0v-1 1a6 6 0 012 0h3c1 0 0 0 0 0h3v-1-1h-3a12 12 0 01-2 0h-1-1-1-1 1-1-1 1a3 3 0 01-1 0h-1 1-1-2 1l-1 1v-1 0h-1a1 1 0 00-1 0h1v0l-1 1a8 8 0 00-1 0v-1a10 10 0 00-2 0 1 1 0 00-1 0h-2-1-1-1a5 5 0 00-1 0h-3s1 0 0 0h-1v-1a2 2 0 001 0 4 4 0 002 0h-1 1a1 1 0 001 0h4s-1 0 0 0a13 13 0 002 0h3s-1 0 0 0l1-1v1a2 2 0 001 0h4c1 0 0 0 0 0h1c1 0 0 0 0 0 1 0 0 0 0 0a1 1 0 011 0h1s-1 0 0 0h2a1 1 0 011 0h3c1 0 0 0 0 0h1a1 1 0 011 0h1-1 2a4 4 0 011 0h-1 3a2 2 0 001 0h1c-1 0 0 0 0 0h-1l1 1-1-1v1h-1-1 1v1h-1c1 0 0 0 0 0h2c-1 0-1 0 0 0v-1 1h1-1 2a11 11 0 002 0h4a4 4 0 001 0h1c1 0 0 0 0 0a16 16 0 002 0h1c1 0 0 0 0 0a1 1 0 001 0v-1 1h2v-1zm-9-18c0-1 0 0 0 0zm0-2v1c0 1 0 0 0 0v-1zm-1 0zm-43 0v1-1zm-3 3l1-1-1 1zm2-1s0-1 0 0h-1 1zm0-1h-1 1zm-1 2v-1 1zm-3 12v-1 1zm-2 3zm0 1c1-1 1 0 0 0v-1zm1 0h-1 1zm-1-3v1a1 1 0 010-1zm0 2v-1 1-1zm0 1h-1 1zm-1 0zm1 2c1 0 0 0 0 0h-1 0v-1 1h-1a1 1 0 011-1h-1 1v-1 1a2 2 0 001 0h-1v1h2-1zm1-1a1 1 0 01-1 0h1zm35 2c0-1-1 0 0 0h-1l1-1zm-3-2h-1a1 1 0 011 0zm-3 2h-1 1zm-1 0h-1 1zm-7-1v0zm-2-1h-1 1zm-1 1l-1 1h0l1-1zm-4 0v0zm-1-1h-1s1 0 0 0zm-1 1zm-1 0zm-1-1h-1 1zm-2 1h1-1zm34 0l-1-1h1v1zm1-1zm8-16h1-1zm4 9zm-53-3v0zm4-7zm1-1h-1v-1l1 1zm0-1zm1-1zm34-6l-1-1 1 1zm-5-3h-1 1zm-3 0s-1 0 0 0zm-2 0zm-14 2l-1 1a1 1 0 011-1zm-2 1s1 0 0 0zm-1 0v1zm-4 3zm-2 1l1 1v-1 1h-1v-1zm0 1zm-1 0h1v1h-1v-1zm0 1h-1 1zm-1 0h1v1h-1a2 2 0 010-1zm-1 2l1-1h-1v1zm0 0a4 4 0 010 1 5 5 0 010-1zm-1 2s0 1 0 0zm-1 1v0zm0 1zm-1 0h0s1 0 0 0zm0 1h1-1zm0 0v0zm-1 1h1-1zm0 0v0zm-1 2h1v-1 1h-1zm1 1l-1 1 1-1zm-1 2v-1 1s0-1 0 0zm0-1zm0 7zm1 1h-2l1-1a1 1 0 001 0v1zm1-1a1 1 0 01-1 1v-1h1zm2 2zm1-1s-1 0 0 0zm-1 0v-1h-1a1 1 0 011 0 3 3 0 011 0l-1 1zm2-1h-1 1zm0 0h1a1 1 0 01-1 0zm0 1l1-1h1l-2 1zm5-1zm1 0zm0 0h1zm5 0h-1 1zm17 0h0zm1 0zm4 0zm3 0zm1 0c0 1 0 0 0 0zm2 0h0zm2 1zm0 0zm0 1v-1l1 1h-1zm2-2zm4 2h0zm1-1s1 0 0 0zm1 1v-1 1zm1-3v1h-1c1 1 0 0 0 0h-1-1-1-1 1c1 0 0 0 0 0a2 2 0 001 0h1c1 0 0 0 0 0s1 0 0 0c1 0 0 0 0 0h1v-1-1l-1-3 1 1v1a4 4 0 000 1v1h1z"/><path class="a" d="M251 177c0-1 0 0 0 0v-1 1h-1 1zM273 199a1 1 0 001 0h-1zM252 175zM264 199a4 4 0 001 0 1 1 0 00-1 0zM297 198a1 1 0 00-1 0 1 1 0 001 1v-1zM269 199s1 1 0 0zM270 199zM297 193v1a2 2 0 000-1zM293 183v0zM295 187a5 5 0 000 1 6 6 0 000-1zM295 187l-1-1v-2h-1a13 13 0 011 1l1 2zM296 190a1 1 0 000-1v1zM250 178v-1zM296 190v0zM247 180zM292 182a2 2 0 001 1 12 12 0 00-1-1zM251 176s-1 0 0 0zM245 183c0-1 0 0 0 0zM291 181v-1 1zM243 185v-1 1zM241 188v0zM242 187h-1v1l1-1zM241 190h-1v1h1l-1-1h1v-1h-1v1h1zM258 173h-2a5 5 0 002 0s0-1 0 0zM240 195v-1 2l-1 2 1-2v-1 0zM242 187v-1 1zM242 186v0zM240 192zM240 192v0zM240 189a1 1 0 000-1v1zM240 190zM240 191v0zM239 196h-1a12 12 0 001-2 12 12 0 00-1 2h1zM240 191zM291 180h-1 1zM242 186a2 2 0 000-1h0v1z"/><path class="a" d="M242 187l1-1h-1c-1 0 0 0 0 0v1z"/><path class="a" d="M241 186h1v-1l-1 2v1a6 6 0 010-2zM255 174a1 1 0 01-1 0v1h-1s0 1 0 0h1l1-1zM242 188h-1 1zM282 201zM253 175zM253 175v0s-1 0 0 0zM252 175l1-1-1 1zM244 181s0 1 0 0zM253 173l-1 1a10 10 0 001-1zM250 175l-1 1a1 1 0 000-1h1v-1 1zM239 195v1c0-1 0 0 0 0v-1h1v-2l-1 1h0v1h0zm0-1c1 0 0 0 0 0zM276 202v-1 1zM288 178a18 18 0 00-2-2l1 1 1 1zM281 201h1-1-1 1zM278 200h1v0l1 1h-1 2a3 3 0 010-1v0h-1 0v1l-1-1h-1zM278 201h-1 1zM278 201zM277 201h1c1 0 0 0 0 0a1 1 0 00-1 0zM277 201s-1 0 0 0zM277 201c0 1 0 1 0 0zM277 202v-1 1zM279 201h0z"/><path class="a" d="M277 200v1l1-1c1 0 0 1 0 0h-1zM259 173h-1 1c0-1 0 0 0 0zM238 198v-1c0-1 0 0 0 0v1zM262 168h1s0-1 0 0h-1-1s1 0 0 0v1h1c0-1 1 0 0 0v-1h1v0h1a1 1 0 00-1 0h4l1-1-1-1v1a4 4 0 00-2 0h-1 1-1v1c-1 0 0 0 0 0a1 1 0 010-1l-2 1zm0 0h1-1zm5-1zm-1 0zm0 0zm0 1h-1 1zm-1-1v0zm-1 0v1h-1 1v-1zM257 202h-1 1zM255 174h1l-1-1v1zM257 173h-1a1 1 0 010 1l1-1zM262 171h1-1zM279 201h-1 1zM259 172h-1v1a2 2 0 011-1zM41 6h-4 4zM55 6h-8s1 0 0 0h4a40 40 0 007 0h-3zM374 234v-6 6zM374 267v7a44 44 0 000-7zM41 6h-7 7zM31 6h2c1 0 1 0 0 0h-2-3a6 6 0 00-2 1l2-1h1a15 15 0 013 0h-1zM43 6h3-7 10-6zM52 6h9-5-4zM374 319v-13 13zM123 374h6-6zM123 375h-3 3zM130 374a16 16 0 012 0h-6 5-1zM121 374h-4 4zM120 375a23 23 0 00-2 0h-1 3zM130 375h3a15 15 0 00-3 0z"/><path class="a" d="M127 374h3a30 30 0 00-6 0 23 23 0 00-5 0h6a8 8 0 012 0zM166 374h-5-2v1h2c3 0-1-1 2-1a26 26 0 003 0zM171 375h3a15 15 0 00-3 0zM363 369a23 23 0 003-3 30 30 0 01-2 2l-1 1zM135 375h2c1 0 2 0 0 0h-2z"/><path class="a" d="M157 374a9 9 0 011 0 14 14 0 012 0h-2 5a8 8 0 001 0h-17-5 1-10a37 37 0 005 0 28 28 0 006 0h3-2 8a20 20 0 003 0h1zM144 375h-2a29 29 0 004 0h-2zM6 32a7 7 0 000-1v1zM23 8l2-1h3l-4 1h-2l-1 1 2-1zM7 63v13a19 19 0 000 4v-2-5-2a11 11 0 000-3v-5z"/><path class="a" d="M6 51v6c0 1 0 0 0 0v5a2 2 0 010 2v2a5 5 0 000 2 6 6 0 000 3v3a48 48 0 010-5c0 1 0 1 0 0l1-5-1-13zm0 10a29 29 0 010-3v3zM115 375h2-2s1 0 0 0zM9 20a8 8 0 01-1 2l-1 2a17 17 0 000 2 13 13 0 00-1 3l1-2c1-1 0 0 0 0l-1 2a8 8 0 000 2v1l1-3v-4a21 21 0 011-3v2a27 27 0 011-3l1-2a18 18 0 001-1v-1l-2 3c0 1 1-2 0 0zM17 11a7 7 0 011 0 8 8 0 001-1h-1l-1 1-1 1 1-1zM6 43a19 19 0 000 3v-3zM6 84a17 17 0 000 4v-5-6c-1-1-1 2-1 2l1 5zM6 38v-1 1zM6 76v-4-12 16zM4 274a43 43 0 000-5 87 87 0 000 10v-5zM6 40v0z"/><path class="a" d="M9 20l-1 2-1 3-1 2a12 12 0 000 2 31 31 0 012-7l1-2zM16 11a19 19 0 00-1 1 19 19 0 00-2 2 20 20 0 00-3 3 35 35 0 016-6zM321 373a9 9 0 002-1 17 17 0 00-4 1 23 23 0 002 0zM199 7a19 19 0 00-3 0h-7 3a40 40 0 016 0h13-4-8zM189 7a4 4 0 00-2 0c1 0-1 0 0 0h2zM197 7h3-3z"/><path class="a" d="M192 7a17 17 0 00-3 0 8 8 0 001 0h2zM57 374h3s2-1 0-1l-3 1zM48 373zM83 373h-2a124 124 0 002 0zM44 373a27 27 0 00-5 0h7a11 11 0 01-2 0z"/><path class="a" d="M374 266a177 177 0 01-1-6v10a43 43 0 010-6v-4 2a18 18 0 010 2l-1-2v-21a6 6 0 000-1v-2a7 7 0 000-1v-4a30 30 0 000-3v-4a23 23 0 000 2v-5-5c0 1 1-1 1 1v4a26 26 0 000 4v8a10 10 0 010-2v16a18 18 0 011-3 37 37 0 000 4 40 40 0 000 4 67 67 0 000-8v-12-32-9-4s0 2 0 0a32 32 0 010-4v-10a9 9 0 010-1v-14-4 1a30 30 0 000-4v-2-3-4-3a5 5 0 000-2c0 1 0 2 0 0v-27-12-3-12a15 15 0 010-3v-1 2a35 35 0 000-5V65v-2-4l-1 1V38v-4-1a13 13 0 010-3v-2a12 12 0 000-1 27 27 0 00-1-4v1l-1-1v-2c-1-1 0 3-2-1a4 4 0 001 1 25 25 0 00-23-13H242a4 4 0 002-1h-10 2-2a13 13 0 00-3 0c1 0 0 0 0 0h-2 1-3a29 29 0 00-5 0h-7a2 2 0 011 0h-2a12 12 0 01-2 0h-3a10 10 0 00-3 0h5-19 4-6-6a22 22 0 004 0h-7a16 16 0 00-3 0 31 31 0 013 0h2-3a6 6 0 00-1 0h-8-5a9 9 0 00-2 0h-2a4 4 0 012 0h-8-15l-4-1c-1 1 2 1 0 1a8 8 0 01-2-1 21 21 0 01-4 0 50 50 0 005 0h-14l2 1h-2l-3-1 3 1a21 21 0 01-5 0h-5a21 21 0 01-4 0c-1-1 5 0 3-1H94a13 13 0 01-2 1h4c-1 0 1 0 0 0h-5c1 0 2-1-1-1v1a27 27 0 00-5 0 51 51 0 00-8 0l-4-1h41a21 21 0 013 0 6 6 0 01-1 0h6-5 6a4 4 0 002 0 16 16 0 003 0h28c-4 0-2 0-1-1h-5 12l-7 1h3a11 11 0 011 0h8s-1 0 0 0l27-1h2-7s1 0 0 0h-6-4-10l2 1-4-1-4 1a10 10 0 002-1h-7-18 6 3a19 19 0 01-3 0h2a36 36 0 00-5 0h-3l-9 1-3-1a9 9 0 01-2 0 39 39 0 00-5 0s1 0 0 0l-4 1-1-1h-2 2-5-4 4-1 6 7a12 12 0 003 0h18-6 2-14s1 0 0 0h-15a14 14 0 012 0h-10-2c-2 0 1 0 0 0h-2a5 5 0 00-2 0H88a27 27 0 00-3 0h-5 1-6a29 29 0 00-3 0h-5s1 0 0 0H53a35 35 0 004 0 12 12 0 002 1V5l7 1h-5 2a4 4 0 011 0h-3a33 33 0 005 0l3 1h-3-4a10 10 0 003 0h-4-1a30 30 0 01-4 0 12 12 0 01-1 0h-1-12 2-4-7a21 21 0 01-3 0 17 17 0 003 0h8-8a23 23 0 00-7 1 3 3 0 00-1 0h-1l-2 1-2 1-1 1-2 1a6 6 0 00-1 1 26 26 0 00-5 5 28 28 0 00-3 7s1-1 0 0a13 13 0 000 3v-1 1l-1 1v8a13 13 0 010 2v1a5 5 0 010 2 18 18 0 000 2V34v-3 19l1-1v6a32 32 0 000 5 8 8 0 01-1 2v-2 8c1-1 1 1 1 3l-1 4 1 6c-1-1-1 0-1 2v5c0 1 0 0 0 0a38 38 0 000 6v-2 19a53 53 0 010 7v-1-3l-1 4 1-6V93v-1-8c0-1-1 1-1-1l1-12a14 14 0 00-1 3l1 2-1-1v1a57 57 0 000 6v3a31 31 0 010 4v-3 8l-1-1 1 6c-1 0 0-2-1-1v20a31 31 0 000 3v35c0-1 0 0 0 0v16a30 30 0 000 5v13s0-1 0 0v44 22H4v7l1 3a8 8 0 01-1-2v-10 16c1 1 1-2 1 1l-1 1v4l1 2-1 6v-5 27c0-2 1 1 1 0v3a26 26 0 01-1 4v12a16 16 0 010-2l1 6a17 17 0 00-1 3v11a6 6 0 010-1c0 3 1 0 1 1v4a12 12 0 00-1 2 11 11 0 001 2v1a9 9 0 000 2c0-1 0 0 0 0l1 1a8 8 0 000 1v2l2 2v1l2 2c0 1-2-1 0 1l1 1 1 1v1a21 21 0 002 1 19 19 0 002 2l1 1h1a1 1 0 011 0 6 6 0 010 1 16 16 0 013 1 12 12 0 00-2-1 28 28 0 003 1l1 1h2l1 1h46a42 42 0 005 0h31 2a16 16 0 013 0h-2a10 10 0 003-1h-2a128 128 0 00-16-1h-7a20 20 0 00-3 0H64c-2 0 1 1-1 1a6 6 0 00-2 0h-4-1a12 12 0 00-2 0H42c-1 0 2 0 0 0a27 27 0 00-3 0h-3-2a16 16 0 00-2 0l-2-1a8 8 0 01-2 0h-2a15 15 0 01-2-1l1 1a6 6 0 012 0h-2l-2-1a9 9 0 01-2-1h-1l-1-1-1-1-2-1a10 10 0 012 1c0 1 0 1 0 0a26 26 0 01-6-5 60 60 0 01-3-5 11 11 0 001 2 15 15 0 001 2l1 1 1 2-1-2a22 22 0 01-1-1 29 29 0 01-4-7v-2a24 24 0 01-1-3v-1-2-3-1-1l-1-5c1 2 1 1 1-1s-1 1-1-1l1-4a31 31 0 000-3v-1-3-2a4 4 0 000-1 6 6 0 010 1v-2a9 9 0 01-1-1v-13l1-2v-18-4a116 116 0 000-9v-15-1-5-4s0 1 0 0v-1-15-6a17 17 0 010-4v-9-3-2-2a13 13 0 010 2v-2-3-14c0-1 0 1 0 0v-5-8-2 3l1-3v33a6 6 0 010 2 18 18 0 010 2v-3-1-2a20 20 0 000 3v50a36 36 0 010-5v-2 25a48 48 0 000 5v20s0-2 0 0v8s0-1 0 0c0 2 0-1 0 0v2a15 15 0 010 3v-3 17c0 1 0-1 0 0v8a26 26 0 000 6l1 12v-1a24 24 0 003 6l-1-1a28 28 0 002 4c0-1 0-1 0 0h1l1 2a27 27 0 004 3l3 2 1 1-1-1-2-1a13 13 0 01-2-1 11 11 0 01-1-1l2 1-2-2 1 1 1 1a7 7 0 001 0l2 2a20 20 0 003 1 17 17 0 002 1c2 0-2-1 0 0a38 38 0 004 0l2 1c1 0 0 0 0 0h2l-2-1h4l-2 1h4-1 9a40 40 0 005 0h-1 5l-2-1 2 1h15l2-1 1 1a17 17 0 00-2 0h7-1 7v-1h2l-1 1h25a56 56 0 016 0 27 27 0 003 0h-6a62 62 0 018 0 42 42 0 016 0h-4 14s-1 0 0 0h5-4 16a8 8 0 001 0h4l-3-1 8 1h-5a40 40 0 014 0h16a28 28 0 013 0h5 1a31 31 0 014 0h-6-2c-1 0 2 0 0 1l-5-1a19 19 0 01-2 1v-1l-5 1v-1l-5 1h-4 7a20 20 0 00-3 0l3 1h-4-2 4a11 11 0 012 0l3-1a11 11 0 005 1c-2 0-3-1-1-1l2 1 3-1h-3 5a16 16 0 013 0c-2 0-1 0-1 1h-2 6a27 27 0 004-1c-1 1 5 1 6 1a14 14 0 01-1 0 33 33 0 013 0h23l9-1h24l3 1h7l5-1h12l4 1 4-1h4 3s-1 0 0 0a13 13 0 001 0h51a22 22 0 003-1 19 19 0 002 0 13 13 0 001-1l2-1 1-1a17 17 0 01-2 1 28 28 0 0010-7v-2l1-1 1-1v-1a27 27 0 003-10v-5-21a9 9 0 010-2v-8-1-5-2-1-3a21 21 0 010-4v-15-6-2-5-3zm0-196v0zm0 55v0zm-1 106v-1 1h1a24 24 0 01-1 4v-4zm0 12a30 30 0 010-4 21 21 0 010 4zm0-197v0zm0 173v4a16 16 0 010-4zm0-186c0-3 0-3 0 0zM106 6a29 29 0 004 0 29 29 0 01-4 0zm-9-1h-4a23 23 0 014 0zm-6 1h4-8a35 35 0 014 0zM78 6h7-7zm6-1a80 80 0 01-9 0h9zM8 65a22 22 0 010-4 12 12 0 010 3l-1 1zm-3 98v-3a23 23 0 010 3zm0 81v4a29 29 0 010-4zm0 36l-1 2a13 13 0 001-2v0zm0 40v-1-1zm92 55h1a14 14 0 01-2 0h1zm-26-1h-6 6zm-32 1h-4a13 13 0 014 0zm-12 0h3a27 27 0 01-5-1l2 1zM6 77v0zm0 8v4a36 36 0 010-5v1zm0 12v0zm0-3v0zm-1 96v-4a20 20 0 010 4zm0 36a22 22 0 010-4v4zm0-14c1-1 0 4 1 4-1 2-1-2-1-4zm1 16v3zm0 62a29 29 0 010 4c0-2 0 1 0 0v-4zm0-92v4a19 19 0 010-4zm0-79v-3-1 4zm0-13v12a7 7 0 000 2H5v-7c1-1 0 4 1 4v-6a32 32 0 000-5v6l-1-4v-5a10 10 0 011 1 22 22 0 000-3l-1 1v-3l1 2a9 9 0 000-2v5a14 14 0 010-2 23 23 0 000 3v-1 2zm0 61v-4 4zm1-72a13 13 0 010 3 23 23 0 010-3zm0 17v-9a38 38 0 010 5v4zm0 7c0 1 0 1 0 0v10a6 6 0 000-1 12 12 0 010 5zm0 12v14a7 7 0 000 1v-2-4a58 58 0 010-9zm0 24v-3a5 5 0 010 2v1zm0 17v-3 3zm0 10a48 48 0 010-6c0 1 0 1 0 0v6zm0 2v-4a23 23 0 010 4v-2 2zm0-81a8 8 0 010-3v1a13 13 0 010-2v4zm0 181v-4a29 29 0 010 4zm0-63v0zm0 14a10 10 0 010 2v-2zm0 7v-3c0-1 0 0 0 0v-1a10 10 0 010 4zm1-125v-4a18 18 0 010 4zm160 257h-3a14 14 0 003 0c3 0 0 0 0 0zm11 0a21 21 0 013-1v1h-3zM108 7h1-1s1 0 0 0zm138 105l-1 1h2l-1-1h1v1h1a1 1 0 000-1h1v1h0l1-1h2l-1 1h1v-1h1v1h-1 1v-1h1c1-1 0 0 0 0h1v1h1l-1-1h1l1 1h1l1 1v-1l1 1h-1 1l1-1c0-1-1 0 0 0h4s-1 1 0 0h2l-1 1h-1-1a16 16 0 01-2 0h-1s-1 0 0 0a1 1 0 00-1 0h-1a7 7 0 00-3 0l1 1s0-1 0 0a3 3 0 01-1-1s0 1 0 0a4 4 0 00-1 0 33 33 0 01-3 1h-1 3v-1l1 1v-1 1l1-1-1 1h1a7 7 0 002 0h-1 1a1 1 0 00-1 0h1s1-1 0 0l1-1 1 1v-1l1 1v-1c0-1 0 0 0 0v1l1-1-1 1h0c1 0 1 0 0 0h-1-2 1a6 6 0 011 0h2a2 2 0 001 0h6l-1-1v1a3 3 0 010-1s0 1 0 0l-1-1h1-1 2a4 4 0 001 0h2a2 2 0 01-1 0h5a3 3 0 011 0h2a3 3 0 001 0s-1 0 0 0h2c1 0 0 0 0 0h3-1 3s1 0 0 0v1h-2-1a3 3 0 00-1 0h-1 0v1l1-1h1v1h1a11 11 0 002 0h4a9 9 0 011 0h2v1l1-1h1v1h4s0-1 0 0v-1a1 1 0 000 1v-1 2a1 1 0 010 1 8 8 0 000 2h1v1a1 1 0 01-1 0v5a1 1 0 010-1v1a1 1 0 010 1h1-1a1 1 0 01-1 0s1 0 0 0h-1c-1 0 0 0 0 0h-1c-1 0 0 0 0 0h-1-2-1l1 1h-1a2 2 0 002 1h3a6 6 0 011 0l1-1v1h1v-1 1h1v-1a1 1 0 000 1v-1-1a1 1 0 000-1v-1l-1-1v1-1h1l-1-1a1 1 0 001 0v-1a1 1 0 00-1 0h1l-1 1a1 1 0 000-1 13 13 0 000-2h1a15 15 0 000-2 2 2 0 010-1v-2-1c0-1 0 0 0 0a2 2 0 00-1 0h-1a4 4 0 00-1 0c1 0 0 0 0 0h-1c-1 0 0 0 0 0h-1c-1 0 0 0 0 0a1 1 0 00-1 0h-1a3 3 0 001-1 7 7 0 002 1v-1c-1 0 0 0 0 0a1 1 0 001 0v1l2-1a3 3 0 002 0v1s-1 0 0 0v1a14 14 0 000 2v3a4 4 0 000 1s0-1 0 0v0a3 3 0 000 1v2c0 1 0-1 0 0v5a1 1 0 000 1l-1-1c0 1 0 0 0 0v1h-1c0 1 0 0 0 0v-1 1l-1-1v1-1a2 2 0 01-1 0v1h-1 1v-1h-1l-1 1v-1h-1-1c-1 0 0 0 0 0a5 5 0 01-1 0h-1 1a1 1 0 01-1 0h-1s1 0 0 0h-1c0-1 0 0 0 0h-1s0 1 0 0v1a6 6 0 01-1-1h-1v1l-1-1h1a1 1 0 01-1 0h-1s1 0 0 0a2 2 0 00-1 0h-1 1s-1 0 0 0h1v-1 1h1v-1h-1 1v-1h-1v1h-1c1 0 1 0 0 0v-1 1h-1c1 0 0 0 0 0h1a1 1 0 00-1 0h-1c0-1 0 0 0 0h-1a17 17 0 00-2 0h-1a2 2 0 00-1 0h-2a3 3 0 01-1 0 5 5 0 01-1 0h-1-1-1c-1 0 0 0 0 0a1 1 0 00-1 0c1 0 0 0 0 0h-1-2-1c-1 0 0 0 0 0a5 5 0 00-1 0h-2c-1 0-1 0 0 0a9 9 0 01-2 0h-5a2 2 0 01-1 0h-1c-1 0 0 0 0 0h-1c0 1 0 0 0 0h-2a5 5 0 00-1 0h-1c-1 0 0 0 0 0a3 3 0 01-1 1c1 0 0 0 0 0a3 3 0 001 0h1a1 1 0 01-1 0h-1l1 1h-3-2-1a3 3 0 001 0c0-1 0 0 0 0v-1c0 1 0 0 0 0v1h1v-1l1 1 1-1h1-1v-1a5 5 0 01-1 0 6 6 0 01-1 0 11 11 0 00-4 1 2 2 0 01-1 0h-1-3v-1 0l-1 1v-1a2 2 0 01-1 0v-2-1-1-1 1a1 1 0 000-1v-2l-1-1v-3a5 5 0 010-1 1 1 0 00-1 0v-4zm18 33a8 8 0 01-2 1l2-1zm-39 17a6 6 0 010 1v-1zm-1 1l-3 3-2 3a2 2 0 000 1l-2 2-1 2a3 3 0 00-1 1l-1 1v2l-1 1-1 2c0 1 0 0 0 0a17 17 0 01-1 3v-1l-1 1s0 1 0 0v3a7 7 0 01-1 1v-1 2l-1 1v1a15 15 0 01-1 2 23 23 0 010 3l-1 2v-1l1-2a12 12 0 00-1 2v-1a3 3 0 000-1 35 35 0 002-4v-1a7 7 0 011-2v-1l1-3-1 1h1a9 9 0 000-2v1a10 10 0 011-1v-1a15 15 0 001-2l3-5v-1l1-1a66 66 0 018-10zm-14 27c-1 1-1 0 0 0 0-1-1 0 0 0zm-1 1v-2 2zm0 2a6 6 0 010 1v-1zm-2 39a12 12 0 010-2l1 2zm1 3v-1 1zm6 13l-1-2a10 10 0 011 1l-1-1 1 2zm12 14a9 9 0 011 1c1 1 2 1 0 0h-1l-1-2 1 1zm-2-2l1 1a3 3 0 01-2-1zm-45-1v1-1zm4-4l1-1-1 1zm6-10l-1 1v0l1-2v1zm-25-66a9 9 0 011-1l-1 1zm18-54c-1 0 0 0 0 0l-1-2-1-1v-1a20 20 0 01-2-2l1 1-2-2-1-1a13 13 0 01-1-1l1 1-1-1-1-1-1-1-1-1a12 12 0 01-2-1 23 23 0 01-2-2l-2-1 1 1 2 1-2-2 2 1h1-1a7 7 0 001 1l2 2 1 1a3 3 0 011 0l1 1v1h1a14 14 0 011 1l1 1-1-1c0-1 0 0 0 0v1a10 10 0 001 1v-1l1 2a11 11 0 001 1l1 1a7 7 0 000 1l1 1v1l1 2 1 1v1a40 40 0 012 12v-3l-1-3a2 2 0 000-1 24 24 0 00-2-6 3 3 0 000-1v-1l-1-1s0 1 0 0zm-10-11l1 1-1-1zm1 1c-1 0 0 0 0 0 0 1 0 0 0 0zm-3-1a7 7 0 01-1-1l1 1zm-11-8l-1-1 1 1zm-7-1a2 2 0 011 0 13 13 0 00-2 0 3 3 0 011 0zm-1-1a4 4 0 01-2 0 4 4 0 012 0zm-2-1l1 1-1-1zm-4-1h-2c1 0 0 0 0 0a23 23 0 002 0zm-12-1a15 15 0 012 1h-3a2 2 0 011 0v-1zm-3 0h-1 1zm-15 0h-1 3v1a8 8 0 01-2 0l2-1h-2zm-16 1h-1a4 4 0 011-1v1zm-3 0a7 7 0 01-2 0c-1 0-2 0 0 0h1v-1a16 16 0 013 1h-3 1zM48 204v-2 2zm0 33v3a25 25 0 010-3zm1-1l-1 1v-4-1h1a34 34 0 000 4zm0 7c0-1 0 0 0 0a15 15 0 010 2v1a16 16 0 000 2h-1l1-2a4 4 0 01-1-1h1v-1c0-1 0 0 0 0v-1zm0 10a4 4 0 010-2v1a22 22 0 010-3v1a20 20 0 000 3zm0 1v0s0-1 0 0zm0 10v-2c0 1 0 0 0 0v2zm3 11h5-3a6 6 0 01-2 0h-2 2zm5-1l4 1h-2l-2-1zm2 1c-1 0-1 0 0 0a4 4 0 01-1 0h-1 2zm7 0h-1 1-1a7 7 0 00-1 0h0-3 5zm4 0a3 3 0 002-1v1s1 0 0 0a4 4 0 002 0c1 0-1 0 0 0h1-2-4a4 4 0 011 0 7 7 0 001 0h-1c-1 0 1 0 0 0h-2a1 1 0 001-1h2l-1 1zm7 0h-2 2zm0 0h3-2-1zm9 0h2-1-1zm31 0a17 17 0 013 0zm-4 0h-1 1-1a2 2 0 011 0s1 0 0 0zm-5 0h-1a3 3 0 011 0zm-59-3l-1 1v-1zm0-9v2a5 5 0 010-2zm-1 5v-1a6 6 0 000-1v-1a13 13 0 010 3zm5 7c1 0 0 0 0 0zm29 0zm-14 0h-1a7 7 0 011 0zm0 0zm-6 0h-1 1zm-13-14a18 18 0 010-2v2zm0-5a9 9 0 010 3 7 7 0 010-3zm-1-13v-1a13 13 0 010 3 8 8 0 010 2v-4zm0-8v-1 1zm138-91a5 5 0 010-1v1zm6 79v0zm13-3v3l1 1-1-2c0-1 0 0 0 0v-2zm0-13v-1 1zm0 9v-1 1zm1-2a4 4 0 010 2 3 3 0 010-2zm0 0a3 3 0 010-1 2 2 0 010-1 15 15 0 000 2zm27-97zm0 2v0zm1 3v0zm0 6zm15 2zm12 0h1-1 1zm1 0h2a6 6 0 002 0h1v-1h1c1 0 0 0 0 0v1h1v-1 1l1-1a1 1 0 011 0l-1 1 1-1v1h1s0-1 0 0h2-1-3-1 1a1 1 0 00-1 0 1 1 0 00-1 0h-6zm9-2v0zm0 0zm1 0zm4 1zm2-1zm0 1h0zm1 0zm1 1h1l1-1-1 1h-1zm4 0l-1-1h1v1zm1 0zm4 0a4 4 0 00-1 0h0 1zm5-1l-1 1 1-1zm0 0l1 1c0 1 1 0 0 0h-1 1l-1-1zm8-16c1 0 0 0 0 0zm0 0zm-1 0h-1 1c-1 0-1 0 0 0zm-6 0zm1 0h1a5 5 0 00-2 0h1zm-2 0zm-1 0h-1a1 1 0 011 0 4 4 0 011 0s-1 0 0 0h-1zm1 1h-1a1 1 0 011 0zm-1 1zm-4-2h2a2 2 0 011 0h-2-1zm-2 2l-1-1 1 1h-1l-1-1 1 1h-1v-1h3l-1 1h1-1c0-1 0 0 0 0v-1zm0-1h1a1 1 0 01-1 0zm1-1h1zm-1 0v-1zm-2 0h0zm1 0h1a4 4 0 01-1 0zm-1 0zm-4 0h-1 1zm-4 0h2-2s1 0 0 0zm0 0h-1 1zm-1 0h-1-1 1zm-2 0h-1 1zm-2 0zm0 0h-1 1zm-1 0h-1 1zm-2 0h0zm0 0h0zm0-1l-1 1v-1h1zm-2 1c0-1 0-1 0 0zm-2 0h-1v-1a3 3 0 011 1l1-1-1 1zm-1 0h-1 1zm-1 0h0zm-2 0v-1l1 1h1a3 3 0 01-1 0h-1zm-1 0h-1v-1a1 1 0 000 1 1 1 0 000-1h1v1s0-1 0 0h1-1c0 1 0 0 0 0v0zm-2 0zm0 0v-1l-1 1v-1h1v1zm-3 0v-1a1 1 0 010 1zm10-1v1zm-19 0c0 1 0 0 0 0zm1 0l1 1v-1 1l-1-1zm2 0v0zm8 0zm3 1h0zm1 0zm1 0a3 3 0 010-1v1zm12 0h1a1 1 0 00-1 0v-1zm4-1zm-12 3h-1 2zm-1-1h0zm-1 0h0zm0 1zm-1-1h-1 1zm22 0zm0 1l-1-1h1zm-2-1h0s1 0 0 0zm0 0h-1 1zm13 1h1c1 0 0 0 0 0h-1zm2-1zm1 1c0-1 0 0 0 0zm0 0h0zm1 2h0zm1 4v1h-1l1-1zm0-6h-1 1zm0-1h-1 1zm-1 13c1 0 0 0 0 0zm0 0zm-1 1v1zm-4-1s1 0 0 0zm7-9v1-1zm1-1zm-18 12c0-1 0 0 0 0zm2-1h-1 1zm-44 1zm1 0h0zm2 0c0 1 0 0 0 0zM131 275h-11 1-5-2 1-2a6 6 0 00-2 0h-3a1 1 0 011 0h-2a8 8 0 00-2 0h-1a13 13 0 003 0h-9 2-2-1a11 11 0 00-2 0h1a24 24 0 00-3 0 3 3 0 00-1 0 6 6 0 011 0h1-1a1 1 0 00-1 0h-3-1-1-1-1a1 1 0 011 0h-4c1 0-1 0 0 0h-3-1-2l-2-1v1l-1-1h-1a10 10 0 002 0h-5-1-1 1v1l-2-1 1 1a4 4 0 01-1-1l-1 1s-2 0-1-1l-1 1-2-1h2-8 1v1h-2s1-1-1-1l1 1a10 10 0 00-2 0 6 6 0 00-3 0v-1-1a4 4 0 010 1h8a183 183 0 018 0h3-2-1 5a34 34 0 004 0h8v-1h-2s-1 0 0 0a33 33 0 015 0h-3c2 0 1 1 1 1a2 2 0 011 0h3v-1h12a6 6 0 001 0h-3a18 18 0 01-3 0h-1-2c-1 0 1 0 0 0h-3 1-2-2a2 2 0 002 0h-8a16 16 0 00-3 0h2a5 5 0 001 0h-4a17 17 0 00-3 0 10 10 0 00-2 0 2 2 0 01-1 0 8 8 0 00-2 0h-1-1-1 1-2-2 2-1a11 11 0 002 0h1c-1 0-1 0 0 0h9a23 23 0 003 0 9 9 0 00-2 0h-6s1 0 0 0l-1-1-5 1h1a10 10 0 01-2 0 21 21 0 00-3 0s0-1 0 0h-1-1a13 13 0 00-2 0h-2-1s1 0 0 0h-1l1-1a3 3 0 00-1 0v-1-1a1 1 0 01-1-1h1l-1-4a7 7 0 000 1v1c0 1 0 0 0 0a15 15 0 010 2v-1 1-1a6 6 0 000 2l-1 1a5 5 0 000-1v-1-1a6 6 0 010-2v-1-3a16 16 0 000-2v-1c0-1 0 0 0 0v-2a10 10 0 010-2v1a21 21 0 010 3s0 1 0 0v-6-1a8 8 0 010-2v-1-1-6a4 4 0 000-1s0 1 0 0v-1a30 30 0 010-3 2 2 0 010-1 1 1 0 010-1v-1-1a13 13 0 000-3v-2 1a13 13 0 000 2h-1v-3 1a6 6 0 000-2l1-1v-1-2c-1 1-1 0-1-1l1-2-1-2 1-1v-1c0 1 0 1 0 0v-1-1-2-1-6a10 10 0 010-3s0-1 0 0v1l1-1a13 13 0 01-1 2 25 25 0 010 5 21 21 0 010 4v3l1 1a30 30 0 00-1 5 3 3 0 001-1v-1-2 2a11 11 0 000-3v-1-2-1-1l1 1-1-3h1v-8a6 6 0 000-2 11 11 0 000-3v-7-4-1-5-2a6 6 0 000-2v-3 1a6 6 0 010-1c0-1 0 0 0 0v-3s0 1 0 0v-18-1-1-1-7h1v-4l-1-1 1 1v-1-1l-1-1h1v-2l-1-1a14 14 0 001-3v-1a9 9 0 000-2v-5-1h-1v-1a6 6 0 011-2v-5l-1-2a3 3 0 001-2v-1a3 3 0 000-1v-1 1l-1-1c1 0 0 0 0 0l1-1h2s-1 0 0 0h2s-1 0 0 0h3a2 2 0 011 0 2 2 0 00-1 0h6c1 0 0 0 0 0h7a21 21 0 003 0h7a8 8 0 002 0h14 2c-2 0 0 0-1-1h1-1a24 24 0 00-6-1h-4a4 4 0 00-1 0h-2-8v1l-1-1c1 1-1 1-2 1v-1a2 2 0 00-1 1l-6-1 1 1a5 5 0 00-2-1l-1 1h-1a8 8 0 00-2-1l-2 1h1a14 14 0 01-2 0h-3 1-3-2 1a8 8 0 012 0 16 16 0 01-2 0h-1a4 4 0 00-1 0 7 7 0 00-2 0v3c0-1 0-1 0 0h1l-1 2a6 6 0 000 1 5 5 0 000 1v2a13 13 0 000 2v-2-1a7 7 0 000 2 2 2 0 011 0v6l-1 1v9a22 22 0 000 5c0-1 0-1 0 0v10a4 4 0 010 1v15a12 12 0 010 2s0 1 0 0c0 1 0 0 0 0v2 6s0-1 0 0a11 11 0 000 2v5l-1-2v1a32 32 0 000-5v-7-1-2-1 3a4 4 0 000-1 10 10 0 000-2v-1-7a49 49 0 000-6v-2-1s0 1 0 0v-1-1-1a7 7 0 010 2v-1-8-1a9 9 0 000-2 46 46 0 000-5 17 17 0 000-3v-1s0 1 0 0a8 8 0 010-1v-2c0-1 0 0 0 0l-1-1h1v-1 1a15 15 0 000-2v-2 2a30 30 0 000-4v-1-3c0-1-1 1 0 0v-1 1a23 23 0 000-3v2a5 5 0 000-2v-3h4v1h2c-1-1 0-1 1-1v1h2l2-1a27 27 0 01-3 0c2 0 0 0 0 0h1a7 7 0 012 0h2c1 0-1 0 0 0a13 13 0 012 0v1h1l-1-1h2a16 16 0 012 0h3a8 8 0 001 0h2c1 0-1 0 0 0h4a24 24 0 013 1c1-1-1-1 1-1h-1l1 1h2v-1a17 17 0 003 0h5l1 1h5a11 11 0 013 0h1a23 23 0 01-3-1 12 12 0 014 1 8 8 0 013 0h-2c1 0 4 0 2-1a28 28 0 013 0l-2 1h3v-1h2c0 1-2 0-1 1a14 14 0 002 0v-1h2l-1 1a16 16 0 003 0 2 2 0 001 0c-1-1 1 0 2-1h-2l4 1h-3a8 8 0 012 0h4v-1a19 19 0 012 1h2l3-1v1h2-3-1 1-3-1c1 0 1 0 0 0h-4l-2 1a9 9 0 002 0h1a4 4 0 00-1 0l1 1h-1l-1-1 1 1a2 2 0 011 0l2-1a2 2 0 002 1l-1-1 1 1a9 9 0 012-1h-2 3l-1 1a13 13 0 003-1h2c-1 1 2 1 3 1l-1-1a6 6 0 011 1h10l3 1 4 1 2 1h2a15 15 0 012 1l1 1 2 1h1l1 1 5 3 1 1 1 1a10 10 0 001 1h1-1l1 1 2 2 1 2 1 1a5 5 0 011 1v1a5 5 0 001 1 17 17 0 001 2v1l1 2v1a18 18 0 010 2 25 25 0 011 3 24 24 0 010 2v1a35 35 0 010 5 19 19 0 010 2 32 32 0 01-1 4v2l-1 2v2l-1 1-1 3a2 2 0 010 1 16 16 0 01-2 2v1a14 14 0 00-1 2h-1v1h-1l-1 2-1 1-1 1-2 1v1a6 6 0 01-1 0l-3 2h-1a28 28 0 01-2 2 17 17 0 00-2 1l-2 1c1-1 1 0 0 0l4-1a12 12 0 012-1 10 10 0 01-3 1h1-2v1h-1 2a7 7 0 011-1v1h-1a60 60 0 017 3 1 1 0 001 0v1a2 2 0 001 0h1v1a6 6 0 001 1h2a1 1 0 010 1 4 4 0 00-1-1l1 1h1a16 16 0 002 2l-1-1a22 22 0 00-3-1l2 1-2-1v-1a14 14 0 00-3-1h1-1l-1-1a25 25 0 00-4-1l-1-1a4 4 0 011 1 16 16 0 00-3-1 13 13 0 00-2-1 10 10 0 002 1l3 1h-1a33 33 0 014 2l1 1h1a83 83 0 0110 7l1 1a13 13 0 013 3 8 8 0 011 1h-1a5 5 0 011 1 13 13 0 012 4 2 2 0 011 1 30 30 0 012 4v1a10 10 0 010 2v-1a5 5 0 000 2v1l1 1v3a1 1 0 000 1s0-1 0 0a39 39 0 010 5v3a52 52 0 010 6l-1 3a4 4 0 010 1s0 1 0 0a16 16 0 010 2l-1 1v2a7 7 0 00-1 1v1a7 7 0 00-1 2l-1 3-1 1 1-1-1 2v1a39 39 0 01-6 6l1-1-1 2h-1v1a2 2 0 01-1 0l-1 1-2 1h1l-1 1v1l-5 3-5 3h-2v1c-10 4-21 5-32 5zm-79-1a2 2 0 00-1 0 2 2 0 01-1 0h2zm-1-1a5 5 0 000-1 1 1 0 010 1 7 7 0 001 0 2 2 0 01-1 0zm5 1a7 7 0 01-2 0h-1a1 1 0 010-1h1l2 1zm-1-1h0zm6 1v-1a6 6 0 001 1 6 6 0 01-1 0zm-13-49a4 4 0 010 1 2 2 0 010-1zm1-53v-3 6a4 4 0 010-2v0a7 7 0 000-1zm0 27v-1a13 13 0 000-1 2 2 0 010-2v4zm0 9v-2-2 4zm0-12v-3-3-1-2 5a11 11 0 010 2v2zm0-10v0a13 13 0 010-2v-1-3s0 2 0 0v6zm0-8v2c0-1 0-1 0 0v-2zm0-4a9 9 0 010 2 13 13 0 010-2zm0 34a2 2 0 010 1v-1zm0 3v-1a4 4 0 010 1zm1-46a4 4 0 010 2v-2zm0 36a6 6 0 010 1v-1zm0 6v-2-4 0h1a24 24 0 000 3l-1-2a12 12 0 000 3 6 6 0 000 2v-3l1 2v2h-1v1l1-1v2l-1-1v0a11 11 0 000-1v-1-2 2zm0-80a6 6 0 010-2c0 1 0 0 0 0v2zm0 25v0zm0 7c1-1 1 1 1 1-1 1 0-1-1-1zm0 57v-2a7 7 0 010 2c0-1 0-1 0 0zm0 3v-2 2zm0-8v-1 1zm0 0v0zm0-29a10 10 0 010-2v2zm1 1v-1 1zm0-29v0zm0 16v-1 1zm0-39v-1 1l1-1-1 1zm0 16v-2a6 6 0 010 2zm0-32v-1 1zm11-11h2-3zm4 0h0zm13-1a21 21 0 012 0 14 14 0 01-2 0zm14 1a3 3 0 01-1 0h1zm-44 51v1a8 8 0 000-1zm0-4v-1a7 7 0 010 1zm0-2s0 1 0 0v-1zm0-20v2a6 6 0 010-2zm81-26h-2a4 4 0 011-1l1 1zm-7 0h-1 1zm54 86l-1-1 1 1zm-4-2s-1 0 0 0h-1l-1-1h2v1zm-3-3a5 5 0 01-2-1l2 1zm125 89h2a5 5 0 01-2 0zm17-10l-2 1 1-1v1l1-1zm0 0a7 7 0 011-1l-1 1zm3-4a4 4 0 011 0l1-1-1 1h-1zm10-15v1a7 7 0 00-1 1l-1 2a11 11 0 001-2l1-3a4 4 0 010 2v-1zm1-2a3 3 0 010 1l-1 1a9 9 0 011-2zm-2-5a2 2 0 011 0 5 5 0 012 0h1l-1 2s0-1 0 0a5 5 0 010-1v-1h-2-1zm1 2zm-9-2h6s-1 0 0 0a19 19 0 012 0 3 3 0 01-2 0h-2a11 11 0 01-3 0h-1zm-9 1a6 6 0 00-2 0h1-2c-1 0 0 0 0 0h-1c-1 0 1 0 0 0h-1 0l1-1v1a11 11 0 001 0 3 3 0 01-1 0h1l3-1-2 1h6a23 23 0 00-3 0h1a11 11 0 00-2 0zm2 0h1a6 6 0 01-1 0zm2-1h2a13 13 0 002 0 1 1 0 00-1 0 2 2 0 012 0zm-1-1h-2 2zm-7 1h-1 1zm3 0h2-4 2zm-4 0a3 3 0 01-1 0h1zm-10 8a4 4 0 01-1 1 2 2 0 011-1zm-11 6l-2 1 2-1zm-5 2h1a9 9 0 01-3 0 6 6 0 01-2 0h3zm-7 1l-3-1a5 5 0 012 0h-1 3l-1 1zm-4-1h-1 1s1 0 0 0zm-2-1a6 6 0 01-2 0 10 10 0 012 0zm-3 0l-2-1 2 1zm-5-2h1l1 1c-1 0 0 0 0 0l-2-1zm0 0a6 6 0 012 0h-2zm-2-2h1l1 1a9 9 0 01-2-1zm-11-12h1v1l1 2a6 6 0 011 1l1 1h-1l-1-2-1-2-1-1zm-1-1l1 1-1-4v2a9 9 0 001 1zm0-1c1 1 1 1 0 0a4 4 0 011 1v1l-1-2zm0-3v0zm-1-3v-2 2a5 5 0 000 1l1 3a20 20 0 01-1-3v-2 1zm-1-3a3 3 0 000-1v-1-2 1a6 6 0 000-1h2c1 0-1 0 0 0h2-3v4a5 5 0 010-2v1a8 8 0 000-2v1h-1c-1 0 0 1 0 0v2zm4-5v1h0zm1 1l2-1v1h1-2-1zm9 0h2-2zm-9 18c0-1 0 0 0 0zm40-18a17 17 0 012 0zm-4 0h-1a2 2 0 011 0s1 0 0 0zm-6 0h-1a2 2 0 012 0zm-25 0zm-10 4h1l-1 1a7 7 0 010-1zm10 20l-1-1 1 1zm22 8h2a4 4 0 011 0c1 0 0 0 0 0h1c1 0 0 0 0 0h1a8 8 0 01-2 1h-3v-1zm15-4a18 18 0 01-2 1l-2 1 3-1 1-1zm-3 1v1l1-1h-1zm44-11s0 1 0 0l-1 1 1-1zm-1 0l1-1a6 6 0 01-1 1zm6-27l-1 9h-45 1-4 1-1-2s1 0 0 0h-1a5 5 0 00-2 0h-3-1a8 8 0 00-2-1l-1 1a12 12 0 003 0h-9 2-2-1a10 10 0 00-2 0h1a23 23 0 00-2 0 3 3 0 00-2 0 6 6 0 012 0h-6-1-1c1 0 0 0 0 0h-3l-1-1h-8s1 0 0 0a4 4 0 01-1 0h-1v1-1a4 4 0 001 0h-1v3a12 12 0 000 2v1a4 4 0 010 2h1v2a5 5 0 010 2v-2 2l1 2 1 3 1 1-1-2c0 1 0 0 0 0a13 13 0 001 2v1l2 2a3 3 0 000 1l1 1h1l1 2a13 13 0 01-2-2l-2-2a18 18 0 01-1-2l-1-1v-1l-1-2-1-2v-1l-1-1v-2-1a21 21 0 000-2l-1-1a9 9 0 011 2 6 6 0 000 1l-1-3 1-1-1-2v-1-2a17 17 0 003 0h9c-2 0-1 0-1-1l-2 1 1-1h-1a31 31 0 015 1h-3 6-1 12a6 6 0 001-1h-2l-1 1v-1a18 18 0 01-3 0h-1l-1 1c-2 0 0-1-1-1l-1 1h-2 1-3a2 2 0 001 0l-3-1h-7a7 7 0 00-2 0h4c-1 0 0 0 0 0l1 1h-2a5 5 0 001-1l-2 1h-6a6 6 0 000 1 10 10 0 000 1 4 4 0 010 2 8 8 0 000 3v1a5 5 0 010 1v1s1 0 0 0v2c1-1 1 1 1 1v1l-1-2c1 1 0 1 0 0a12 12 0 000-2v-1-1c0-1 0-1 0 0a6 6 0 01-1 0v-1a7 7 0 000-2 5 5 0 001-1v-1a24 24 0 000-3v-1 1a14 14 0 002-1h4a20 20 0 00-3 0h-4v10a13 13 0 001 3 3 3 0 010-1 11 11 0 010 2 18 18 0 001 2v1h1v2a14 14 0 002 3v1l1 1v-1l2 3h-1l2 2 1 1 2 1 1 1c1 0 0 0 0 0l2 1a8 8 0 002 1 8 8 0 00-1-1l-1-1v1a17 17 0 01-3-2l2 1v-1h-1l2 1a7 7 0 00-2-2l-1-1a8 8 0 001 1l-1-2 1 1 1 1v1l-1-1 2 1a12 12 0 012 1 5 5 0 001 1 13 13 0 002 1l1 1a5 5 0 001 0l-1-1 2 1c1 0 0 0 0 0h2a11 11 0 012 1h-1l-1-1a7 7 0 01-1 0h-1l1 1h2a13 13 0 003 0l1 1a14 14 0 012 0h2a31 31 0 006-1s-1 0 0 0a4 4 0 001 0v-1h2a13 13 0 002-1 2 2 0 011 0 1 1 0 011 0l1-1h1a9 9 0 002-1h-1l-1 1a21 21 0 01-2 1h-2a18 18 0 01-2 1h-1a26 26 0 006-2 35 35 0 005-3l-2 1a15 15 0 00-1 1h-1a23 23 0 002-2h1v1a6 6 0 001-2h1v1l1-1 1-2 1-1 1-1a23 23 0 001-2l1-1h1-1 1v-1h1v-1h1l-1-1 2 1h-1 7a10 10 0 013 0h-1 1a13 13 0 01-2 0 24 24 0 01-5 0 7 7 0 01-2 0h-1l-1 1-1 1v1l-4 4a3 3 0 002-1v-1 1l2-2-1 1v1a9 9 0 001-3l1-1v-1 1a3 3 0 001-1 1 1 0 011 0h-1a1 1 0 001 0h9a6 6 0 001 1l1-1a11 11 0 003 1h10a2 2 0 00-1 1v3l-1 1v-1a6 6 0 010 1c-1 1 0 0 0 0l-1 1v1l-2 4-3 3-2 4-3 3h-1v0l-1 1c0 1 1 0 0 0l-1 2h-1l-1 1-3 2a28 28 0 01-2 1l-1 1v-1a22 22 0 004-2l-1 1h-1l-2 2h-1l-1 1-2 1a18 18 0 00-3 1v-1l-1 1-2 1 3-1 2-1-4 1-5 2h-1c1 0-1 0 0 0l-1 1a5 5 0 01-2 0h-5a3 3 0 011 0l-2 1a3 3 0 00-2 0 10 10 0 00-1 0h-1-2c-1 0 0 0 0 0h-2a7 7 0 00-2 0h-3s1 0 0 0h-1s1 0 0 0h-2s1 0 0 0h-1-1c-1 0 1 0 0 0h-2a2 2 0 001 0 41 41 0 01-4-1h-1v-1a36 36 0 01-6-1 25 25 0 00-3-1l-1-1h-1l-1-1a4 4 0 00-1 0l-1-1h-1l-2-1v-1l-2-1a12 12 0 01-1-1 52 52 0 01-6-5l-1-1h-1v1l-1-1v1a8 8 0 002 2l1 1a97 97 0 004 3 3 3 0 001 1l2 1 1 1 2 1 4 2s-1 0 0 0h1l1 1h1a2 2 0 001 0 14 14 0 002 1l2 1c1 0-1 0 0 0a5 5 0 002 1h1c-1 0 0 0 0 0a7 7 0 002 0l1 1h1l-1-1a12 12 0 012 1h3-1l3 1a8 8 0 002 0l-3-1h2a24 24 0 003 1 16 16 0 004 0h1l1-1h-1 2c-1 0 0 0 0 0h2a6 6 0 002 0h2a12 12 0 002-1l-2 1h-1a7 7 0 002 0 2 2 0 010-1h3l2-1 2 1a33 33 0 003-1 26 26 0 004-1l1-1a11 11 0 002 0 19 19 0 002-1s-1 0 0 0a15 15 0 002-1l3-2h1a18 18 0 001-1l2-1s-1 0 0 0a4 4 0 010-1l2-2a13 13 0 003-2l-2 1h1l1-1a17 17 0 001-1l2-2-1 1a13 13 0 002-2l1-1 1-1h-1l1-1v-1 0l1-1 3-5a6 6 0 001-2l1-2v-1 1l1-1-1 1v1l-1 2-1 3-1 2-1 1v1l1-2-2 4v-1 1h-1l1-1v-1a4 4 0 000 1l-1 1-1 1-2 3-3 3-1 1-1 1a16 16 0 00-2 1l-2 1v1h1l-2 1-2 1a6 6 0 012-1 7 7 0 011 0v-1h-1v1l-4 2h-1l-1 1-2 1a17 17 0 00-2 1l-3 1a13 13 0 00-2 1 16 16 0 00-2 0l-1 1s1 0 0 0a8 8 0 01-1 0h1-3-1l1 1h-2l1-1-2 1h-2 2a28 28 0 00-4 1h-1c-1 0 0 0 0 0h-3s1 0 0 0h-3 2a5 5 0 00-2 0h-8 1-2-1l-2-1h-2l3 1c-2 0-1 0 0 0h-2a4 4 0 01-1 0v-1h-2c-1 0 1 0 0 0a10 10 0 01-2-1h-1l1 1-2-1h0a15 15 0 01-2-1h-2a7 7 0 00-2-1c1 0 1 0 0 0h-1c-1 0 1 0 0 0l-1-1-3-1a15 15 0 01-2-1h-1v-1l1 1-1-1-2-1a27 27 0 00-2-1 8 8 0 00-1-1s1 1 0 0a10 10 0 01-1-1 20 20 0 00-2-1l-1-1-2-2a14 14 0 01-1-1 10 10 0 01-2-2l-1-1 2 2a7 7 0 01-2-1 10 10 0 01-1-2l-1-1a3 3 0 010-1l1 2-2-2a16 16 0 01-2-2l2 1-2-2-1-2 1 2a13 13 0 00-1-2h-1l-1-2 1 1a16 16 0 00-2-3 2 2 0 000-1l-1-1v1a31 31 0 010-3l1 2a6 6 0 01-1-1l-2-4v1a17 17 0 010-2l-1-1v-2a21 21 0 01-1-2c0 1 0 0 0 0v-2 2l1 1c0 1 0-1 0 0a19 19 0 000 2l1 1s0-1 0 0l1 2 1 2 1 1-1-1v-2a3 3 0 000 1v-1l1 2v-1l-1-1-1-1a2 2 0 000-2v0a8 8 0 01-1-1v0a9 9 0 01-1-1h1l-1-1h1v1a11 11 0 00-1-2v-2l-1-3v1a6 6 0 010-1l-1-8v-2l-1-3v-5a16 16 0 011-1v-1-1a8 8 0 010-1v-1-2-2h1v-2l1-5 1-2v-1a8 8 0 001-2v-1-1l1-2 1-2 1-2 1-1a7 7 0 000-1 18 18 0 002-2v-1l1-2h1l1-2 2-2 2-2v-1a17 17 0 011-1l2-2 2-1a58 58 0 016-5l4-2 2-2a2 2 0 011 0 16 16 0 013-1v-1a18 18 0 002 0l1-1h1l2-1h3a29 29 0 013-1l2-1h1a12 12 0 012 0h1a15 15 0 013 0v-1a14 14 0 00-3 0 8 8 0 01-1 0 8 8 0 012 0c1 0 0 0 0 0h2-1a5 5 0 01-1 0l1-1a69 69 0 019 1h1a2 2 0 001 0h1a7 7 0 002 0l1 1a4 4 0 00-1 0h2a12 12 0 003 1h-1a23 23 0 00-3-1h2l-1 1-1-1h-1a13 13 0 00-3-1l1 1h-1l-1-1a22 22 0 00-4 0v1a3 3 0 011 0h-2a7 7 0 00-2 0 14 14 0 004 0 29 29 0 013 1h2a113 113 0 0112 2v1a16 16 0 014 1 12 12 0 012 1h-1l2 1 2 1a9 9 0 011 1 2 2 0 011 0l4 3h1a12 12 0 011 2l-1-1a5 5 0 002 1v1l2 1 1 1 1 1s-1 0 0 0l7 9 3 4v2a36 36 0 013 4v0a6 6 0 001 2l2 6s0 1 0 0v-1a25 25 0 001 3v-1 1a70 70 0 012 8v-1 4a2 2 0 010 1v3l1-1v2a1 1 0 000-1l1 3zm-87 32a18 18 0 001 1 8 8 0 01-1-1l-1-2a6 6 0 011 2zm-1-3a6 6 0 001 2 13 13 0 011 1 8 8 0 01-1-1 3 3 0 01-1-2zm-1 0l-1-2a5 5 0 010-1c-1 0-1-1 0 0v1a18 18 0 001 2zm-2-2l-1-2 1 2zm-1-6a14 14 0 00-1-2 2 2 0 010 1l1 1zm61 5v-1a2 2 0 011 0v1a1 1 0 01-1 0zm0 0zm-2 1a2 2 0 00-1 0l1-1a1 1 0 010 1zm-1 1l-2 2 2-2zm23 7a21 21 0 002-2l-1 1-1 1zm1 3a8 8 0 01-1 1h-1a11 11 0 011-1 1 1 0 011 0zm-5 6l1-2-1 2zm-3 3l1-2-1 2zm-1 1l1-1-1 1zm-6 4a8 8 0 011-1l-1 1zm-12 6h1l-1 1 1-1h-1zm-4 3h1a5 5 0 01-1 1v-1zm-10 2h-1 1c0-1 0 0 0 0zm-25-1h-1a10 10 0 01-1 0h2zm-4-1h-1a13 13 0 001 0zm-12-2a17 17 0 01-2-2 14 14 0 012 2zm-10-9s0 1 0 0c-1 0 0 1 0 0zm-21-28l1 2a4 4 0 01-1-1v-1zm3 6v1l-1-1h1zm71-92l-1-1 1 1zm-4-1h-1-2 3zm-4-1a4 4 0 01-2 0h2zm40 22v0zm11 21v-2 2zm3 8l1 2-1-2zm2 7c0 1 0 1 0 0zM123 8zM88 8a17 17 0 011-1h-1zm153 0h-5 5zm-15-1h1-3a9 9 0 012 0zm-12 0h-2a13 13 0 012 0zm-50 0a15 15 0 014 0h-4zm-9 0h-1l1 1zm-8 0h4a8 8 0 00-1 0h-5-1 3zm-7 0h1a16 16 0 013 0h-4zm-15-1l2 1a6 6 0 013-1c1 1-2 1-1 1a17 17 0 003 0c1 0 0 0 0 0h1a19 19 0 003 0c2 0-2 0 0 0a11 11 0 013 1h-5l-2-1v1h-2V7h-5a23 23 0 013 0h-1 2-6a5 5 0 002-1zm-4 1h3-3zm-6 0h5l-1 1h-3l-2-1h0-7 8zM98 7h8-8zm4 0h1a19 19 0 01-2 0 7 7 0 00-3 0 24 24 0 014 0zM85 7h9 3-7a34 34 0 01-4 0c2 1-2 0-3 1h-1c-1-1 4-1 3-1zM70 7h0zM60 7h-6 6zM48 7h5a24 24 0 01-5 0zm-1 0h5a18 18 0 01-2 0h-2-1zm-2 0h-5 5zm-6 0a39 39 0 01-6 0 46 46 0 016 0zM28 7h2l-2 1a8 8 0 011-1h-1zm-9 4l2-1 1-1a17 17 0 012-1h2l-4 2 3-2a16 16 0 00-3 1l-1 1-2 1c-1 0 1 0 0 0zM9 22a21 21 0 012-4l1-1a20 20 0 012-2l2-2v1l-1 1a9 9 0 00-1 1 10 10 0 00-1 1c-1 1 0 0 0 0l-2 2c0 1 0 0 0 0l-1 2c-1 1 0-1 0 0a6 6 0 01-1 1 5 5 0 000 2v-2zm1 0a14 14 0 011-2v-1a16 16 0 012-2 8 8 0 011-1 25 25 0 00-3 4v1l-1 1a10 10 0 00-1 1v2a31 31 0 011-3zM8 48H7V38l1-1v11zm0-15v3l-1-4 1-2a2 2 0 010-1 11 11 0 000 2v2zm0 8v-1 1zm96 332a36 36 0 01-4 0c-2 0-4 0 0 0h2l1-1 6 1h-5zm8 0h-3a18 18 0 013-1v1zm38 0c-1-1 2 0 2-1h-4-1 7v1a42 42 0 01-4 0zm32-1h0zm6 1a9 9 0 012 0v-1l4 1h-6zm23 0h-3c-1-1 4 0 5-1l-1 1h6-7zm15 0h4-3zm2 1a21 21 0 014-1 21 21 0 01-4 1zm5 0a19 19 0 012 0 12 12 0 013 0h-5zm19-1h-3 3zm32 1a35 35 0 01-3 0h3zm7 0h0zm1 0l-3-1 3 1zm63-3a28 28 0 01-8 1 12 12 0 00-3 0h-13a21 21 0 00-2 1l-3-1-4 1h1-9a11 11 0 00-1 0h-7 3-5c-1 0 0 0 0 0h-9-6-8c1 0-14 0-11-1a29 29 0 003 1l5-1h-6a18 18 0 014 0 12 12 0 001 0h9a17 17 0 014 0h-1a46 46 0 016 0h52a25 25 0 0014-4 25 25 0 01-6 3zm7-4l-1 1zm0 0zm3-2v-1 1zm8-95v-5a44 44 0 010 5zM323 7h8-8zM287 7h7-7zM287 4h7a15 15 0 01-2 0h4a32 32 0 013 0h-1 8-6a27 27 0 015 0 14 14 0 013 0h-2 33a33 33 0 005-1l-3-1h-4l-1 1h-12a6 6 0 011 0h-12 4-2l-4 1V3h-17 7a9 9 0 012 0h-11 3-6s2 0 0 0h-1l-7 1h6zm50-1h3-3zm-12 1h-2 2zm4-1h1-1zm-2 0h-2a12 12 0 012 0zm-7 0a39 39 0 014 0 38 38 0 00-4 1l-3-1h3zm-13 1c1 0-1-1 2-1l2 1a56 56 0 01-7 0 14 14 0 01-3 0l6-1zm-8 0h-5a21 21 0 015 0z"/><path class="a" d="M257 7h5a48 48 0 01-7 0h1a16 16 0 00-3 0s1 0 0 0h-2 6zM214 7h9-7a13 13 0 00-3 0h1zM25 7l1-1h3a23 23 0 013-1h10c-1 0-1 0 0 0h10-20a19 19 0 00-3 0 36 36 0 00-7 2 5 5 0 002 0z"/><path class="a" d="M255 7a51 51 0 005 0h-15 10zM230 7h13c3 0 3 0 0 0h-13c-1 0 0 0 0 0zM231 7h-7a21 21 0 00-2 0 19 19 0 012 0h7zM374 330a52 52 0 000 6v-6zM184 6h0c1 0 0 0 0 0zM374 346v-8 8zM374 305v-23-7 30zM90 5h3-4 1zM195 6h-5 5zM164 5a17 17 0 003 0 10 10 0 002 0h7-18 6zM7 348v-2a27 27 0 001 9 40 40 0 01-1-4 17 17 0 010-3zM206 5h-5a26 26 0 00-5 0h10zM374 254v0zM156 7a5 5 0 003 0h-2-1zM178 7h2a4 4 0 011 0h-1-5 2a29 29 0 01-3 0h4zM172 6h-4 9-5zM171 7h-3 2a14 14 0 00-4 0h-5 10zM374 235v4a18 18 0 000-4zM374 177v22-18a24 24 0 000-4zM113 6a19 19 0 004 0 25 25 0 00-4 0zM83 7h-5 5zM280 114a9 9 0 002 0 10 10 0 00-2 0zM278 114h-1 1zM278 114h0zM280 114h1c1 0 0 0 0 0h1c-1 0 0 0 0 0h-1s1 0 0 0h-2 1zm0 0zM278 114zM272 114h1-1zM288 128h-1 1-1v1c0-1 0 0 0 0h1v-1h3a1 1 0 00-1 0h-1s1 0 0 0h-1c-1 0 0 0 0 0zM283 115s0-1 0 0v-1h1-1-1l1 1z"/><path class="a" d="M287 128h1v-1a1 1 0 000 1v-1h-1v1s1 0 0 0zM286 127v0zM275 114h2-1s-1 0 0 0h-1c-1 0 0 0 0 0zM271 114s1 0 0 0zM273 115a11 11 0 01-2 0v-1 1h-1-1 4zM276 115h-1a1 1 0 001 0zM274 114zM273 114h-1 1zM277 114zM289 128l1-1h-1v1zM275 115a2 2 0 00-1 0h1zM284 113h-2-1 0a35 35 0 003 0zM300 129c0-1 0 0 0 0l-1-1 1 1zM301 129a3 3 0 01-1 0h1zM301 129h0zM297 129a2 2 0 00-1 0 2 2 0 001 0zM234 117h-1 1zM300 117zM234 117a5 5 0 001 0h2-1 1v-1c1 0 0 0 0 0a1 1 0 010 1h2-1v-1l1 1c0-1 0-1 0 0h1v-1 1l1-1h-1-2-1a1 1 0 001 0h-3a1 1 0 00-1 0 1 1 0 00-1 0h1v1h-1 1c1 0 0 1 0 0zm5-1h-1 1zm-1 0h-1v0h1zm-2 0v1h-1l1-1zm-1 0zm0 0v1zm0 1c0-1 0 0 0 0-1 0-1 0 0 0zM238 128h3-3zM303 125a4 4 0 000 1 2 2 0 000-1zM291 127zM292 128h-1a1 1 0 001 0zM291 128h0s1 0 0 0zM292 128h-1 2-1zM292 127c1 0 0 0 0 0zM290 128l1-1h-1v1zM293 127h-1 1zM293 127zM292 128h1a1 1 0 01-1 0zM254 128a7 7 0 002 0 8 8 0 00-2 0zM253 113c-1 0 0 0 0 0h-1 1zM253 114zM252 113zM251 112c0 1 0 1 0 0zM254 114h1s-1 0 0 0h-1zM255 113c-1 0 0 0 0 0h1s-1 0 0 0h-1c-1 0 0 0 0 0zM253 113h1-1zM251 113h1-1-1 1zM245 113h2a7 7 0 00-2 0zM244 113h1a3 3 0 01-1 0h-1c1 0 0 0 0 0h1zM240 113h-1 1zM250 128h-1 1zM236 112h-1 1zM244 113h1l-1-1-1 1h1zM252 114zM248 113h0s1 0 0 0zM248 113h-1 1c1 0 0 0 0 0zM271 114h0zM265 115h-1 1zM262 128zM259 128h-1 1zM258 128a2 2 0 00-1 0h1zM268 130h-1 1zM271 114h-1 1zM270 114h-1 1zM269 114c0-1 0 0 0 0h-1 1zM266 113h-1 1zM249 128h-2a3 3 0 002 0zM245 128h0zM250 128h2a10 10 0 012 0h-3-1zM244 128h0zM256 113zM250 115h1a12 12 0 00-1 0zM262 113h-1 1zM255 115h1a1 1 0 00-1 0h-1c-1 0 0 0 0 0h1zM181 123a4 4 0 001 1h-1a2 2 0 001 1l-1-2zM50 249v-1 1zM105 103h2s-1 0 0 0h0-2zM105 103h2a6 6 0 00-3 0 4 4 0 00-2 0h3z"/><path class="a" d="M105 103h1a14 14 0 00-2 0h1zM103 104a4 4 0 00-1 0h-1 2zM104 104h0zM103 103h-2a10 10 0 012 0zM88 273a48 48 0 00-5 0 13 13 0 003 0h1a2 2 0 001 0h1l2-1a24 24 0 00-3 1zM104 273h-2a5 5 0 00-2 0h4zM100 104h1-1s1 0 0 0zM107 104h1-1zM126 104h-1 1zM120 103h-1v1a7 7 0 00-1 0h1a8 8 0 002 0h-1c2 0 0-1 1-1h2-3zM82 275h2-1-1zM157 181l1-1h1l1-1-2 1h-1v1l3 1-3-1zM109 104a7 7 0 001 0s1 0 0 0h-1zM114 104h-1-1a6 6 0 002 0z"/><path class="a" d="M110 103a6 6 0 003 0h4a4 4 0 001 0h2-1 3a13 13 0 01-2 0 9 9 0 01-2 0h1-1a38 38 0 01-4 0h-2 1a32 32 0 00-5 0 7 7 0 002 0zM96 275c1 0-1 0 0 0h1-1zM120 274h-5v1h5v-1zM111 274a10 10 0 00-2 1h-2s1 0 0 0h4c-1 0-2-1 0-1zM112 275l-1-1a4 4 0 011 1h3l-2-1-1 1zM126 274v1h-3 3a6 6 0 001 0h1a9 9 0 01-2-1z"/><path class="a" d="M125 275h-4 4a10 10 0 002 0 15 15 0 00-2 0zM160 265l-1 1h-1c-1 0 0 1 0 0l-4 2a8 8 0 01-1 0l-3 1h1-1v1h-1v-1l-7 1a13 13 0 002 0h2-3l-2 1 1-1-2 1s1 0 0 0h-4a11 11 0 003 0l1 1 2-1h-1 2a6 6 0 011 0c-1 0 0 0 0 0h3a9 9 0 01-2 0 5 5 0 012 0h1a5 5 0 00-1 0 56 56 0 009-2l1-1a8 8 0 002 0l1-1a5 5 0 002-2h-2zm-18 6a4 4 0 012 0h-2zm4-1l-1 1 2-1h2a9 9 0 01-3 0zm5-1h1a7 7 0 012-1l-2 1h-1zm4 0h-1 1zm-1-1a2 2 0 011 0 6 6 0 01-1 0zm2 0c1-1 1 0 0 0zm4-2h-1c1 0 1 0 0 0h1zM139 274h3a27 27 0 00-3 0zM158 272l-3 1a24 24 0 003-1zM100 275a8 8 0 002 0h-2zM89 274h-1c1 0 1 0 0 0h1zM101 275v-1a4 4 0 00-1 1h-3 1a8 8 0 013 0h5l-1-1-4 1zM95 274h0zM88 274l-1 1h-2s1 0 0 0h3v-1zM93 275h-2 1a6 6 0 01-2 0h3zM64 274h1a5 5 0 00-1 0zM99 274h-2 2zM98 274a3 3 0 00-1 1l1-1zM49 220v1a9 9 0 010-1 4 4 0 000-2v-5 7zM50 266v-4 2a8 8 0 000 3v-1zM51 259l-1 1c0-1 0-1 0 0a11 11 0 000 2l1 2v-8-1-1a18 18 0 010-2l-1 1 1 6zM50 258v0zM51 274h-2a5 5 0 001 0l1 1a12 12 0 012-1h-2zM50 227v-6-1 7zM184 141a14 14 0 000 2v-2zM170 186h1-1a2 2 0 00-1-1 5 5 0 000 1zM171 186a18 18 0 002 2 15 15 0 00-2-2zM50 234a4 4 0 000-1v-2 3zM50 266v0zM50 238v1c0-1 0 0 0 0v-1zM50 240v-1 1a18 18 0 000 3v-1 2a4 4 0 000 1c0-1 0 0 0 0a6 6 0 010-1s0 1 0 0v-1-3zM183 152v1l-1 1v1a19 19 0 001-3zM50 236v0z"/><path class="a" d="M50 254v-3l-1 2c1-1 1 1 1 1zM50 235v0zM50 231a14 14 0 000-3c0 1 0 1 0 0v-5 3h-1l1-1v-1a1 1 0 000-1v-1-1a9 9 0 010 2h-1a12 12 0 010 2l1 6zm0-5a6 6 0 010 2v-2zM50 253v0zM181 158a8 8 0 001-2l-1 2zM51 245a21 21 0 000 4v-4zM50 219v-1a10 10 0 010-2 3 3 0 000-2v3a16 16 0 010 2zM86 102a19 19 0 003 0 20 20 0 00-3 0zM188 203a31 31 0 00-4-6l-2-2a39 39 0 015 6l1 2zM50 243v1a13 13 0 000-4v3zM50 261a6 6 0 000-2v2zM54 273h-1 1 1a5 5 0 01-1 0zM52 134v2a16 16 0 000-5v3zM50 256v0zM76 102l-1 1a13 13 0 001 0v-1zM163 177a12 12 0 00-2 1l4-2a7 7 0 00-2 1zM71 102h4-4zM49 102v1-1h2a17 17 0 00-2 0zM177 166l1-2 1-2-3 5 1-1zM167 175h1v-1h1l2-2a26 26 0 003-2l1-2 1-1-2 2-1 1-1 1-3 3-2 1a17 17 0 00-1 1zM70 102a5 5 0 00-3 0h3zM211 237l1 2-1-2zM221 253l-1-1 1 1zM296 242l1-2 1-1 1-1v-1h1-1v1l-1 1a11 11 0 01-2 3l-1 1a13 13 0 011-1 4 4 0 001-2l-1 1a14 14 0 01-2 2s1 0 0 0l-1 1 1-1-2 3a31 31 0 004-4zM224 167zM294 246l-2 2a28 28 0 004-4l1-2-2 2a20 20 0 01-1 2zM247 274a2 2 0 011 1 4 4 0 002 0l-3-1zM214 243a6 6 0 001 1l-1-1v-1c-1 0 0 0 0 0h-1v-1l-1-1 1 3h1z"/><path class="a" d="M290 248c0 1 0 0 0 0l2-1a23 23 0 002-2l-1 1-1 1v-1a10 10 0 001-1h1l1-1 1-1-2 2v-1a9 9 0 01-1 2 39 39 0 01-5 4l2-2zm1-1h1l-2 1a2 2 0 011-1zM285 251h1l2-1h-2l-1 1zM234 268a25 25 0 00-3-2 13 13 0 002 1l1 1zM284 252l1-1-1 1zM298 269l2-1a14 14 0 00-4 2l2-1zM222 255l1 1-1-1zM220 254a11 11 0 002 1l-1-1h-1z"/><path class="a" d="M221 255l-1-2s1 1 0 0v0l1 2zM219 251c0-1 0 0 0 0a6 6 0 000-1v1z"/><path class="a" d="M221 254l-1-1a5 5 0 001 2 4 4 0 002 2 17 17 0 01-2-2v-1zM217 249l-1-1v-1l1 1-2-2a4 4 0 00-1-2 3 3 0 01-1 0v-1l1 1-2-2v-1a13 13 0 011 2 8 8 0 011 2v-1s0 1 0 0l2 4 1 1 1 2a13 13 0 001 1 6 6 0 00-1-1 5 5 0 00-1-2zM223 256l1 1a9 9 0 01-1-1z"/><path class="a" d="M217 249a5 5 0 000-1v0s2 3 0 1zM225 165a13 13 0 001-1l-1 1zM298 242a18 18 0 011-2 3 3 0 000-1 1 1 0 001 0 2 2 0 01-1 0 10 10 0 00-1 1 11 11 0 01-1 3l1-1zM223 256l1 1c-1-1 0 0 0 0v-1h-1zM246 274a24 24 0 01-3-1l3 1zM276 255h-1a10 10 0 002 0 7 7 0 002-1 13 13 0 00-1 0l-2 1zM225 257h-1l1 1v-1zM242 272h1l-1-1v1zM269 278h-3a16 16 0 003 0zM260 220h-2 1a5 5 0 01-2 0h3zM257 220h-2 4-2zM256 220h-4s1 0 0 0h4zM262 220h0zM263 220c1 0-1 0 0 0h0zM265 220h-1 1zM247 151a34 34 0 00-5 2l3-1 2-1zM236 156a24 24 0 003-1 9 9 0 00-3 1zM233 158l3-2a26 26 0 00-3 2zM271 219l-2-1a5 5 0 00-2 1h4zM255 218a46 46 0 00-4 0 12 12 0 002 0h5a23 23 0 00-3 0zM266 220h-2 2zM306 220h3a22 22 0 00-3 0zM290 151a69 69 0 017 3l2 1a52 52 0 00-6-3l-3-1zM321 221h3-3zM292 220h-2 3a6 6 0 001 0h1a9 9 0 01-3 0zM327 216h-1c-1 0 0 0 0 0h-5a1 1 0 011 0 13 13 0 01-2 0h1a31 31 0 00-4 0l2 1h-2s1 0 0 0h-1v-1h-7a15 15 0 002 0l1 1c-1 0 0-1 0 0h-1-1-2 1-2c-1 0 0 0 0 0h-1-3a13 13 0 003 0v1c1-1 3 0 2-1l1 1h1l-1-1a6 6 0 012 0l-1 1h4a11 11 0 01-3-1 5 5 0 012 0h2a5 5 0 00-1 1h9l1-1a11 11 0 003 0h1a7 7 0 002-1h-3zm-18 1a4 4 0 012 0h-2zm4 0h-1 4a10 10 0 01-3 0zm5 0h2a7 7 0 011 0h-3zm4 0h-1 1zm1 0a7 7 0 01-1 0 2 2 0 011 0zm1 0v-1 1zm4-1h-1c1 0 1 0 0 0h1zM278 220a10 10 0 00-3 0h-1 4c-1 0-2 0 0 0zM267 221a8 8 0 002 0h-2zM268 220a4 4 0 00-1 0h-3l1 1a7 7 0 013 0v-1h5-2-3zM279 220h-1a4 4 0 011 0h3-2-1zM287 220h-6 6c1 0 1 0 0 0zM292 221h-2-2 4a9 9 0 002 0 14 14 0 00-2 0zM270 254l-1 1h2l-1-1zM266 254h-1 1zM260 254l-1-1h-2l-2-1a37 37 0 007 2l1 1a8 8 0 001 0 22 22 0 013 0h-1a27 27 0 01-6-1zM251 150l3-1 3-1h2a4 4 0 001-1l-3 1h-3l-1 1h-2l-3 1h3z"/><path class="a" d="M260 253h1a13 13 0 001 1l-2-1zM263 254h3a22 22 0 01-3 0h1l-2-1 1 1zM259 252h-1s-1 0 0 0a5 5 0 002 1l-2-1-2-1 3 1zM213 179a4 4 0 000-1 2 2 0 001-1 3 3 0 00-1 2zM283 252h0zM280 254l1-1h-1v1zM274 255a7 7 0 011 0v-1h1a18 18 0 012 0 4 4 0 001 0h-1l2-1h-1a8 8 0 00-2 1 10 10 0 01-1 0h1-1a5 5 0 00-2 0v1zM274 255h-4a19 19 0 004 0zM261 254l-2-1a5 5 0 002 1zM250 221l1-1h-1v1zM277 148a18 18 0 002 0 14 14 0 00-2 0zM276 147h-1 1zM262 147a6 6 0 001 0h-3 2zM253 250l2 1-2-2h-1l1 1zM268 147h-2a12 12 0 00-2 0 18 18 0 012 0h2z"/><path class="a" d="M257 252l-2-1a9 9 0 00-3-1l2 1h1a8 8 0 002 1zM242 240l-1-1 1 1s1 1 0 0zM245 242a7 7 0 001 1h1l-2-2a4 4 0 00-1 0 3 3 0 010-1v1l1 1zM239 228a4 4 0 001 2 5 5 0 00-1-2zM85 154v0zM86 146a6 6 0 000 1 3 3 0 000-1zM86 153a5 5 0 010 1v-1zM139 133v0zM83 136v-1 1a1 1 0 000 1 5 5 0 000-1zM137 132h-1l1 1v-1c0 1 0 0 0 0zM108 129h-1-1 2zM115 129a1 1 0 00-1 0 4 4 0 001 0z"/><path class="a" d="M83 140h1v1a1 1 0 01-1 0v4h1v1l-1 1 1 1c0 1 0 0 0 0h-1 1-1v1h0l1 1-1-1a13 13 0 010 2h0a10 10 0 010 2h1a2 2 0 00-1 1l1 1c0 1-1 0 0 0a1 1 0 000 1v3l-1 2 1 1c0-1 0 0 0 0h1a3 3 0 000-2v-1-1-1a21 21 0 010-2v-1-2s0 1 0 0v-1-1-1a5 5 0 010-1v-1 0a2 2 0 000-1v-1c0-1 0 0 0 0l-1-1h1a1 1 0 000-1 1 1 0 000-1v0a14 14 0 000-1v-1a17 17 0 000-2 2 2 0 010-1 2 2 0 000-1 13 13 0 000-2v-1-1-2a1 1 0 001 0 3 3 0 00-1 0 3 3 0 010-1l2 1a13 13 0 002 0 3 3 0 011 0v-1l1 1a4 4 0 001 0 3 3 0 011 0h2s0-1 0 0h-1 1a3 3 0 00-2 0h-1a7 7 0 00-1 0v1a11 11 0 00-1 0v-1c0-1 0 0 0 0h0-4a4 4 0 000 2v1c0-1 0 0 0 0a4 4 0 010 1 1 1 0 010-1v7a4 4 0 000 1h0v1a3 3 0 000 1v1h1l-1 1v-1 5h1v1h-1c0 1 0 0 0 0a2 2 0 010 1v3h0v1a2 2 0 010 1v0s0 1 0 0v4a5 5 0 010 1v1a1 1 0 010 1v5c0-1 0 0 0 0h1l-1 1v-1a1 1 0 010 1v1a5 5 0 010 1v1a1 1 0 011 0h-1 0-1v-1s0-1 0 0v-1 0l-1 1v-1 1-1 3l1-1v1a1 1 0 01-1 0h1l-1 1a4 4 0 001-1h7a3 3 0 001 0 3 3 0 002 0h1a3 3 0 001 0 5 5 0 011 0h3c1 0 0 0 0 0a1 1 0 001 0s0 1 0 0h2c1 0 0 0 0 0h1c1 0 0 0 0 0h5a10 10 0 011 0h6a2 2 0 011 0h1c1 0 0 0 0 0h3a6 6 0 001 0 2 2 0 011 0 4 4 0 011 0v-1a3 3 0 00-1 0 1 1 0 011 0h-1 1v-1h-1 6s1 0 0 0a4 4 0 00-1 0h1v1h-1v-1a2 2 0 00-1 0l1 1h-1-1-1 1l-1 1c-1 0 0-1 0 0h1a8 8 0 011 0 10 10 0 005-1 3 3 0 011-1 2 2 0 011 0s-1 0 0 0h1l2-1h1v-1h2l3-3 2-1s0-1 0 0l1-1v-1l1-2s1 0 0 0l1-1h-1a19 19 0 001-3v-1l1-1h-1a24 24 0 000-4c0-6-2-10-5-13h1l-1-1v1-1h-1a1 1 0 00-1-1v-1h-1c-1-1 0 0 0 0v1a21 21 0 00-2-2h1-1-1 1l-1-1h-1l1 1c0 1 0-1 0 0v-1h-1-1v-1 1l-1-1-1-1v1a2 2 0 00-1-1h-1s1 0 0 0l-1-1h-1l1 1h-1v-1 1c0-1 0 0 0 0l-1-1h-2-1 1-1s1 0 0 0l-1 1-1-1h1c1 0 0 0 0 0h2a13 13 0 012 0h2-1v-1l1 1a4 4 0 002 0 13 13 0 002 1v-1s-1 0 0 0a3 3 0 011 1l-1-1 1 1a6 6 0 001 0 16 16 0 013 1h1-1l-1-1h-2s1 0 0 0h-1 1l-1-1a7 7 0 00-2-1h-1 1v1h-1-1v-1h-1-1c-1 0 0 0 0 0h-1s0-1 0 0a1 1 0 001 0s0-1 0 0c1 0 0 0 0 0h3a11 11 0 01-2 0l-2-1 1 1-1-1a2 2 0 00-1 0c-1 0 0 0 0 0h-1l-1 1v-1h-1v0h-1-1v1c0-1 0 0 0 0v-1l-2 1h1a3 3 0 011 0h-1c1 0 0 0 0 0h0a1 1 0 001 1h-1-2l-1 1v-1h-1 2-2-2-2a3 3 0 01-1 0h-1-1 3-4s1 0 0 0a1 1 0 001 0v1a4 4 0 00-1 0l-1-1h0l-1 1c-1 0 0 0 0 0h-1v-1h-1l1 1-1-1h-1-2a1 1 0 01-1 0h1-1 1a2 2 0 011 0h1a4 4 0 002 0v-1l1 1v-1 0h-1 1-1-1-1 0c0-1 0 0 0 0v-1a12 12 0 00-3 0h-3a10 10 0 01-2 0h-2-1-1 0c-1 0 0 0 0 0H83h0l1 4h-1a12 12 0 010 2h1-1a16 16 0 000-3v5a1 1 0 000 1v1a3 3 0 010-1v3zm1 11v-1 1zm1 4a2 2 0 010 1v-1zm1-17v-1 1zm0-8a1 1 0 010 1v-1zm0 1zm-1 39zm0 2zm42 0h0zm2 0h-1 1zm0-43s0 1 0 0v1zm-2 0zm-1 0h0zm-1 0h1-1zm0 0h-1 1zm-17 1h-1 1zm-1-1v1h-1l1-1zm-13 2a1 1 0 010-1v1zm0-1h-1l1 1-1-1h-1a6 6 0 002 0zm-6 0h-1 1zm43 1zm-2 0zm-3 0zm-40 30v-1s0-1 0 0v1zm0 1v-1 1zm0 5v-1a4 4 0 000 1zm0 4zm0 1a1 1 0 011 0v-1 1zm4 0v-1c1 0 0 1 0 0l1 1h-1zm2 0h0zm0 0h1zm1 1h0zm2-1h0zm5 1h0zm1 0zm0 0l-1-1 1 1zm7-2a6 6 0 00-2 0h-1v1h-2c-1 0 0 0 0 0h-1a1 1 0 01-1 0h1l-1-1v1h-1l-2-1v1a4 4 0 001-1h-1 4a1 1 0 001 0 1 1 0 001 0h6-2zm3 0zm13 0zm6 0s1 0 0 0zm12-3l1-1-1 1zm6-6c-1 0 0 0 0 0zm1-6zm-1 3l1-1-1 1zm-4-21zm-1-1zm-1-1h-1 1zm-6-3c0-1 0 0 0 0zm-1-1zm-1 0h-1 1zm-1-1v1s0-1 0 0zm-2-1v1h1v1h1-2v-1c1 0 0 0 0 0zm-1 1h0c-1 0 0 0 0 0zm0 0h-1 0a3 3 0 011 0zm-2 0v-1h-1l1 1zm0-1v1h-1 1zm-2 1a12 12 0 011 0 4 4 0 01-1 0h-1 1zm-2 0s-1 0 0 0zm-2 0zm-1 0c-1 0 0 0 0 0zm0-1s-1 0 0 0zm-1 1zm-1 0zm-1-1v0zm-1 0h1l-1 1 1-1-1 1v-1zm-2 0h1v1c-1 0 0 0 0 0h-1v-1s0 1 0 0v1s0-1 0 0v-1zm-1 1h2-1-1zm0 0h-1 1zm-3 0h2-1-1zm1 0zm-2 0h-1 1zm-5-1zm-1 0h1l-1 1v-1zm0 0h-1c-1 0 0 1 0 0a5 5 0 011 0zm-1 1h-1 1zm-1-2c0 1 0 1 0 0zm3 0zm0 1v-1 1zm-2-1h-1 2-1a2 2 0 011 0h1l-1 1v-1l-1 1 1-1h-1-1 1zm-1 1h-2zm-3 0a1 1 0 011 0h-2 1a2 2 0 01-1 0h1zm-3-2h1l-1 1zm0 2zm1 0h1l-1 1a2 2 0 010-1c-1 0 0 0 0 0a4 4 0 01-1 0c-1 0 0 0 0 0h1zm-2 0c0 1 0 0 0 0zm-3-2h1c0 1 0 0 0 0h-1zm-1 1l1 1-1-1zm-2 0h-1 1zm-2-1l-1 1h1zm-1 1c1 1 0 1 0 0zm-1 9v0zm-2 14l1-1-1 1zm1 8v-1 1s0-1 0 0zm0-18zm0-11a2 2 0 010-1v1zm-1 6h1-1zM138 132h-1 1z"/><path class="a" d="M104 172h1v-1l-1 1zM111 130h-1l-1-1v1c0 1 0 0 0 0-1 0 0 0 0 0l-1-1v1h1c1 0-1 0 0 0h2zm-1 0z"/><path class="a" d="M109 130h-3l2 1s0-1 0 0l-1-1v1h2l-1-1h1zM113 130v-1 1zM112 130s0-1 0 0h-1 1zM108 129a12 12 0 002 0 10 10 0 00-2 0zM112 130s1 0 0 0zM120 173h3-2a11 11 0 01-2 0h1zM124 173a8 8 0 01-1 0h1zM119 173a8 8 0 00-2 0 9 9 0 002 0zM124 173h2a4 4 0 00-2 0zM114 129h-1v1l1-1zM115 173a3 3 0 001 0h-1zM115 173h-1 1zM128 173zM129 130h0zM125 130h0zM135 132zM129 173zM133 172a24 24 0 003-1l-2 1h-1zM138 133h-1 1-1 1c1 0 0 0 0 0zM86 153v-1 1zM142 133h-1 1zM142 135l1 1s0-1 0 0a1 1 0 00-1-1zM142 135a2 2 0 01-1-1h-1-1 1l2 1zM139 133s0-1 0 0zM140 135s0-1 0 0zM144 137v-1h-1l1 1zM145 138a15 15 0 00-1-1 14 14 0 001 1zM149 144l-1-1 1 1zM149 148v0zM151 142v1s0 1 0 0a4 4 0 010 1l1-1a1 1 0 010 1h-1l1 1a2 2 0 010-1v4a3 3 0 010 1 2 2 0 001 0v2l1-1v-1c0 1 0 0 0 0a7 7 0 000-2l-1 1v-1h1l-1-1-1-1a1 1 0 011 0 21 21 0 00-1-2 3 3 0 000 1s1 0 0 0v-1-1 0l-1-1v1zm3 8h-1 1zm-1-2c1 1 0 1 0 0zm0 0zm0-2v0zm0 1v1-1zm-1-2h1-1v-1 1zm0-1v-1 1zM139 134l1-1h-1v1zM146 139v1h1l-1-1zM145 138l1 1v0c0-1 0 0 0 0l-1-1zM122 129h-2a2 2 0 001 0h1zM140 133s-1 0 0 0zM117 130h0zM110 173a1 1 0 001 0h-1zM119 129h0zM115 129a2 2 0 002 0h-2z"/><path class="a" d="M116 130l1-1h-1v1zM120 129h-1v1l1-1zM126 129l1-1h-1v1zM137 130v1h1l-1-1h-1a2 2 0 001 0zM121 130h1v-1 1h-1zM120 129h1-3-1 1a13 13 0 012 0zM118 130h1l-1-1v1l1-1-1 1zM115 129v0h-1v1s0-1 0 0l1-1v0zM120 130v-1 1h0zM84 165zM84 169c0 1 0 0 0 0v0a2 2 0 000-1v1zM84 164a1 1 0 000-1v1zM84 164zM84 162a1 1 0 010 1v-1zM84 162c0 1 0 0 0 0v1c0-1 0 0 0 0v-1zM84 163zM84 172v-1 1zM84 166s0-1 0 0zM84 162zM84 164c1 0 0 0 0 0h1v-1l-1 1c1 0 0 0 0 0zM85 163v1c0 1 0 0 0 0a1 1 0 000-1zM86 157a2 2 0 000 2 2 2 0 000-1v-1z"/><path class="a" d="M85 164a1 1 0 000 1l-1 1h0v1h1a1 1 0 000 1h-1a2 2 0 011 0v1l-1-1 1 1v-1-2a3 3 0 000-2zM120 248l1 1v-1h-1zM124 248h-1a1 1 0 00-1 0h1c1 0 0 0 0 0h1zM118 248a2 2 0 00-1 0h1zM120 249v-1l-1 1h1z"/><path class="a" d="M118 248a1 1 0 00-1 0h1zM106 246l-1 1 1-1zM119 247a1 1 0 001 0l1 1s-1 0 0 0h2a2 2 0 010-1v0h1-1-1l1 1-1-1-1 1-1-1 1 1a4 4 0 00-2-1zM106 247a6 6 0 011 0h-1zM107 196h-1-1 2zM107 247h0zM100 195a2 2 0 001 0c0 1 0 0 0 0h0a6 6 0 00-1 0zM125 248zM146 241h1-1zM111 247s0-1 0 0a2 2 0 001 0 2 2 0 00-1 0z"/><path class="a" d="M137 247h1a4 4 0 001 0v-1h2a15 15 0 001-1h2a1 1 0 000-1c0 1 0 1 0 0h1l1-1h1l1-1h1v-1h1c1 0 0 0 0 0l2-2v-1l1-1 1-1a29 29 0 002-5 4 4 0 011-2h-1l1-1c1-1 0 0 0 0v-1-3a6 6 0 000-1 3 3 0 010-1h1a5 5 0 01-1-1 5 5 0 000 1v1a1 1 0 010-1h-1l1-1h-1a1 1 0 010 1v-2-2-1a1 1 0 000-1h-1s1 0 0 0v-1h1a9 9 0 000 1v-1 1a2 2 0 000 1v1l1 1v0a8 8 0 010-1v-1a10 10 0 000-3l-1-1v-1a4 4 0 01-1-1v-1h-1 1a4 4 0 01-1-2 1 1 0 01-1 0l-1-2-1-1q1 0 0 0v-1h-1l-4-3-1-1h-1l-1-1h-1l-2-1h-1 1-1-4 0-1v-1h-1v1h-1a1 1 0 001 0 33 33 0 00-5 0h-16 1-2s1 0 0 0h-1 1-1a1 1 0 00-1 0h-1 1-1-1c-1 0 0 0 0 0h1-3-1-2-1c-1 0 0 0 0 0h-1 1-2l-1-1v1a3 3 0 00-1-1c-1 0 0 0 0 0h-1-1-1 1-2c-1 0 0 0 0 0h-1 1-3v1l-1-1s1 0 0 0v1a2 2 0 00-2-1h-1 7c1 0 2 0 1-1v0h1a1 1 0 000 1 4 4 0 002-1 11 11 0 003 0h-1v-1 1a4 4 0 011 0h-1 1a6 6 0 001 0h5-1-1s1 0 0 0h-3c-1 0 0 0 0 0h-1v-1a10 10 0 00-2 0h-1 1v1h0-1-1-1-1-1c-1 0 0 0 0 0h-1 1v-1a1 1 0 000 1h1v-1 0h1v1h2v-1 0a9 9 0 01-2 0v0h-2-2c-1 0 0 0 0 0v1l-1-1a6 6 0 00-2 1v-1h-1l1 1-2-1h-2a6 6 0 010 2c0-1 0-1 0 0l1 1-1-1v2l1-1s0 1 0 0a5 5 0 010-1v1c0-1 0 0 0 0v0l1-1a2 2 0 000 1v-1 2a1 1 0 000-1v2a7 7 0 000 1 3 3 0 000 1v2a3 3 0 010-1v-1a4 4 0 010 1v1a3 3 0 000 1v1c0 1 0 0 0 0v3c0 1 0 0 0 0a4 4 0 010 1v1c0 1 0 0 0 0v-1-1 4a2 2 0 000-1h1a5 5 0 000 1h-1a1 1 0 000 1v1h1l-1 1v1c0 1 0 1 0 0v4a1 1 0 010 2v-1l-1 1 1-1a3 3 0 010-2v-1h-1a5 5 0 001-2h-1v-2 3 1h-1l1 1h-1a16 16 0 000 3v4a13 13 0 010 1v13l-1-1 1 1h-1l1 4h-1a16 16 0 010 2h1-1a19 19 0 000-2v4h1-1 2a3 3 0 001 0h2a13 13 0 01-1 0h-2 7a1 1 0 011 0h2a1 1 0 001 0h1c-1 0 0 0 0 0 1 0 0 0 0 0h5c1 0-1 0 0 0a16 16 0 012 0 13 13 0 012 0 3 3 0 001 0h3c1 0 0 0 0 0h6v-1-1a3 3 0 00-2 0h-2a4 4 0 00-1 0h-3s1 0 0 0v1l-1-1a11 11 0 01-2 0v1-1h-1v1l-1-1v1l-1-1-1 1 1-1a7 7 0 01-1 0h-1 1a2 2 0 01-1 1 8 8 0 00-1 0 3 3 0 00-1 0h-1c-1 0 0 0 0 0h-1c-1 0 1 0 0 0h-1l-1-1v1h1a1 1 0 00-1 0 18 18 0 00-2 0v-1h-4a5 5 0 01-1 0 4 4 0 00-1 0 1 1 0 00-1 0v-2-2-3-1-1 1a11 11 0 000-2 2 2 0 010-1s0-1 0 0v-2-1-1-1 1l1-1a4 4 0 000 2 10 10 0 000 3v-1a12 12 0 000 1c0 1 0 0 0 0v1c0 1 0 0 0 0v-1a1 1 0 000 1v3a7 7 0 000 2v1c0-1 0 0 0 0v1a18 18 0 000 3h2a8 8 0 002 0h1v-1h0a6 6 0 001 0v0h1c1 0 0 0 0 0v1l1-1h-1a4 4 0 002 0c-1 1 0 0 0 0h1v1h1l-1-1h4v1l1-1v1h1l-1-1c1 0 0 0 0 0h2a2 2 0 011 1v-1h3-1l1 1v-1 1l1-1v1a3 3 0 011 0l1-1v1h1-1l1-1h1v1h2c1 0 0 0 0 0a7 7 0 011 0h2-1a1 1 0 011 0h2c0 1-1 0 0 0v-1l1 1s0-1 0 0l1-1v1h1l1-1h-1l1 1s0-1 0 0h1a2 2 0 011 0 3 3 0 001 0h2-1-1s1 0 0 0h-1v0h-1l-1 1h1v1h1v-1h1c-1 0-1 0 0 0h1a2 2 0 001 0h2a16 16 0 003 0 3 3 0 002 0 4 4 0 001-1h1c1 0 0 0 0 0zm19-25zm0-6c1 0 1 0 0 0h1l-1 1v-1s1 0 0 0zm0 2zm0-3zm-64-19zm-2 0h-1 1zm-1 0h1-2 1zm-1 0h-2 2zm-3 0h0zm1 18h1l-1 1zm-2 15zm0 14a2 2 0 010-1v1zm29 5l1 1h-1 1zm-3-1h-1a2 2 0 011 0zm-5 2h-1 1zm-1 0h-1 1zm-10-1v0zm-5-1v0zm-3 1v1h-1l1-1zm-1-9v1zm0-23v0zm0 2v-1 1zm0 1v0zm0 0zm-1 14v0zm0 6v-1 1zm0-2c1 0 0 0 0 0 0 1 0 0 0 0zm1-2zm0-12a1 1 0 010-1v1zm0-2v2l-1-1v0c1 0 0 0 0 0v-1h1l-1 1v-1a3 3 0 010-1h1v1c0 1 0 0 0 0zm0 9v-1a1 1 0 010 1zm1-11zm0 1zm0 11v1a1 1 0 010-1s0 1 0 0zm0 0v-1 1zm0-9a6 6 0 010-2v2zm0 1v2zm0 2v1a3 3 0 010 1v-1a1 1 0 010-1zm0 3a2 2 0 010 1 6 6 0 010 1s0-1 0 0v-1-1zm0 4v2a8 8 0 000-2v1zm0 6a1 1 0 000 1v-1zm0 2zm0 1zm0-19h1zm38 26v-1 1zm2-1zm-34-49a1 1 0 01-1 0h1zm0 0h1-1zm2 0zm-5 0c1 0 0 0 0 0zm-2 2a1 1 0 000 1l-1-1h1zm55 45zm1-1s1 0 0 0zm0 1v-1 1zm6-7v1a17 17 0 00-1 1l-1 1-1 1v-1 1h-1l-1 1c0-1 0 0 0 0a1 1 0 01-1 0h-1v1h-1-1a5 5 0 001 0h-1 1l1-1h1c1 0 0 0 0 0l1-1a1 1 0 001 0h-1 1a2 2 0 001-1l1-1h1a21 21 0 003-4l-2 2zm2-2zm-3-33v-1 1zm-7-4h-1 1zm-5-1h0zm-2 0zm-22 0h-1a2 2 0 011 0zm-2 0zm-2 0zm-7 0zm-2 0zm-1 0h1-1zm-1 0h0zm-2-1h1v1h1-2a1 1 0 001 0h-1v-1h-1 1zm0 1h-1v-1l1 1zm-2-1l1 1c1 0 0 0 0 0l-1-1 1 1h-1-1a4 4 0 011-1zm-1 1v-1h-1l1 1zm-3 0h2a7 7 0 01-2 0h-1 1zm-3 0a1 1 0 001 0h-1zm0 3c1 0 0 0 0 0 0 1 0 0 0 0zm0 0zm0 2v-1 1zm0 0v0zm0 1v1zm0 1v0zm0 3v-1a2 2 0 000-1l1 1h-1v1c0 1 0 0 0 0zm1 4h-1a4 4 0 000-1l1-1-1 2h1zm0-2v-1a3 3 0 01-1 1zm0-2l-1 1 1-1v-1 1zm0 3zm1 35h-1a1 1 0 011 0zm27 0h-1s-1 0 0 0h1zm1 0h-1a1 1 0 011 0zm5 0h0a5 5 0 001 0h-1zm5 0h0zm1 0h1c-1 0-1 0 0 0h-1zm4 0h-1 1zm2 0l1 1-1-1zm1 1zm0 0a1 1 0 011 0 2 2 0 00-1 0zm2-2h0z"/><path class="a" d="M116 248a1 1 0 011 0h-1zM157 217v0zM118 249h-1 1zM157 217v-1 1zM158 222a11 11 0 010 1v-1zM158 227a25 25 0 000-3v-1a13 13 0 010 3 10 10 0 01-1 2l1-1zM157 229a14 14 0 000 1 10 10 0 000-2v1zM158 220a6 6 0 000 2v-2zM154 208l1 3h1a19 19 0 00-2-2v-1zM118 249l1-1-1 1zM117 249v-1c0-1 0 0 0 0v1zM84 207a3 3 0 000-1v1zM119 248h-1 1-1 1zM116 249v-1 1zM89 195a6 6 0 01-1 0v1l1-1zM85 249h-1a4 4 0 01-1 0 5 5 0 002 0zM104 197v0zM105 197h-1 1c-1 0 0 0 0 0zM104 197zM105 197s-1 0 0 0zM106 198zM113 197h-2c-1 0 0 0 0 0a10 10 0 002 0zM109 197h-1v1h1v-1zM111 197h-1-1a1 1 0 011 0h1zM85 218v-1l-1-1v1s1 0 0 0l1 1zM108 197a2 2 0 01-1 0h-1l-1 1h-1 2l2-1zM153 237v1a2 2 0 000-1zM103 197h-1-1c1 0 1 0 0 0a5 5 0 002 0zM156 233a9 9 0 00-1 1l1-1z"/><path class="a" d="M102 198h1c1 0 0 0 0 0h1l-1-1h-1l1 1h-1zM86 214v0zM84 208s1 0 0 0a2 2 0 000 1 5 5 0 000-1zM98 246a8 8 0 001 0 3 3 0 00-1 0zM156 233a3 3 0 000-1v1zM99 198h0zM88 197h-1 1zM93 197h1-1zM100 198h2l-1-1c1 0 0 0 0 0h-1v1zM85 210v-1 1zM85 201v0zM85 205v-1-1 1c0-1 0 0 0 0v1zM85 209v-1-1c0 1 0 0 0 0a1 1 0 010 1v1zM85 206zM85 203v-1 1zM85 214a14 14 0 00-1 2h1a15 15 0 000-2zM85 213v0zm0 1zM84 205a4 4 0 010-1v-1l1-1h-1v-1-1 5zM85 211v0zM85 203v-1 1zM85 198v2c0-1 0 0 0 0v-1-1zM114 197s1 0 0 0v1a4 4 0 011 0v-1 0h-1zM85 205zM114 198h-1 1zM85 199v2a6 6 0 000-1v-1zM119 197h0zM85 211c0 1 0 0 0 0zM125 198h1-1zM127 194h1l-1-1h-1c-1 0 0 0 0 0a7 7 0 00-1 0l-1 1v-1l-1 1h1-1s1 0 0 0h-3a2 2 0 001 0h1-1-1c-1 0 0 0 0 0h-1-1l1 1h1c0-1 1 0 0 0h1l-1-1a1 1 0 011 0v1h1a2 2 0 01-1-1l1 1s0-1 0 0h3a3 3 0 011 0 1 1 0 001-1zm0-1v0zm-7 1h0zm2 0h-1 2-1zm2 0a1 1 0 011 0h-1zm1 0zm0 0zm1 0c-1 0-1 0 0 0 0-1 0 0 0 0zM85 211v-1 1z"/></svg>